<svg width="71" height="90" viewBox="0 0 71 90" fill="none" xmlns="http://www.w3.org/2000/svg">
    <path
        d="M49.5379 75.0124C49.5379 72.8124 50.2984 70.205 52.6885 70.205C54.4268 70.205 55.6762 71.4544 55.6762 73.4371C55.649 76.0173 53.2589 77.2939 51.4935 78.5433C48.0712 80.9877 45.2465 83.0519 45.2194 87.8865H59.8046V84.247H50.407C51.8465 82.1013 54.1824 80.9062 56.1379 79.4396C58.0935 77.9729 59.6959 76.2346 59.6959 73.1111C59.6959 69.0099 56.5182 66.5654 52.8786 66.5654C48.0984 66.5654 45.5181 70.2321 45.6539 75.0124H49.5379Z"
        stroke="black" stroke-width="1.25" stroke-miterlimit="3.8637" stroke-linejoin="round" />
    <path
        d="M49.5379 75.0124C49.5379 72.8124 50.2984 70.205 52.6885 70.205C54.4268 70.205 55.6762 71.4544 55.6762 73.4371C55.649 76.0173 53.2589 77.2939 51.4935 78.5433C48.0712 80.9877 45.2465 83.0519 45.2194 87.8865H59.8046V84.247H50.407C51.8465 82.1013 54.1824 80.9062 56.1379 79.4396C58.0935 77.9729 59.6959 76.2346 59.6959 73.1111C59.6959 69.0099 56.5182 66.5654 52.8786 66.5654C48.0984 66.5654 45.5181 70.2321 45.6539 75.0124H49.5379Z"
        stroke="black" stroke-width="2.5" stroke-miterlimit="3.8637" stroke-linejoin="round" />
    <path fill-rule="evenodd" clip-rule="evenodd"
        d="M49.5379 75.0124C49.5379 72.8124 50.2984 70.205 52.6885 70.205C54.4268 70.205 55.6762 71.4544 55.6762 73.4371C55.649 76.0173 53.2589 77.2939 51.4935 78.5433C48.0712 80.9877 45.2465 83.0519 45.2194 87.8865H59.8046V84.247H50.407C51.8465 82.1013 54.1824 80.9062 56.1379 79.4396C58.0935 77.9729 59.6959 76.2346 59.6959 73.1111C59.6959 69.0099 56.5182 66.5654 52.8786 66.5654C48.0984 66.5654 45.5181 70.2321 45.6539 75.0124H49.5379Z"
        fill="white" />
    <path fill-rule="evenodd" clip-rule="evenodd"
        d="M37.2341 4.31339C36.5008 1.92326 34.002 0.592391 31.6119 1.32573L4.83155 9.52822C2.44142 10.2616 1.11055 12.7603 1.84388 15.1505L14.4192 56.2716C15.1526 58.6617 17.6513 59.9926 20.0415 59.2593L46.8218 51.0567C49.2119 50.3234 50.5428 47.8246 49.8095 45.4345L37.2341 4.31339Z"
        fill="white" stroke="black" stroke-width="1.5" stroke-miterlimit="3.8637" />
    <path fill-rule="evenodd" clip-rule="evenodd"
        d="M40.0045 36.906C34.4638 38.7258 30.8514 36.3085 29.086 31.0122L29.1675 30.985C30.8514 32.7233 33.323 33.8369 35.7403 32.9677C38.2391 32.0714 39.4885 29.3554 38.565 26.8294C37.4786 23.8418 34.3551 22.701 31.6391 21.5603C28.1354 20.1751 25.2835 18.7356 23.165 15.422C23.8712 19.3603 22.2144 23.1356 20.2588 26.422C18.8465 28.785 17.7057 31.3924 18.6835 34.1085C19.6069 36.6344 22.4045 37.8023 24.8761 36.906C27.2662 36.0369 28.6243 33.5653 28.6786 31.148L28.7601 31.1208C30.8786 36.1727 29.4391 40.79 24.0884 42.6912L24.2242 43.5332L40.4391 37.6394L40.0045 36.906Z"
        fill="black" stroke="black" stroke-width="0.1749" stroke-miterlimit="3.8637" />
    <path fill-rule="evenodd" clip-rule="evenodd"
        d="M32.8613 10.6961C32.8613 8.22451 34.8712 6.18747 37.37 6.18747H65.3725C67.8713 6.18747 69.8812 8.19735 69.8812 10.6961V53.7185C69.8812 56.1901 67.8713 58.2271 65.3725 58.2271H37.37C34.8984 58.2271 32.8613 56.2173 32.8613 53.7185V10.6961Z"
        fill="white" stroke="black" stroke-width="1.5" stroke-miterlimit="3.8637" />
    <path fill-rule="evenodd" clip-rule="evenodd"
        d="M52.6071 27.1827C53.5034 23.7876 55.4589 21.0715 58.4737 21.8863C61.4886 22.7012 62.7651 25.4715 61.9503 28.4864C61.1355 31.5012 53.0416 40.6543 51.8466 43.5605C50.9231 40.5457 42.7206 31.2296 42.1774 28.1333C41.6342 25.0641 43.1552 22.4024 46.2243 21.8592C49.2935 21.316 51.0046 24.195 51.6021 27.6444C52.2268 31.1209 51.6836 30.5777 52.6071 27.1827Z"
        fill="#C4000C" stroke="#C73326" stroke-width="0.2875" stroke-miterlimit="3.8637" />
</svg>
    