<svg width="72" height="91" viewBox="0 0 72 91" fill="none" xmlns="http://www.w3.org/2000/svg">
    <path
        d="M22.3386 79.4395C24.2942 79.4395 26.9288 79.3852 26.9288 82.5358C26.9288 84.5185 25.5164 85.8222 23.6967 85.8222C21.3608 85.8222 20.3016 83.9753 20.1929 81.6938H16.3633C16.2818 86.5012 19.2966 89.2988 23.751 89.2988C27.6349 89.2988 31.1386 86.8272 31.1386 82.4272C31.1386 80.0913 29.8078 78.1901 27.6078 77.6741V77.6197C29.4547 77.0765 30.3782 75.3111 30.3782 73.3555C30.3782 69.6073 26.8744 67.5703 23.6967 67.5703C19.5954 67.5703 16.9608 70.5308 16.825 74.795H20.6547C20.6275 72.6494 21.7139 71.0469 23.7238 71.0469C25.1905 71.0469 26.5485 72.0518 26.5485 73.8173C26.5485 76.2074 24.0497 76.5605 22.3115 76.4247V79.4395H22.3386Z"
        stroke="black" stroke-width="1.25" stroke-miterlimit="3.8637" stroke-linejoin="round" />
    <path
        d="M22.3386 79.4395C24.2942 79.4395 26.9288 79.3852 26.9288 82.5358C26.9288 84.5185 25.5164 85.8222 23.6967 85.8222C21.3608 85.8222 20.3016 83.9753 20.1929 81.6938H16.3633C16.2818 86.5012 19.2966 89.2988 23.751 89.2988C27.6349 89.2988 31.1386 86.8272 31.1386 82.4272C31.1386 80.0913 29.8078 78.1901 27.6078 77.6741V77.6197C29.4547 77.0765 30.3782 75.3111 30.3782 73.3555C30.3782 69.6073 26.8744 67.5703 23.6967 67.5703C19.5954 67.5703 16.9608 70.5308 16.825 74.795H20.6547C20.6275 72.6494 21.7139 71.0469 23.7238 71.0469C25.1905 71.0469 26.5485 72.0518 26.5485 73.8173C26.5485 76.2074 24.0497 76.5605 22.3115 76.4247V79.4395H22.3386Z"
        stroke="black" stroke-width="2.5" stroke-miterlimit="3.8637" stroke-linejoin="round" />
    <path fill-rule="evenodd" clip-rule="evenodd"
        d="M22.3386 79.4395C24.2942 79.4395 26.9288 79.3852 26.9288 82.5358C26.9288 84.5185 25.5164 85.8222 23.6967 85.8222C21.3608 85.8222 20.3016 83.9753 20.1929 81.6938H16.3633C16.2818 86.5012 19.2966 89.2988 23.751 89.2988C27.6349 89.2988 31.1386 86.8272 31.1386 82.4272C31.1386 80.0913 29.8078 78.1901 27.6078 77.6741V77.6197C29.4547 77.0765 30.3782 75.3111 30.3782 73.3555C30.3782 69.6073 26.8744 67.5703 23.6967 67.5703C19.5954 67.5703 16.9608 70.5308 16.825 74.795H20.6547C20.6275 72.6494 21.7139 71.0469 23.7238 71.0469C25.1905 71.0469 26.5485 72.0518 26.5485 73.8173C26.5485 76.2074 24.0497 76.5605 22.3115 76.4247V79.4395H22.3386Z"
        fill="white" />
    <path fill-rule="evenodd" clip-rule="evenodd"
        d="M37.1412 5.01951C36.5709 2.60222 34.1807 1.08122 31.7363 1.6516L4.4399 7.95285C2.02261 8.52322 0.501604 10.9405 1.07198 13.3578L10.7412 55.2666C11.3115 57.6839 13.7017 59.2049 16.1461 58.6345L43.4425 52.3332C45.8598 51.7629 47.3808 49.3456 46.8104 46.9283L37.1412 5.01951Z"
        fill="white" stroke="black" stroke-width="1.5" stroke-miterlimit="3.8637" />
    <path fill-rule="evenodd" clip-rule="evenodd"
        d="M37.3042 39.6764C31.6276 41.0073 28.2325 38.2912 26.9288 32.8591L27.0103 32.8319C28.5313 34.706 30.8943 36.0369 33.393 35.3579C35.9733 34.6789 37.44 32.0714 36.7338 29.4912C35.919 26.422 32.9041 25.0097 30.2696 23.6245C26.9017 21.9405 24.1856 20.2566 22.3659 16.78C22.7189 20.7726 20.7362 24.385 18.509 27.4813C16.9066 29.7356 15.5214 32.2072 16.2819 35.0048C16.988 37.6122 19.6769 39.0246 22.2029 38.3455C24.6745 37.6937 26.2498 35.3307 26.4943 32.9406L26.5757 32.9134C28.2597 38.1283 26.4128 42.6097 20.8992 44.0493L20.9807 44.8912L37.6573 40.4369L37.3042 39.6764Z"
        fill="black" stroke="black" stroke-width="0.1749" stroke-miterlimit="3.8637" />
    <path fill-rule="evenodd" clip-rule="evenodd"
        d="M33.4745 13.0863C33.4745 10.5875 35.4844 8.57767 37.9832 8.57767H65.9858C68.4845 8.57767 70.4944 10.5875 70.4944 13.0863V56.1087C70.4944 58.5803 68.4845 60.6174 65.9858 60.6174H37.9832C35.4844 60.6174 33.4745 58.6075 33.4745 56.1087V13.0863Z"
        fill="white" stroke="black" stroke-width="1.5" stroke-miterlimit="3.8637" />
    <path fill-rule="evenodd" clip-rule="evenodd"
        d="M51.6722 23.7061L43.524 35.4937L52.0796 46.7111L60.9611 34.8419L51.6722 23.7061Z"
        fill="#C4000C" />
</svg>
    