<svg xmlns="http://www.w3.org/2000/svg" width="110" height="91" viewBox="0 0 110 91" fill="none">
    <path fill-rule="evenodd" clip-rule="evenodd"
        d="M1.85903 21.1428C1.15286 18.8613 2.45656 16.4168 4.73805 15.7107L51.0197 1.55999C53.3012 0.853814 55.7456 2.15752 56.4518 4.43901L76.3877 69.5973C77.0938 71.9059 75.7901 74.3232 73.5087 75.0294L27.227 89.18C24.9184 89.8862 22.5011 88.5825 21.7949 86.301L1.85903 21.1428Z"
        fill="white" stroke="black" stroke-width="1.5" stroke-miterlimit="3.8637" />
    <path fill-rule="evenodd" clip-rule="evenodd"
        d="M36.1086 27.9057L29.3456 49.0366L46.7555 60.1724L53.0296 39.3946L36.1086 27.9057Z"
        fill="#C4000C" />
    <path fill-rule="evenodd" clip-rule="evenodd"
        d="M51.2913 13.2389C51.4271 10.8488 53.4641 9.00188 55.8543 9.13768L104.2 11.6636C106.59 11.7994 108.437 13.8365 108.301 16.2266L104.743 84.291C104.608 86.6811 102.57 88.5281 100.18 88.3923L51.8345 85.8663C49.4444 85.7305 47.5974 83.6935 47.7332 81.3033L51.2913 13.2389Z"
        fill="white" stroke="black" stroke-width="1.5" stroke-miterlimit="3.8637" />
    <path fill-rule="evenodd" clip-rule="evenodd"
        d="M77.5013 43.7132L77.6914 47.2984H74.1062L73.5358 54.0886L77.3111 53.8984L77.5013 59.1948L74.8667 62.9701H82.4717L80.326 59.3849L80.5161 54.2787H85.8124L87.1161 47.2984H80.8964L81.2766 43.9033L77.5013 43.7132Z"
        fill="black" stroke="black" stroke-width="0.25" stroke-miterlimit="3.8637" />
    <path fill-rule="evenodd" clip-rule="evenodd"
        d="M73.4543 38.1181C73.4543 34.6687 76.4148 31.8983 80.0544 31.8983C83.6939 31.8983 86.6544 34.6958 86.6544 38.1181C86.6544 41.5675 83.6939 44.3378 80.0544 44.3378C76.4148 44.3378 73.4543 41.5675 73.4543 38.1181Z"
        fill="black" stroke="black" stroke-width="0.5" stroke-miterlimit="3.8637" />
    <path fill-rule="evenodd" clip-rule="evenodd"
        d="M82.4988 51.8071C82.4988 48.3577 85.4593 45.5873 89.0989 45.5873C92.7384 45.5873 95.6989 48.3848 95.6989 51.8071C95.6989 55.2565 92.7384 58.0269 89.0989 58.0269C85.4593 58.054 82.4988 55.2565 82.4988 51.8071Z"
        fill="black" stroke="black" stroke-width="0.5" stroke-miterlimit="3.8637" />
    <path fill-rule="evenodd" clip-rule="evenodd"
        d="M62.5087 51.3181C62.5087 47.8687 65.4692 45.0984 69.1087 45.0984C72.7482 45.0984 75.7087 47.8959 75.7087 51.3181C75.7087 54.7675 72.7482 57.5379 69.1087 57.5379C65.4692 57.5379 62.5087 54.7675 62.5087 51.3181Z"
        fill="black" stroke="black" stroke-width="0.5" stroke-miterlimit="3.8637" />
</svg>