<svg width="72" height="90" viewBox="0 0 72 90" fill="none" xmlns="http://www.w3.org/2000/svg">
    <path
        d="M36.7561 88.0071H40.5857V83.1725H43.2203V79.6688H40.5857V67.0935H36.9734L28.3363 79.2614V83.1454H36.7289V88.0071H36.7561ZM36.7561 79.6417H31.5413L36.6746 72.3898H36.7561V79.6417Z"
        stroke="black" stroke-width="1.25" stroke-miterlimit="3.8637" stroke-linejoin="round" />
    <path
        d="M36.7561 88.0071H40.5857V83.1725H43.2203V79.6688H40.5857V67.0935H36.9734L28.3363 79.2614V83.1454H36.7289V88.0071H36.7561ZM36.7561 79.6417H31.5413L36.6746 72.3898H36.7561V79.6417Z"
        stroke="black" stroke-width="2.5" stroke-miterlimit="3.8637" stroke-linejoin="round" />
    <path fill-rule="evenodd" clip-rule="evenodd"
        d="M36.7561 88.0071H40.5857V83.1725H43.2203V79.6688H40.5857V67.0935H36.9734L28.3363 79.2614V83.1454H36.7289V88.0071H36.7561ZM36.7561 79.6417H31.5413L36.6746 72.3898H36.7561V79.6417Z"
        fill="white" />
    <path fill-rule="evenodd" clip-rule="evenodd"
        d="M37.5166 5.27598C37.0549 2.83153 34.6919 1.25622 32.2475 1.71795L4.76093 7.06858C2.31648 7.53031 0.741173 9.89328 1.2029 12.3377L9.40539 54.5724C9.86712 57.0169 12.2301 58.5922 14.6746 58.1305L42.1611 52.7798C44.6055 52.3181 46.1808 49.9551 45.7191 47.5107L37.5166 5.27598Z"
        fill="white" stroke="black" stroke-width="1.5" stroke-miterlimit="3.8637" />
    <path fill-rule="evenodd" clip-rule="evenodd"
        d="M23.0672 24.2883C23.0672 20.7846 24.2351 17.6611 27.3586 17.6611C30.482 17.6611 32.4376 19.9969 32.4376 23.1204C32.4376 26.2438 28.445 36.9723 28.0376 40.0957C26.3536 37.434 14.5659 30.7253 13.2351 27.9006C11.9042 25.0759 12.6918 22.1154 15.5165 20.8117C18.3412 19.4809 20.7314 21.8167 22.2252 25.0216C23.719 28.1994 23.0672 27.792 23.0672 24.2883Z"
        fill="#C4000C" stroke="#C73326" stroke-width="0.2875" stroke-miterlimit="3.8637" />
    <path fill-rule="evenodd" clip-rule="evenodd"
        d="M33.5782 8.86113C33.7955 6.38951 35.9683 4.56975 38.4399 4.78704L66.3338 7.23149C68.8055 7.44877 70.6524 9.62162 70.4351 12.0932L66.6869 54.9526C66.4697 57.4242 64.2968 59.244 61.8252 59.0539L33.9313 56.6094C31.4597 56.3921 29.6399 54.2193 29.83 51.7477L33.5782 8.86113Z"
        fill="white" stroke="black" stroke-width="1.5" stroke-miterlimit="3.8637" />
    <path fill-rule="evenodd" clip-rule="evenodd"
        d="M49.413 29.2586L49.5488 31.5944H47.213L46.8328 36.0216L49.3044 35.8858L49.413 39.3352L47.7019 41.8068L52.6723 41.8611L51.2599 39.471L51.3957 36.1303H54.8451L55.6871 31.5944H51.6402L51.8846 29.3673L49.413 29.2586Z"
        fill="black" stroke="black" stroke-width="0.25" stroke-miterlimit="3.8637" />
    <path fill-rule="evenodd" clip-rule="evenodd"
        d="M46.7783 25.5919C46.7783 23.3376 48.7067 21.545 51.0697 21.545C53.4598 21.545 55.3882 23.3648 55.3882 25.5919C55.3882 27.8463 53.4598 29.6389 51.0697 29.6389C48.7067 29.666 46.7783 27.8463 46.7783 25.5919Z"
        fill="black" stroke="black" stroke-width="0.5" stroke-miterlimit="3.8637" />
    <path fill-rule="evenodd" clip-rule="evenodd"
        d="M53.0253 34.4192C53.0253 32.1649 54.9537 30.3723 57.3166 30.3723C59.7068 30.3723 61.608 32.192 61.608 34.4192C61.608 36.6464 59.6796 38.4661 57.3166 38.4661C54.9537 38.4933 53.0253 36.6735 53.0253 34.4192Z"
        fill="black" stroke="black" stroke-width="0.5" stroke-miterlimit="3.8637" />
    <path fill-rule="evenodd" clip-rule="evenodd"
        d="M39.6622 34.2019C39.6622 31.9476 41.5906 30.155 43.9536 30.155C46.3437 30.155 48.245 31.9748 48.245 34.2019C48.245 36.4563 46.3166 38.2489 43.9536 38.2489C41.5906 38.276 39.6622 36.4563 39.6622 34.2019Z"
        fill="black" stroke="black" stroke-width="0.5" stroke-miterlimit="3.8637" />
</svg>
    