<svg xmlns="http://www.w3.org/2000/svg" width="152" height="130" viewBox="0 0 152 130" fill="none">
    <path
        d="M149.536 43.1336C149.455 20.536 116.509 2.22974 75.8767 2.22974C35.1901 2.22974 2.19 20.5903 2.19 43.2151C2.19 44.1928 2.35298 45.1706 2.46162 46.1484L2.19 57.8818C2.19 58.7781 2.35298 59.6472 2.43446 60.5163L2.19 71.1633C2.19 72.0596 2.35298 72.9287 2.43446 73.7979L2.19 84.4448C2.19 107.097 35.1901 127.521 75.8767 127.521C116.563 127.521 149.563 107.097 149.563 84.4448V71.1633V69.6966V57.8818V56.4151L149.536 43.1336Z"
        fill="black" stroke="black" stroke-width="3.2056" />
    <path
        d="M2.16315 84.4992C2.16315 107.151 35.1632 127.576 75.8498 127.576C116.536 127.576 149.536 107.151 149.536 84.4992V69.7239H2.48906L2.16315 84.4992Z"
        fill="black" stroke="black" stroke-width="0.5463" />
    <path
        d="M75.8498 114.756C116.536 114.756 149.536 92.4846 149.536 69.8327C149.536 47.1807 116.536 28.8202 75.8498 28.8202C35.1632 28.8202 2.16315 47.1807 2.16315 69.8327C2.16315 92.4846 35.1632 114.756 75.8498 114.756Z"
        fill="black" stroke="black" stroke-width="0.5463" />
    <path
        d="M75.8498 69.7241L104.884 32.4326C95.9758 30.3141 86.1708 29.119 75.8498 29.119C65.5288 29.119 55.7238 30.3141 46.8151 32.4326L75.8498 69.7241Z"
        fill="#FFEC00" stroke="black" stroke-width="0.5463" />
    <path
        d="M75.8498 69.7239L8.81744 53.5634C4.98779 58.5337 2.86926 63.993 2.86926 69.7239C2.86926 75.4548 4.98779 80.9141 8.81744 85.8845L75.8498 69.7239Z"
        fill="#FFEC00" stroke="black" stroke-width="0.5463" />
    <path
        d="M75.8498 69.7239L46.8151 110.954C55.7238 113.072 65.5288 114.24 75.8498 114.24C86.1437 114.24 95.9758 113.045 104.884 110.954L75.8498 69.7239Z"
        fill="#FFEC00" stroke="black" stroke-width="0.5463" />
    <path
        d="M75.8498 69.7239L142.882 85.8845C146.712 80.9141 148.83 75.4548 148.83 69.7239C148.83 63.993 146.712 58.5337 142.882 53.5634L75.8498 69.7239Z"
        fill="#FFEC00" stroke="black" stroke-width="0.5463" />
    <path
        d="M75.8498 95.798C102.223 95.798 123.625 83.9016 123.625 69.2078C123.625 54.5139 102.223 42.6176 75.8498 42.6176C49.4769 42.6176 28.0743 54.5139 28.0743 69.2078C28.0743 83.9016 49.4769 95.798 75.8498 95.798Z"
        fill="black" stroke="black" stroke-width="0.3542" />
    <path
        d="M75.8498 97.3734C102.223 97.3734 123.625 85.4771 123.625 70.7832C123.625 56.1165 102.223 44.193 75.8498 44.193C49.4769 44.193 28.0743 56.1165 28.0743 70.7832C28.0743 85.4771 49.4769 97.3734 75.8498 97.3734Z"
        fill="#D8D9DB" stroke="black" stroke-width="1.4383" />
    <path
        d="M7.51374 86.7537C7.51374 86.7537 24.815 106.581 46.8151 110.954L46.5706 109.677V122.687C37.0916 121.438 15.8792 114.023 6.40015 97.292L7.51374 86.7537Z"
        fill="#FFEC00" stroke="black" stroke-width="0.5463" />
    <path
        d="M143.48 86.7537C143.48 86.7537 126.205 106.581 104.178 110.954L104.45 109.677V122.687C113.929 121.438 135.114 114.023 144.62 97.292L143.48 86.7537Z"
        fill="#FFEC00" stroke="black" stroke-width="0.5463" />
    <path
        d="M2.16315 71.2179C2.16315 93.8698 35.1632 114.267 75.8498 114.267C116.536 114.267 149.536 93.8698 149.536 71.2179V56.4425H2.48906L2.16315 71.2179Z"
        fill="black" stroke="black" stroke-width="0.5463" />
    <path
        d="M75.8498 101.448C116.536 101.448 149.536 79.176 149.536 56.5241C149.536 33.8721 116.536 15.5116 75.8498 15.5116C35.1632 15.5116 2.16315 33.8721 2.16315 56.5241C2.16315 79.176 35.1632 101.448 75.8498 101.448Z"
        fill="black" stroke="black" stroke-width="0.5463" />
    <path
        d="M75.8498 56.4425L104.884 19.1239C95.9758 17.0054 86.1708 15.8103 75.8498 15.8103C65.5288 15.8103 55.7238 17.0054 46.8151 19.1239L75.8498 56.4425Z"
        fill="#FFEC00" stroke="black" stroke-width="0.5463" />
    <path
        d="M75.8498 56.4424L8.81744 40.2819C4.98779 45.2522 2.86926 50.7115 2.86926 56.4424C2.86926 62.1733 4.98779 67.6326 8.81744 72.603L75.8498 56.4424Z"
        fill="#FFEC00" stroke="black" stroke-width="0.5463" />
    <path
        d="M75.8498 56.4424L46.8151 97.645C55.7238 99.7907 65.5288 100.959 75.8498 100.959C86.1437 100.959 95.9758 99.7907 104.884 97.645L75.8498 56.4424Z"
        fill="#FFEC00" stroke="black" stroke-width="0.5463" />
    <path
        d="M75.8498 56.4424L142.882 72.603C146.712 67.6326 148.83 62.1733 148.83 56.4424C148.83 50.7115 146.712 45.2251 142.882 40.2819L75.8498 56.4424Z"
        fill="#FFEC00" stroke="black" stroke-width="0.5463" />
    <path
        d="M75.8498 82.4896C102.223 82.4896 123.625 70.5933 123.625 55.8994C123.625 41.2327 102.223 29.3092 75.8498 29.3092C49.4769 29.3092 28.0743 41.2055 28.0743 55.8994C28.0743 70.5933 49.4769 82.4896 75.8498 82.4896Z"
        fill="black" stroke="black" stroke-width="0.3542" />
    <path
        d="M75.8498 84.0919C102.223 84.0919 123.625 72.1956 123.625 57.5017C123.625 42.8078 102.223 30.9115 75.8498 30.9115C49.4769 30.9115 28.0743 42.8078 28.0743 57.5017C28.0743 72.1956 49.4769 84.0919 75.8498 84.0919Z"
        fill="#D8D9DB" stroke="black" stroke-width="1.4383" />
    <path
        d="M7.51374 73.472C7.51374 73.472 24.815 93.2993 46.8151 97.6721L46.5706 96.3956V109.405C37.0916 108.156 15.8792 100.741 6.40015 84.0103L7.51374 73.472Z"
        fill="#FFEC00" stroke="black" stroke-width="0.5463" />
    <path
        d="M143.48 73.472C143.48 73.472 126.205 93.2993 104.178 97.6721L104.45 96.3956V109.405C113.929 108.156 135.114 100.741 144.62 84.0103L143.48 73.472Z"
        fill="#FFEC00" stroke="black" stroke-width="0.5463" />
    <path
        d="M2.16315 57.909C2.16315 80.5338 35.1632 100.959 75.8498 100.959C116.536 100.959 149.536 80.5338 149.536 57.909V43.1337H2.48906L2.16315 57.909Z"
        fill="black" stroke="black" stroke-width="0.5463" />
    <path
        d="M75.8498 88.1656C116.536 88.1656 149.536 65.8939 149.536 43.242C149.536 20.5901 116.536 2.25671 75.8498 2.25671C35.1632 2.25671 2.16315 20.6173 2.16315 43.242C2.16315 65.8668 35.1632 88.1656 75.8498 88.1656Z"
        fill="black" stroke="black" stroke-width="0.5463" />
    <path
        d="M75.8498 88.1656C116.536 88.1656 149.536 65.8939 149.536 43.242C149.536 20.5901 116.536 2.25671 75.8498 2.25671C35.1632 2.25671 2.16315 20.6173 2.16315 43.242C2.16315 65.8668 35.1632 88.1656 75.8498 88.1656Z"
        fill="black" stroke="black" stroke-width="0.5463" />
    <path
        d="M75.8498 43.1338L104.884 5.84228C95.9758 3.72376 86.1708 2.52869 75.8498 2.52869C65.5288 2.52869 55.7238 3.69659 46.8151 5.84228L75.8498 43.1338Z"
        fill="#FFEC00" stroke="black" stroke-width="0.5463" />
    <path
        d="M75.8498 43.1337L8.81744 26.9731C4.98779 31.9435 2.86926 37.4028 2.86926 43.1337C2.86926 48.8646 4.98779 54.3239 8.81744 59.2942L75.8498 43.1337Z"
        fill="#FFEC00" stroke="black" stroke-width="0.5463" />
    <path
        d="M75.8498 43.1335L46.8151 84.3633C55.7238 86.4818 65.5288 87.6769 75.8498 87.6769C86.1437 87.6769 95.9758 86.4818 104.884 84.3633L75.8498 43.1335Z"
        fill="#FFEC00" stroke="black" stroke-width="0.5463" />
    <path
        d="M75.8498 43.1337L142.882 59.2942C146.712 54.3239 148.83 48.8646 148.83 43.1337C148.83 37.4028 146.712 31.9435 142.882 26.9731L75.8498 43.1337Z"
        fill="#FFEC00" stroke="black" stroke-width="0.5463" />
    <path
        d="M75.8498 69.1808C102.223 69.1808 123.625 57.2845 123.625 42.5906C123.625 27.9239 102.223 16.0004 75.8498 16.0004C49.4769 16.0004 28.0743 27.8967 28.0743 42.5906C28.0743 57.2845 49.4769 69.1808 75.8498 69.1808Z"
        fill="black" stroke="black" stroke-width="0.3542" />
    <path
        d="M75.8498 70.8103C102.223 70.8103 123.625 58.8868 123.625 44.2201C123.625 29.5534 102.223 17.6299 75.8498 17.6299C49.4769 17.6299 28.0743 29.5534 28.0743 44.2201C28.0743 58.8868 49.4769 70.8103 75.8498 70.8103Z"
        fill="white" stroke="black" stroke-width="1.4383" />
    <path
        d="M7.51374 60.1635C7.51374 60.1635 24.815 79.9907 46.8151 84.3635L46.5706 83.087V96.0969C37.0916 94.8475 15.8792 87.4327 6.40015 70.7017L7.51374 60.1635Z"
        fill="#FFEC00" stroke="black" stroke-width="0.5463" />
    <path
        d="M143.48 60.1635C143.48 60.1635 126.205 79.9907 104.178 84.3635L104.45 83.087V96.0969C113.929 94.8475 135.114 87.4327 144.62 70.7017L143.48 60.1635Z"
        fill="#FFEC00" stroke="black" stroke-width="0.5463" />
    <path d="M49.3682 96.4772C49.3682 96.4772 72.1016 106.146 102.359 97.2105" stroke="#96969A"
        stroke-width="0.779" />
    <path d="M49.3682 110.248C49.3682 110.248 72.1016 119.917 102.359 110.981" stroke="#96969A"
        stroke-width="0.779" />
    <path
        d="M93.0152 44.2201L114.771 39.3584L90.3263 41.3139L107.166 32.1065L85.7362 38.9781L93.1511 27.0003L79.4349 37.6744L76.0127 25.2349L72.5633 37.6744L58.7657 27.1904L66.2892 38.9781L45.0768 32.2151L61.6991 41.3139L36.7114 39.2497L59.0102 44.2201L36.7114 49.1905L61.6991 47.0991L45.0768 56.1979L66.2892 49.4621L58.7657 61.2226L72.5633 50.7658L76.0127 63.1782L79.4349 50.7658L93.1511 61.4399L85.7362 49.4621L107.166 56.3066L90.3263 47.0991L114.771 49.0819L93.0152 44.2201Z"
        fill="#C4000C" />
</svg>