<svg xmlns="http://www.w3.org/2000/svg" width="156" height="44" viewBox="0 0 156 44" fill="none">
    <path
        d="M4.76766 12.7454C4.98494 12.4466 5.25655 12.2022 5.88124 11.6318L5.85408 11.6047C4.93062 11.8219 3.57259 11.9306 2.3232 10.5454C0.77505 8.80712 1.04665 6.90588 2.83925 5.35773C4.95778 3.51081 7.29359 4.37995 9.43927 6.77008L10.2269 7.63922C10.9874 6.96021 12.2096 6.11823 11.1775 5.05896C10.5529 4.40711 9.57508 4.896 9.05903 5.35773L6.72321 2.75032C7.94544 1.63673 9.11335 1.55525 10.1726 1.9355C11.259 2.31575 12.2097 3.18488 12.943 3.9997C14.2739 5.49353 15.143 7.96515 13.1874 9.67626L8.76026 13.6417C8.40717 13.9676 8.08125 14.3751 7.13063 15.38L4.76766 12.7454ZM5.14791 9.89355C6.23433 11.0886 7.64668 10.0022 8.78742 8.97009C8.27137 8.37256 7.80964 7.80219 7.23927 7.61206C6.64174 7.42194 6.0442 7.36762 5.41951 7.91083C4.82197 8.4812 4.68618 9.35034 5.14791 9.89355Z"
        stroke="white" stroke-width="1.25" stroke-miterlimit="3.8637" stroke-linecap="round"
        stroke-linejoin="round" />
    <path
        d="M15.469 11.1157L17.2344 8.97L23.9702 14.5108L22.2048 16.6564L14.3554 18.0416L18.5381 21.491L16.7727 23.6367L9.71094 17.8243L11.4764 15.6787L19.2715 14.2663L15.469 11.1157Z"
        stroke="white" stroke-width="1.25" stroke-miterlimit="3.8637" stroke-linecap="round"
        stroke-linejoin="round" />
    <path
        d="M38.5011 29.4219C36.5999 33.2516 33.3949 33.7405 30.6245 32.3553C27.8542 30.9973 26.3332 28.1182 28.2344 24.2886C30.1357 20.4589 33.3406 19.9701 36.111 21.3552C38.8814 22.7404 40.4024 25.5923 38.5011 29.4219ZM31.7653 30.0738C33.1776 30.78 34.3455 29.1775 35.0789 27.6837C35.8122 26.1898 36.3826 24.3158 34.9702 23.6096C33.5579 22.9034 32.39 24.5059 31.6566 25.9997C30.9505 27.4664 30.3801 29.3948 31.7653 30.0738Z"
        stroke="white" stroke-width="1.25" stroke-miterlimit="3.8637" stroke-linecap="round"
        stroke-linejoin="round" />
    <path
        d="M46.7308 29.8837C46.8666 29.5035 46.9209 29.1504 46.8123 28.8788C46.7036 28.58 46.4592 28.3356 45.9703 28.1726C45.4542 28.0097 45.0197 28.2541 44.8024 28.8788C44.5308 29.6936 45.9703 30.1282 47.9259 31.6763C48.9036 32.464 49.3925 33.5233 48.795 35.3158C47.8172 38.222 45.2641 38.1949 43.1184 37.4887C40.837 36.7282 38.7727 35.4245 39.9135 32.0837L43.2542 33.1973C43.0913 33.4961 43.0641 33.9035 43.1728 34.2566C43.2814 34.6097 43.4987 34.9356 43.8518 35.0442C44.5308 35.2615 45.1555 35.1257 45.3728 34.4467C46.0246 32.4911 40.1036 31.8121 41.4345 27.8195C42.3308 25.1035 45.0468 25.185 46.8938 25.8096C49.1209 26.543 50.9407 27.901 50.0715 30.9973L46.7308 29.8837Z"
        stroke="white" stroke-width="1.25" stroke-miterlimit="3.8637" stroke-linecap="round"
        stroke-linejoin="round" />
    <path
        d="M52.4345 30.78L52.9777 28.0639L61.5061 29.8022L60.9629 32.5183L54.6888 37.4072L59.9851 38.4936L59.4419 41.2097L50.4789 39.3899L51.0222 36.6738L57.2148 31.7578L52.4345 30.78Z"
        stroke="white" stroke-width="1.25" stroke-miterlimit="3.8637" stroke-linecap="round"
        stroke-linejoin="round" />
    <path
        d="M64.7383 30.1282L64.9012 28.3899L68.7581 27.0862L68.4321 30.4813L70.5778 30.6714L70.3334 33.4418L68.1877 33.2517L67.7531 37.8418C67.726 38.1406 67.4272 39.6344 68.2963 39.6887C68.7852 39.743 69.3013 39.7702 69.7358 39.743L69.4914 42.3505C68.6494 42.4591 68.0247 42.4591 67.4815 42.4048C64.9556 42.1603 63.4889 41.6171 64.005 38.0862L64.4667 32.8986L62.5654 32.7085L62.8099 29.9381L64.7383 30.1282Z"
        stroke="white" stroke-width="1.25" stroke-miterlimit="3.8637" stroke-linecap="round"
        stroke-linejoin="round" />
    <path
        d="M83.5062 36.4023C83.5877 40.6666 81.0074 42.595 77.9111 42.6493C74.842 42.7036 72.1531 40.911 72.0445 36.6196C71.963 32.3554 74.5704 30.427 77.6395 30.3455C80.7087 30.3184 83.3976 32.1381 83.5062 36.4023ZM77.8568 40.1233C79.4321 40.0962 79.7037 38.1135 79.6766 36.4838C79.6494 34.8542 79.2692 32.8986 77.6938 32.9258C76.1185 32.953 75.8469 34.9357 75.8741 36.5653C75.9013 38.1949 76.2815 40.1505 77.8568 40.1233ZM78.3457 28.9875L76.0371 29.0418L77.9926 25.6468L82.0667 25.5653V25.6196L78.3457 28.9875Z"
        stroke="white" stroke-width="1.25" stroke-miterlimit="3.8637" stroke-linecap="round"
        stroke-linejoin="round" />
    <path
        d="M97.6026 31.7307C97.5211 31.3504 97.3853 31.0245 97.168 30.8344C96.9236 30.6171 96.5705 30.5356 96.0816 30.6443C95.5384 30.7529 95.2939 31.1875 95.4569 31.8393C95.647 32.6813 97.1137 32.3011 99.5853 32.627C100.835 32.79 101.812 33.4418 102.22 35.2887C102.899 38.2764 100.672 39.5801 98.4717 40.069C96.1088 40.6122 93.6915 40.5579 92.931 37.1085L96.3804 36.3208C96.4075 36.6739 96.5705 37.027 96.8421 37.2715C97.1137 37.5159 97.4668 37.6789 97.8199 37.5974C98.5261 37.4344 98.9606 36.9998 98.8248 36.2937C98.3631 34.2838 92.9581 36.7554 92.0347 32.6813C91.41 29.8838 93.773 28.5529 95.6742 28.1183C97.9557 27.6023 100.21 27.8196 101.079 30.9159L97.6026 31.7307Z"
        stroke="white" stroke-width="1.25" stroke-miterlimit="3.8637" stroke-linecap="round"
        stroke-linejoin="round" />
    <path
        d="M102.953 29.5578L102.057 26.9503L110.314 24.1256L111.21 26.7059L108.277 34.1207L113.41 32.3553L114.306 34.9627L105.642 37.9504L104.746 35.343L107.598 27.9553L102.953 29.5578Z"
        stroke="white" stroke-width="1.25" stroke-miterlimit="3.8637" stroke-linecap="round"
        stroke-linejoin="round" />
    <path
        d="M122.971 31.0517C122.753 30.7529 122.59 30.427 122.21 29.6665L122.183 29.6937C122.129 30.6443 121.83 31.9752 120.173 32.79C118.054 33.7949 116.343 33.0073 115.338 30.8344C114.143 28.2813 115.637 26.2986 118.543 24.8862L119.603 24.3702C119.168 23.4467 118.706 22.0344 117.375 22.7406C116.588 23.1751 116.778 24.2344 117.077 24.8591L113.899 26.3801C113.166 24.9134 113.41 23.7455 114.089 22.822C114.768 21.8714 115.854 21.1924 116.859 20.7307C118.652 19.8615 121.259 19.6986 122.373 22.0887L124.953 27.4665C125.171 27.9011 125.442 28.3356 126.175 29.5035L122.971 31.0517ZM116.18 19.5356L114.089 20.5405L114.469 16.6294L118.163 14.864L118.19 14.8911L116.18 19.5356ZM120.309 29.8838C121.748 29.1776 121.124 27.5208 120.445 26.1356C119.738 26.4887 119.032 26.7603 118.706 27.2492C118.353 27.7653 118.136 28.3356 118.489 29.069C118.869 29.8023 119.684 30.1825 120.309 29.8838Z"
        stroke="white" stroke-width="1.25" stroke-miterlimit="3.8637" stroke-linecap="round"
        stroke-linejoin="round" />
    <path
        d="M127.153 17.7973L127.18 17.7701C126.827 16.059 127.533 14.8368 128.756 13.9948C129.733 13.3158 131.282 13.1257 132.422 14.0491C132.178 12.5281 132.83 11.1158 133.998 10.2195C135.736 8.99725 137.963 9.43182 139.43 11.5232L143.884 17.8788L140.815 20.0244L136.904 14.4565C136.225 13.5602 135.329 12.6911 134.378 13.3429C132.857 14.4022 134.432 16.222 134.514 16.3306L138.343 21.7627L135.274 23.9084L131.363 18.3405C130.684 17.4442 129.788 16.575 128.837 17.2269C127.316 18.2862 128.892 20.1059 128.973 20.2146L132.803 25.6467L129.733 27.7924L124.79 20.7306C124.193 19.8886 123.785 19.3183 122.971 18.3677L125.985 16.2491L127.153 17.7973Z"
        stroke="white" stroke-width="1.25" stroke-miterlimit="3.8637" stroke-linecap="round"
        stroke-linejoin="round" />
    <path
        d="M151.272 10.4367C150.946 10.2466 150.702 9.97498 150.104 9.40461L150.077 9.43177C150.348 10.3281 150.539 11.6861 149.262 13.017C147.632 14.7009 145.731 14.538 144.047 12.8268C142.064 10.8441 142.771 8.45399 145.025 6.14534L145.84 5.30336C145.106 4.59718 144.183 3.42928 143.205 4.54286C142.608 5.22188 143.151 6.14534 143.667 6.63423L141.222 9.16017C140.027 8.01942 139.864 6.85152 140.19 5.76509C140.516 4.65151 141.304 3.64657 142.064 2.85891C143.45 1.4194 145.867 0.387299 147.714 2.23422L151.978 6.38978C152.331 6.74287 152.739 7.01448 153.825 7.88361L151.272 10.4367ZM148.366 10.2466C149.479 9.10584 148.311 7.74781 147.198 6.66139C146.655 7.23176 146.084 7.72066 145.948 8.29103C145.785 8.91572 145.785 9.51325 146.383 10.0836C146.981 10.6812 147.877 10.7626 148.366 10.2466Z"
        stroke="white" stroke-width="1.25" stroke-miterlimit="3.8637" stroke-linecap="round"
        stroke-linejoin="round" />
    <path
        d="M4.76766 12.7454C4.98494 12.4466 5.25655 12.2022 5.88124 11.6318L5.85408 11.6047C4.93062 11.8219 3.57259 11.9306 2.3232 10.5454C0.77505 8.80712 1.04665 6.90588 2.83925 5.35773C4.95778 3.51081 7.29359 4.37995 9.43927 6.77008L10.2269 7.63922C10.9874 6.96021 12.2096 6.11823 11.1775 5.05896C10.5529 4.40711 9.57508 4.896 9.05903 5.35773L6.72321 2.75032C7.94544 1.63673 9.11335 1.55525 10.1726 1.9355C11.259 2.31575 12.2097 3.18488 12.943 3.9997C14.2739 5.49353 15.143 7.96515 13.1874 9.67626L8.76026 13.6417C8.40717 13.9676 8.08125 14.3751 7.13063 15.38L4.76766 12.7454ZM5.14791 9.89355C6.23433 11.0886 7.64668 10.0022 8.78742 8.97009C8.27137 8.37256 7.80964 7.80219 7.23927 7.61206C6.64174 7.42194 6.0442 7.36762 5.41951 7.91083C4.82197 8.4812 4.68618 9.35034 5.14791 9.89355Z"
        stroke="black" stroke-width="2.5" stroke-miterlimit="3.8637" stroke-linecap="round"
        stroke-linejoin="round" />
    <path
        d="M15.469 11.1157L17.2344 8.97L23.9702 14.5108L22.2048 16.6564L14.3554 18.0416L18.5381 21.491L16.7727 23.6367L9.71094 17.8243L11.4764 15.6787L19.2715 14.2663L15.469 11.1157Z"
        stroke="black" stroke-width="2.5" stroke-miterlimit="3.8637" stroke-linecap="round"
        stroke-linejoin="round" />
    <path
        d="M38.5011 29.4219C36.5999 33.2516 33.3949 33.7405 30.6245 32.3553C27.8542 30.9973 26.3332 28.1182 28.2344 24.2886C30.1357 20.4589 33.3406 19.9701 36.111 21.3552C38.8814 22.7404 40.4024 25.5923 38.5011 29.4219ZM31.7653 30.0738C33.1776 30.78 34.3455 29.1775 35.0789 27.6837C35.8122 26.1898 36.3826 24.3158 34.9702 23.6096C33.5579 22.9034 32.39 24.5059 31.6566 25.9997C30.9505 27.4664 30.3801 29.3948 31.7653 30.0738Z"
        stroke="black" stroke-width="2.5" stroke-miterlimit="3.8637" stroke-linecap="round"
        stroke-linejoin="round" />
    <path
        d="M46.7308 29.8837C46.8666 29.5035 46.9209 29.1504 46.8123 28.8788C46.7036 28.58 46.4592 28.3356 45.9703 28.1726C45.4542 28.0097 45.0197 28.2541 44.8024 28.8788C44.5308 29.6936 45.9703 30.1282 47.9259 31.6763C48.9036 32.464 49.3925 33.5233 48.795 35.3158C47.8172 38.222 45.2641 38.1949 43.1184 37.4887C40.837 36.7282 38.7727 35.4245 39.9135 32.0837L43.2542 33.1973C43.0913 33.4961 43.0641 33.9035 43.1728 34.2566C43.2814 34.6097 43.4987 34.9356 43.8518 35.0442C44.5308 35.2615 45.1555 35.1257 45.3728 34.4467C46.0246 32.4911 40.1036 31.8121 41.4345 27.8195C42.3308 25.1035 45.0468 25.185 46.8938 25.8096C49.1209 26.543 50.9407 27.901 50.0715 30.9973L46.7308 29.8837Z"
        stroke="black" stroke-width="2.5" stroke-miterlimit="3.8637" stroke-linecap="round"
        stroke-linejoin="round" />
    <path
        d="M52.4345 30.78L52.9777 28.0639L61.5061 29.8022L60.9629 32.5183L54.6888 37.4072L59.9851 38.4936L59.4419 41.2097L50.4789 39.3899L51.0222 36.6738L57.2148 31.7578L52.4345 30.78Z"
        stroke="black" stroke-width="2.5" stroke-miterlimit="3.8637" stroke-linecap="round"
        stroke-linejoin="round" />
    <path
        d="M64.7383 30.1282L64.9012 28.3899L68.7581 27.0862L68.4321 30.4813L70.5778 30.6714L70.3334 33.4418L68.1877 33.2517L67.7531 37.8418C67.726 38.1406 67.4272 39.6344 68.2963 39.6887C68.7852 39.743 69.3013 39.7702 69.7358 39.743L69.4914 42.3505C68.6494 42.4591 68.0247 42.4591 67.4815 42.4048C64.9556 42.1603 63.4889 41.6171 64.005 38.0862L64.4667 32.8986L62.5654 32.7085L62.8099 29.9381L64.7383 30.1282Z"
        stroke="black" stroke-width="2.5" stroke-miterlimit="3.8637" stroke-linecap="round"
        stroke-linejoin="round" />
    <path
        d="M83.5062 36.4023C83.5877 40.6666 81.0074 42.595 77.9111 42.6493C74.842 42.7036 72.1531 40.911 72.0445 36.6196C71.963 32.3554 74.5704 30.427 77.6395 30.3455C80.7087 30.3184 83.3976 32.1381 83.5062 36.4023ZM77.8568 40.1233C79.4321 40.0962 79.7037 38.1135 79.6766 36.4838C79.6494 34.8542 79.2692 32.8986 77.6938 32.9258C76.1185 32.953 75.8469 34.9357 75.8741 36.5653C75.9013 38.1949 76.2815 40.1505 77.8568 40.1233ZM78.3457 28.9875L76.0371 29.0418L77.9926 25.6468L82.0667 25.5653V25.6196L78.3457 28.9875Z"
        stroke="black" stroke-width="2.5" stroke-miterlimit="3.8637" stroke-linecap="round"
        stroke-linejoin="round" />
    <path
        d="M97.6026 31.7307C97.5211 31.3504 97.3853 31.0245 97.168 30.8344C96.9236 30.6171 96.5705 30.5356 96.0816 30.6443C95.5384 30.7529 95.2939 31.1875 95.4569 31.8393C95.647 32.6813 97.1137 32.3011 99.5853 32.627C100.835 32.79 101.812 33.4418 102.22 35.2887C102.899 38.2764 100.672 39.5801 98.4717 40.069C96.1088 40.6122 93.6915 40.5579 92.931 37.1085L96.3804 36.3208C96.4075 36.6739 96.5705 37.027 96.8421 37.2715C97.1137 37.5159 97.4668 37.6789 97.8199 37.5974C98.5261 37.4344 98.9606 36.9998 98.8248 36.2937C98.3631 34.2838 92.9581 36.7554 92.0347 32.6813C91.41 29.8838 93.773 28.5529 95.6742 28.1183C97.9557 27.6023 100.21 27.8196 101.079 30.9159L97.6026 31.7307Z"
        stroke="black" stroke-width="2.5" stroke-miterlimit="3.8637" stroke-linecap="round"
        stroke-linejoin="round" />
    <path
        d="M102.953 29.5578L102.057 26.9503L110.314 24.1256L111.21 26.7059L108.277 34.1207L113.41 32.3553L114.306 34.9627L105.642 37.9504L104.746 35.343L107.598 27.9553L102.953 29.5578Z"
        stroke="black" stroke-width="2.5" stroke-miterlimit="3.8637" stroke-linecap="round"
        stroke-linejoin="round" />
    <path
        d="M122.971 31.0517C122.753 30.7529 122.59 30.427 122.21 29.6665L122.183 29.6937C122.129 30.6443 121.83 31.9752 120.173 32.79C118.054 33.7949 116.343 33.0073 115.338 30.8344C114.143 28.2813 115.637 26.2986 118.543 24.8862L119.603 24.3702C119.168 23.4467 118.706 22.0344 117.375 22.7406C116.588 23.1751 116.778 24.2344 117.077 24.8591L113.899 26.3801C113.166 24.9134 113.41 23.7455 114.089 22.822C114.768 21.8714 115.854 21.1924 116.859 20.7307C118.652 19.8615 121.259 19.6986 122.373 22.0887L124.953 27.4665C125.171 27.9011 125.442 28.3356 126.175 29.5035L122.971 31.0517ZM116.18 19.5356L114.089 20.5405L114.469 16.6294L118.163 14.864L118.19 14.8911L116.18 19.5356ZM120.309 29.8838C121.748 29.1776 121.124 27.5208 120.445 26.1356C119.738 26.4887 119.032 26.7603 118.706 27.2492C118.353 27.7653 118.136 28.3356 118.489 29.069C118.869 29.8023 119.684 30.1825 120.309 29.8838Z"
        stroke="black" stroke-width="2.5" stroke-miterlimit="3.8637" stroke-linecap="round"
        stroke-linejoin="round" />
    <path
        d="M127.153 17.7973L127.18 17.7701C126.827 16.059 127.533 14.8368 128.756 13.9948C129.733 13.3158 131.282 13.1257 132.422 14.0491C132.178 12.5281 132.83 11.1158 133.998 10.2195C135.736 8.99725 137.963 9.43182 139.43 11.5232L143.884 17.8788L140.815 20.0244L136.904 14.4565C136.225 13.5602 135.329 12.6911 134.378 13.3429C132.857 14.4022 134.432 16.222 134.514 16.3306L138.343 21.7627L135.274 23.9084L131.363 18.3405C130.684 17.4442 129.788 16.575 128.837 17.2269C127.316 18.2862 128.892 20.1059 128.973 20.2146L132.803 25.6467L129.733 27.7924L124.79 20.7306C124.193 19.8886 123.785 19.3183 122.971 18.3677L125.985 16.2491L127.153 17.7973Z"
        stroke="black" stroke-width="2.5" stroke-miterlimit="3.8637" stroke-linecap="round"
        stroke-linejoin="round" />
    <path
        d="M151.272 10.4367C150.946 10.2466 150.702 9.97498 150.104 9.40461L150.077 9.43177C150.348 10.3281 150.539 11.6861 149.262 13.017C147.632 14.7009 145.731 14.538 144.047 12.8268C142.064 10.8441 142.771 8.45399 145.025 6.14534L145.84 5.30336C145.106 4.59718 144.183 3.42928 143.205 4.54286C142.608 5.22188 143.151 6.14534 143.667 6.63423L141.222 9.16017C140.027 8.01942 139.864 6.85152 140.19 5.76509C140.516 4.65151 141.304 3.64657 142.064 2.85891C143.45 1.4194 145.867 0.387299 147.714 2.23422L151.978 6.38978C152.331 6.74287 152.739 7.01448 153.825 7.88361L151.272 10.4367ZM148.366 10.2466C149.479 9.10584 148.311 7.74781 147.198 6.66139C146.655 7.23176 146.084 7.72066 145.948 8.29103C145.785 8.91572 145.785 9.51325 146.383 10.0836C146.981 10.6812 147.877 10.7626 148.366 10.2466Z"
        stroke="black" stroke-width="2.5" stroke-miterlimit="3.8637" stroke-linecap="round"
        stroke-linejoin="round" />
    <path
        d="M4.76766 12.7454C4.98494 12.4466 5.25655 12.2022 5.88124 11.6318L5.85408 11.6047C4.93062 11.8219 3.57259 11.9306 2.3232 10.5454C0.77505 8.80712 1.04665 6.90588 2.83925 5.35773C4.95778 3.51081 7.29359 4.37995 9.43927 6.77008L10.2269 7.63922C10.9874 6.96021 12.2097 6.11823 11.1775 5.05896C10.5529 4.40711 9.57508 4.896 9.05903 5.35773L6.72321 2.75032C7.94544 1.63673 9.11335 1.55525 10.1726 1.9355C11.259 2.31575 12.2097 3.18488 12.943 3.9997C14.2739 5.49353 15.143 7.96515 13.1874 9.67626L8.76026 13.6417C8.40717 13.9676 8.08125 14.3751 7.13063 15.38L4.76766 12.7454ZM5.14791 9.89355C6.23433 11.0886 7.64668 10.0022 8.78742 8.97009C8.27137 8.37256 7.80964 7.80219 7.23927 7.61206C6.64174 7.42194 6.0442 7.36762 5.41951 7.91083C4.82197 8.4812 4.68618 9.35034 5.14791 9.89355Z"
        fill="white" />
    <path
        d="M15.469 11.1157L17.2344 8.97L23.9702 14.5108L22.2048 16.6564L14.3554 18.0416L18.5381 21.491L16.7727 23.6367L9.71094 17.8243L11.4764 15.6787L19.2715 14.2663L15.469 11.1157Z"
        fill="white" />
    <path
        d="M38.5011 29.4219C36.5999 33.2516 33.3949 33.7405 30.6245 32.3553C27.8542 30.9973 26.3332 28.1182 28.2344 24.2886C30.1357 20.4589 33.3406 19.9701 36.111 21.3552C38.8814 22.7404 40.4024 25.5923 38.5011 29.4219ZM31.7653 30.0738C33.1776 30.78 34.3455 29.1775 35.0789 27.6837C35.8122 26.1898 36.3826 24.3158 34.9702 23.6096C33.5579 22.9034 32.39 24.5059 31.6566 25.9997C30.9505 27.4664 30.3801 29.3948 31.7653 30.0738Z"
        fill="white" />
    <path
        d="M46.7308 29.8837C46.8666 29.5035 46.9209 29.1504 46.8123 28.8788C46.7036 28.58 46.4592 28.3356 45.9703 28.1726C45.4542 28.0097 45.0197 28.2541 44.8024 28.8788C44.5308 29.6936 45.9703 30.1282 47.9259 31.6763C48.9036 32.464 49.3925 33.5232 48.795 35.3158C47.8172 38.222 45.2641 38.1949 43.1184 37.4887C40.837 36.7282 38.7727 35.4245 39.9135 32.0837L43.2542 33.1973C43.0913 33.4961 43.0641 33.9035 43.1728 34.2566C43.2814 34.6097 43.4987 34.9356 43.8518 35.0442C44.5308 35.2615 45.1555 35.1257 45.3728 34.4467C46.0246 32.4911 40.1036 31.8121 41.4345 27.8195C42.3308 25.1035 45.0468 25.185 46.8938 25.8096C49.1209 26.543 50.9407 27.901 50.0715 30.9973L46.7308 29.8837Z"
        fill="white" />
    <path
        d="M52.4345 30.78L52.9777 28.0639L61.5061 29.8022L60.9629 32.5183L54.6888 37.4072L59.9851 38.4936L59.4419 41.2097L50.4789 39.3899L51.0222 36.6738L57.2148 31.7578L52.4345 30.78Z"
        fill="white" />
    <path
        d="M64.7383 30.1282L64.9012 28.3899L68.7581 27.0862L68.4321 30.4813L70.5778 30.6714L70.3334 33.4418L68.1877 33.2517L67.7531 37.8418C67.726 38.1406 67.4272 39.6344 68.2963 39.6887C68.7852 39.743 69.3013 39.7702 69.7358 39.743L69.4914 42.3505C68.6494 42.4591 68.0247 42.4591 67.4815 42.4048C64.9556 42.1603 63.4889 41.6171 64.005 38.0862L64.4667 32.8986L62.5654 32.7085L62.8099 29.9381L64.7383 30.1282Z"
        fill="white" />
    <path
        d="M83.5062 36.4023C83.5877 40.6666 81.0074 42.595 77.9111 42.6493C74.842 42.7036 72.1531 40.911 72.0445 36.6196C71.963 32.3554 74.5704 30.427 77.6395 30.3455C80.7087 30.3184 83.3976 32.1381 83.5062 36.4023ZM77.8568 40.1233C79.4321 40.0962 79.7037 38.1135 79.6766 36.4838C79.6494 34.8542 79.2692 32.8986 77.6938 32.9258C76.1185 32.953 75.8469 34.9357 75.8741 36.5653C75.9013 38.1949 76.2815 40.1505 77.8568 40.1233ZM78.3457 28.9875L76.0371 29.0418L77.9926 25.6468L82.0667 25.5653V25.6196L78.3457 28.9875Z"
        fill="white" />
    <path
        d="M97.6026 31.7307C97.5211 31.3504 97.3853 31.0245 97.168 30.8344C96.9236 30.6171 96.5705 30.5356 96.0816 30.6443C95.5384 30.7529 95.2939 31.1875 95.4569 31.8393C95.647 32.6813 97.1137 32.3011 99.5853 32.627C100.835 32.79 101.812 33.4418 102.22 35.2887C102.899 38.2764 100.672 39.5801 98.4717 40.069C96.1088 40.6122 93.6915 40.5579 92.931 37.1085L96.3804 36.3208C96.4075 36.6739 96.5705 37.027 96.8421 37.2715C97.1137 37.5159 97.4668 37.6789 97.8199 37.5974C98.5261 37.4344 98.9606 36.9998 98.8248 36.2937C98.3631 34.2838 92.9581 36.7554 92.0347 32.6813C91.41 29.8838 93.773 28.5529 95.6742 28.1183C97.9557 27.6023 100.21 27.8196 101.079 30.9159L97.6026 31.7307Z"
        fill="white" />
    <path
        d="M102.953 29.5578L102.057 26.9503L110.314 24.1256L111.21 26.7059L108.277 34.1207L113.41 32.3553L114.306 34.9627L105.642 37.9504L104.746 35.343L107.598 27.9553L102.953 29.5578Z"
        fill="white" />
    <path
        d="M122.971 31.0517C122.753 30.7529 122.59 30.427 122.21 29.6665L122.183 29.6937C122.129 30.6443 121.83 31.9752 120.173 32.79C118.054 33.7949 116.343 33.0073 115.338 30.8344C114.143 28.2813 115.637 26.2986 118.543 24.8862L119.603 24.3702C119.168 23.4467 118.706 22.0344 117.375 22.7406C116.588 23.1751 116.778 24.2344 117.077 24.8591L113.899 26.3801C113.166 24.9134 113.41 23.7455 114.089 22.822C114.768 21.8714 115.854 21.1924 116.859 20.7307C118.652 19.8615 121.259 19.6986 122.373 22.0887L124.953 27.4665C125.171 27.9011 125.442 28.3356 126.175 29.5035L122.971 31.0517ZM116.18 19.5356L114.089 20.5405L114.469 16.6294L118.163 14.864L118.19 14.8911L116.18 19.5356ZM120.309 29.8838C121.748 29.1776 121.124 27.5208 120.445 26.1356C119.738 26.4887 119.032 26.7603 118.706 27.2492C118.353 27.7653 118.136 28.3356 118.489 29.069C118.869 29.8023 119.684 30.1825 120.309 29.8838Z"
        fill="white" />
    <path
        d="M127.153 17.7973L127.18 17.7701C126.827 16.059 127.533 14.8368 128.756 13.9948C129.733 13.3158 131.282 13.1257 132.422 14.0491C132.178 12.5281 132.83 11.1158 133.998 10.2195C135.736 8.99725 137.963 9.43182 139.43 11.5232L143.884 17.8788L140.815 20.0244L136.904 14.4565C136.225 13.5602 135.329 12.6911 134.378 13.3429C132.857 14.4022 134.432 16.222 134.514 16.3306L138.343 21.7627L135.274 23.9084L131.363 18.3405C130.684 17.4442 129.788 16.575 128.837 17.2269C127.316 18.2862 128.892 20.1059 128.973 20.2146L132.803 25.6467L129.733 27.7924L124.79 20.7306C124.193 19.8886 123.785 19.3183 122.971 18.3677L125.985 16.2491L127.153 17.7973Z"
        fill="white" />
    <path
        d="M151.272 10.4367C150.946 10.2466 150.702 9.97498 150.104 9.40461L150.077 9.43177C150.348 10.3281 150.539 11.6861 149.262 13.017C147.632 14.7009 145.731 14.538 144.047 12.8268C142.064 10.8441 142.771 8.45399 145.025 6.14534L145.84 5.30336C145.106 4.59718 144.183 3.42928 143.205 4.54286C142.608 5.22188 143.151 6.14534 143.667 6.63423L141.222 9.16017C140.027 8.01942 139.864 6.85152 140.19 5.76509C140.516 4.65151 141.304 3.64657 142.064 2.85891C143.45 1.4194 145.867 0.387299 147.714 2.23422L151.978 6.38978C152.331 6.74287 152.739 7.01448 153.825 7.88361L151.272 10.4367ZM148.366 10.2466C149.479 9.10584 148.311 7.74781 147.198 6.66139C146.655 7.23176 146.084 7.72066 145.948 8.29103C145.785 8.91572 145.785 9.51325 146.383 10.0836C146.981 10.6812 147.877 10.7626 148.366 10.2466Z"
        fill="white" />
</svg>