<svg xmlns="http://www.w3.org/2000/svg" xmlns:xlink="http://www.w3.org/1999/xlink" width="305"
    height="251" stroke="#000" stroke-linecap="round" stroke-linejoin="round" fill="#fff"
    fill-rule="evenodd">
    <style>
        <![CDATA[.B{stroke:none}.C{stroke-width:1.5}.D{fill:#c4000c}.E{fill:none}.F{stroke-width:1.25}.G{stroke-width:2.5}.H{fill:#000}.I{stroke-linejoin:miter}.J{stroke-width:.25}.K{stroke-width:.5}.L{fill-rule:nonzero}.M{stroke-width:.1749}.N{stroke-width:.2875}]]>
    </style>
    <g class="B">
        <path
            d="M300.8253 1.1772v63.8902c0 49.6212-65.1297 83.288-147.8047 83.288S4.4371 113.5245 4.4371 63.9036L4.3738 1.1772h296.4515z"
            fill="#209740" />
        <path
            d="M229.4277.8254v38.4848c0 23.3217-36.1856 46.7225-78.6015 46.7225S75.4223 62.6319 75.4223 39.3102L75.3803.8254h154.0474z"
            class="D" />
    </g>
    <g class="E">
        <path
            d="M229.47.8254l-.0423 38.4848c0 23.3217-36.1856 46.7225-78.6015 46.7225S75.4223 62.6319 75.4223 39.3102L75.3803.8254"
            stroke-linecap="butt" stroke-width="1.6507" class="I" />
        <g stroke="#fff" class="F">
            <use xlink:href="#B" />
            <use xlink:href="#C" />
            <use xlink:href="#D" />
            <use xlink:href="#E" />
            <use xlink:href="#F" />
            <use xlink:href="#G" />
            <use xlink:href="#H" />
            <use xlink:href="#I" />
            <use xlink:href="#J" />
            <use xlink:href="#K" />
            <use xlink:href="#L" />
            <use xlink:href="#M" />
        </g>
        <g class="G">
            <use xlink:href="#B" />
            <use xlink:href="#C" />
            <use xlink:href="#D" />
            <use xlink:href="#E" />
            <use xlink:href="#F" />
            <use xlink:href="#G" />
            <use xlink:href="#H" />
            <use xlink:href="#I" />
            <use xlink:href="#J" />
            <use xlink:href="#K" />
            <use xlink:href="#L" />
            <use xlink:href="#M" />
        </g>
    </g>
    <g class="B L">
        <use xlink:href="#B" />
        <use xlink:href="#C" />
        <use xlink:href="#D" />
        <use xlink:href="#E" />
        <use xlink:href="#F" />
        <use xlink:href="#G" />
        <use xlink:href="#H" />
        <use xlink:href="#I" />
        <use xlink:href="#J" />
        <use xlink:href="#K" />
        <use xlink:href="#L" />
        <use xlink:href="#M" />
    </g>
    <g class="E">
        <use xlink:href="#N" class="F" />
        <use xlink:href="#N" class="G" />
    </g>
    <use xlink:href="#N" class="B" />
    <g class="E">
        <use xlink:href="#O" class="F" />
        <use xlink:href="#O" class="G" />
    </g>
    <use xlink:href="#O" class="B" />
    <g class="E">
        <use xlink:href="#P" class="F" />
        <use xlink:href="#P" class="G" />
    </g>
    <use xlink:href="#P" class="B" />
    <g class="E">
        <use xlink:href="#Q" class="F" />
        <use xlink:href="#Q" class="G" />
    </g>
    <use xlink:href="#Q" class="B" />
    <g class="E">
        <use xlink:href="#R" class="F" />
        <use xlink:href="#R" class="G" />
    </g>
    <use xlink:href="#R" class="B" />
    <path
        d="M39.4247 11.6501c-.5677-1.3735-2.5037-2.1622-4.3547-1.7358l-20.7447 4.7653c-1.8302.4258-2.8826 1.877-2.3144 3.2659l9.7409 23.8897c.5683 1.372 2.5041 2.1609 4.3552 1.7354l20.7446-4.7652c1.8516-.4258 2.8825-1.8782 2.3144-3.2661l-9.7413-23.8892z"
        class="C I" />
    <path d="M27.6431 20.0758l-3.1981 8.3318 9.1942 4.4172 3.3241-8.2515-9.3202-4.4975z" class="B D" />
    <g class="I">
        <path
            d="M37.0473 15.3575c0-1.4515 1.5572-2.619 3.4916-2.619h21.6929c1.9139 0 3.4917 1.1675 3.4917 2.619V40.351c0 1.4523-1.5572 2.62-3.4917 2.62H40.5389c-1.9137 0-3.4916-1.1677-3.4916-2.62V15.3575z"
            class="C" />
        <g class="H">
            <path
                d="M50.3861 26.4347l.084 1.3575h-1.8093l-.2945 2.5709 1.9144-.062.1054 2.0032-1.3465 1.4202h3.7237l-.9675-1.3573.1061-1.925h2.6718l.6514-2.65H52.091l.1891-1.2793-1.894-.0782z"
                class="J" />
            <path
                d="M48.3242 24.3209c0-1.3098 1.4937-2.3517 3.3241-2.3517 1.8511 0 3.3242 1.0575 3.3242 2.3517s-1.4937 2.3508-3.3242 2.3508-3.3241-1.0415-3.3241-2.3508zm4.5864 5.2071c0-1.3098 1.4937-2.3517 3.3241-2.3517 1.8511 0 3.3242 1.0575 3.3242 2.3517 0 1.3093-1.4937 2.3658-3.3242 2.3658-1.8304-.015-3.3241-1.0726-3.3241-2.3658zm-10.0986-.2051c0-1.3098 1.4937-2.3517 3.3241-2.3517 1.8511 0 3.3242 1.0575 3.3242 2.3517s-1.4937 2.3508-3.3242 2.3508-3.3241-1.0576-3.3241-2.3508z"
                class="K" />
        </g>
        <path
            d="M62.9245 71.767c-.5673-1.3883-2.5033-2.161-4.3551-1.7351l-20.7442 4.765c-1.8507.4263-2.8816 1.8776-2.3141 3.2657l9.7416 23.8897c.5674 1.3889 2.5029 2.1623 4.3549 1.7355l20.7439-4.7649c1.8511-.4262 2.882-1.8769 2.3147-3.2659l-9.7417-23.89z"
            class="C" />
        <path
            d="M65.0709 90.703c-4.2918 1.0561-7.09-.3486-8.4573-3.4243l.0628-.0157c1.3045 1.0098 3.2193 1.6557 5.0917 1.151 1.9355-.5203 2.9033-2.0988 2.1883-3.5653-.8418-1.7353-3.2614-2.3993-5.3654-3.0611-2.7139-.8046-4.9229-1.6409-6.564-3.5664.547 2.2875-.7366 4.4819-2.251 6.3908-1.094 1.3718-1.978 2.8867-1.2202 4.4652.715 1.4665 2.8821 2.1463 4.7964 1.6258 1.8515-.505 2.9034-1.9415 2.9457-3.3452l.0632-.016c1.6411 2.9349.5258 5.6169-3.6191 6.7219l.1055.4893 12.5605-3.4243-.3371-.4257z"
            class="H M" />
        <path
            d="M59.5379 75.4753c0-1.4358 1.5572-2.6192 3.4916-2.6192h21.6929c1.9344 0 3.4915 1.1675 3.4915 2.6192v24.9933c0 1.4365-1.5571 2.62-3.4915 2.62H63.0295c-1.9137 0-3.4916-1.1675-3.4916-2.62V75.4753z"
            class="C" />
        <path
            d="M74.8331 85.0542c.6945-1.9731 2.209-3.5501 4.5446-3.078s3.3241 2.0834 2.6926 3.8343-6.9007 7.0691-7.8263 8.7579c-.7154-1.7514-7.0689-7.1637-7.4897-8.9631-.4209-1.7823.7574-3.3293 3.1346-3.6448s3.7028 1.3576 4.1657 3.3609c.4842 2.0199.0633 1.7045.7785-.2672z"
            stroke="#c73326" class="D N" />
        <path
            d="M244.113 72.1786c-.4415-1.4046-2.2929-2.2888-4.1869-1.9572l-21.1438 3.661c-1.8723.3313-3.0505 1.7361-2.6089 3.1401l7.4898 24.3471c.4424 1.4043 2.2936 2.2875 4.1868 1.9557l21.1437-3.6605c1.8729-.3306 3.0512-1.7351 2.609-3.14l-7.4897-24.3462z"
            class="C" />
        <path
            d="M244.2393 92.312c-4.3969.7726-7.0269-.8044-8.0364-3.9601l.0622-.0161c1.1782 1.0881 3.0088 1.8618 4.9446 1.4668 1.9983-.3946 3.1349-1.9098 2.588-3.4084-.6316-1.782-2.9668-2.6023-5.0073-3.4075-2.609-.979-4.7127-1.9567-6.1227-3.9766.2735 2.3196-1.2626 4.4175-2.9873 6.2174-1.2413 1.3101-2.3149 2.7451-1.7249 4.3701.5464 1.515 2.6296 2.3351 4.5863 1.9407 1.9139-.3782 3.1349-1.7507 3.3238-3.14l.0635-.0157c1.3047 3.03-.1263 5.634-4.3976 6.47l.0636.4893 12.9173-2.5887-.2731-.4412z"
            class="H M" />
        <path
            d="M241.2732 76.8634c0-1.4508 1.5563-2.6183 3.4916-2.6183h21.6916c1.9358 0 3.4922 1.1675 3.4922 2.6183v24.9942c0 1.4357-1.5564 2.62-3.4922 2.62h-21.6916c-1.9353 0-3.4916-1.1685-3.4916-2.62V76.8634z"
            class="C" />
    </g>
    <path d="M255.3688 83.0338l-6.3115 6.8476 6.6283 6.517 6.8788-6.8955-7.1956-6.4691z" class="B D" />
    <g class="I">
        <path
            d="M269.1918 13.0699c-.3578-1.42-2.1881-2.3353-4.083-2.0672l-21.2902 3.1086c-1.8938.2682-3.1138 1.6413-2.7562 3.0613l6.3534 24.5357c.3568 1.4202 2.1871 2.3355 4.0822 2.0672l21.2905-3.1079c1.8945-.2688 3.1145-1.6414 2.7567-3.0615l-6.3534-24.5362z"
            class="C" />
        <path
            d="M257.9992 24.1151c0-2.0358.9045-3.8501 3.3249-3.8501s3.934 1.3575 3.934 3.1722-3.0932 8.046-3.4084 9.8606c-1.3047-1.5453-10.4362-5.4434-11.4671-7.0846s-.4205-3.3607 1.7682-4.1176c2.1875-.7731 4.0386.5833 5.1964 2.4461 1.157 1.8458.652 1.6092.652-.4266z"
            stroke="#c73326" class="D N" />
        <path
            d="M266.1407 15.1519c.1681-1.435 1.8515-2.4928 3.766-2.366l21.6073 1.4202c1.9141.1258 3.3448 1.3879 3.1767 2.8242l-2.9033 24.8988c-.1678 1.4363-1.8513 2.4928-3.7663 2.3828l-21.6067-1.42c-1.9142-.126-3.3244-1.3891-3.1769-2.825l2.9032-24.915z"
            class="C" />
        <g class="H">
            <path
                d="M278.4066 27.0026l.1054 1.3575h-1.8093l-.2945 2.5709 1.9138-.0783.0846 2.0033-1.3252 1.4364 3.8506.0321-1.0945-1.3894.1063-1.94h2.6718l.6511-2.635h-3.1338l.1891-1.295-1.9154-.0625z"
                class="J" />
            <path
                d="M276.3656 24.873c0-1.3098 1.4942-2.3517 3.3247-2.3517 1.8505 0 3.3448 1.0575 3.3448 2.3517 0 1.3094-1.4943 2.3508-3.3448 2.3508-1.8305.015-3.3247-1.0414-3.3247-2.3508zm4.839 5.1283c0-1.3098 1.4942-2.3517 3.3247-2.3517 1.8505 0 3.3237 1.0575 3.3237 2.3517s-1.4933 2.3508-3.3237 2.3508c-1.8305.015-3.3247-1.0415-3.3247-2.3508zm-10.3512-.1263c0-1.3098 1.4942-2.3517 3.3247-2.3517 1.8505 0 3.3237 1.0575 3.3237 2.3517 0 1.3094-1.4933 2.3508-3.3237 2.3508-1.8305.015-3.3247-1.0414-3.3247-2.3508z"
                class="K" />
        </g>
        <path
            d="M106.013 16.4779c-.5469-1.3254.4633-2.7454 2.2301-3.1558l35.8507-8.2206c1.7665-.4102 3.6612.347 4.2078 1.6723l15.4426 37.8538c.5471 1.3412-.4632 2.7456-2.23 3.1558l-35.851 8.2207c-1.7885.4103-3.6607-.347-4.2075-1.6723L106.013 16.4779z"
            class="C" />
    </g>
    <path d="M132.5435 20.4071l-5.2386 12.2766 13.486 6.469 4.8604-12.0715-13.1078-6.6741z"
        class="B D" />
    <g class="I">
        <path
            d="M144.3043 11.8864c.1049-1.3886 1.6831-2.4614 3.5344-2.3826l37.4494 1.4675c1.851.079 3.282 1.2624 3.1767 2.6508l-2.7558 39.5421c-.1046 1.3883-1.6836 2.4616-3.5351 2.3827l-37.449-1.4675c-1.8515-.079-3.2821-1.2624-3.1772-2.651l2.7566-39.542z"
            class="C" />
        <g class="H">
            <path
                d="M164.6071 29.5905l.1464 2.0825h-2.7755l-.4429 3.945 2.9243-.11.1477 3.076-2.041 2.194h5.8908l-1.6619-2.0834.147-2.9666h4.1022l1.011-4.055h-4.819l.2952-1.9718-2.9243-.1107z"
                class="J" />
            <path
                d="M161.4716 26.3394c0-2.0037 2.2936-3.6128 5.1125-3.6128s5.1127 1.6254 5.1127 3.6128c0 2.0047-2.2931 3.6146-5.1127 3.6146s-5.1125-1.6099-5.1125-3.6146zm7.0064 7.9526c0-2.0037 2.2928-3.6128 5.1125-3.6128s5.1127 1.6254 5.1127 3.6128c0 2.0047-2.2937 3.6147-5.1127 3.6147-2.8197.015-5.1125-1.61-5.1125-3.6147zm-15.4846-.2841c0-2.0037 2.2928-3.6127 5.1125-3.6127s5.1127 1.6254 5.1127 3.6127c0 2.0048-2.2937 3.6147-5.1127 3.6147s-5.1125-1.6099-5.1125-3.6147z"
                class="K" />
        </g>
    </g>
    <path d="M0 .1286h303.6495v2.3232H0z" class="B H L" />
    <defs>
        <path id="B"
            d="M95.8725 62.142c.1681-.1724.3789-.3153.8624-.6461l-.0211-.0153c-.715.1257-1.7663.1893-2.7353-.616-1.199-1.0096-.9883-2.114.3998-3.0138 1.6415-1.0734 3.451-.5685 5.1125.8205l.6105.505c.5887-.395 1.5359-.8843.7364-1.4993-.4836-.3787-1.2413-.095-1.6413.1738l-1.8089-1.5147c.9462-.647 1.8509-.6947 2.6723-.474.8413.2213 1.5774.7262 2.1453 1.1994 1.031.8686 1.7041 2.3042.189 3.2984l-3.4293 2.3035c-.2734.1892-.5259.4263-1.2618 1.0095l-1.8305-1.5309zm.295-1.6557c.8407.6944 1.9355.0626 2.8187-.5367-.4002-.3476-.7569-.6787-1.1996-.7889-.4625-.1103-.9256-.1421-1.4091.1735-.4631.3314-.5681.8363-.21 1.1521z" />
        <path id="C"
            d="M104.1618 61.1965l1.3672-1.2474 5.2177 3.2185-1.3669 1.2468-6.081.8053 3.2402 2.0032-1.3675 1.2476-5.47-3.3782 1.3673-1.2457 6.038-.8201-2.945-1.83z" />
        <path id="D"
            d="M122.0025 71.8303c-1.4727 2.225-3.9554 2.5091-6.1007 1.7044-2.1466-.7894-3.3247-2.4621-1.8522-4.6861s3.9559-2.509 6.1015-1.7043 3.3237 2.461 1.8514 4.686zm-5.218.3792c1.0947.4102 1.9994-.5217 2.5669-1.3888s1.0105-1.9563-.0843-2.3663-1.9983.5203-2.5659 1.3876c-.5477.8524-.9893 1.9729.0833 2.3675z" />
        <path id="E"
            d="M128.3777 72.0996c.1055-.2219.1472-.427.0628-.5847-.0839-.1737-.2736-.3151-.6524-.41-.3998-.0949-.736.0468-.9047.41-.2102.4742.9047.7255 2.4199 1.625.7576.4582 1.1364 1.0735.6732 2.1149-.7578 1.6885-2.7356 1.6723-4.3973 1.262-1.7671-.4419-3.3659-1.1994-2.4827-3.1401l2.5878.6475c-.1263.1731-.1471.4101-.0625.6156s.2521.3948.5259.4567c.5255.1272 1.009.0483 1.178-.3467.5051-1.1359-4.0814-1.5301-3.0512-3.85.6951-1.5786 2.7989-1.53 4.2291-1.1679 1.7255.4265 3.1349 1.2147 2.4623 3.0133l-2.5882-.6456z" />
        <path id="F"
            d="M132.7962 72.6193l.4206-1.5775 6.6059 1.0095-.4206 1.578-4.8613 2.84 4.1038.6315-.4206 1.5785-6.943-1.0578.4205-1.5772 4.7974-2.8559-3.7027-.5691z" />
        <path id="G"
            d="M142.3261 72.2411l.1263-1.01 2.9889-.7575-.2536 1.9725 1.6627.11-.1891 1.61-1.6626-.11-.3371 2.6657c-.0207.1743-.2512 1.0414.4205 1.0742.3789.0301.7788.0458 1.1156.0301l-.1891 1.515c-.654.064-1.1361.064-1.5555.0318-1.9581-.1418-3.0943-.4568-2.6948-2.5085l.3572-3.0133-1.4725-.1107.1899-1.6093 1.4932.11z" />
        <path id="H"
            d="M156.8639 75.8861c.0636 2.4769-1.9359 3.597-4.3339 3.6288-2.3775.0326-4.4599-1.0094-4.5445-3.5024-.063-2.4781 1.9567-3.5982 4.3345-3.645 2.3772-.0157 4.4606 1.0406 4.5439 3.5186zm-4.376 2.1614c1.2201-.015 1.4309-1.1679 1.4098-2.1147s-.3161-2.0818-1.5361-2.066-1.4304 1.167-1.4097 2.114.316 2.0824 1.536 2.0667zm.3788-6.4694l-1.7884.0318 1.5147-1.9724 3.1565-.0475v.0325l-2.8828 1.9556z" />
        <path id="I"
            d="M167.7841 73.1718c-.0637-.2217-.1685-.4102-.3371-.5216-.1891-.1262-.4633-.172-.8413-.1101-.4214.0635-.6104.3153-.4836.6939.1468.4896 1.283.2695 3.1973.4587.9686.0944 1.7254.4727 2.0413 1.5459.526 1.7351-1.1995 2.4931-2.9033 2.7768-1.8304.3155-3.7034.2839-4.2925-1.7202l2.6718-.4567c.0219.205.147.41.3583.5515s.4836.2376.7572.1891c.5472-.0946.8841-.3456.7787-.7558-.3578-1.1688-4.5446.2668-5.26-2.0997-.4841-1.625 1.3462-2.3984 2.819-2.6501 1.7674-.3 3.5136-.1744 4.1872 1.625l-2.693.4733z" />
        <path id="J"
            d="M171.9279 71.91l-.6938-1.515 6.3965-1.641.6936 1.4982-2.2721 4.309 3.9761-1.0262.6951 1.5151-6.712 1.7356-.6934-1.5146 2.2082-4.293-3.5982.9319z" />
        <path id="K"
            d="M187.4344 72.7772c-.1687-.173-.2951-.3622-.5893-.8043l-.0211.0161c-.0416.5517-.2734 1.3252-1.5568 1.798-1.6416.5837-2.9667.1265-3.7454-1.1363-.9258-1.4831.2317-2.635 2.4827-3.455l.8212-.3c-.3369-.5357-.6949-1.3568-1.7258-.9457-.6095.2508-.4628.8662-.2312 1.2304l-2.4617.8832c-.5677-.8529-.3786-1.5314.1473-2.0679.5262-.5515 1.3671-.9457 2.1457-1.2146 1.3887-.5048 3.4082-.5997 4.2713.7896l1.9985 3.1243c.1689.2514.3788.5053.9465 1.1834l-2.4819.8988zm-5.2604-6.6901l-1.6197.5836.2945-2.2719 2.8616-1.0256.0206.016-1.557 2.6979zm3.1983 6.0125c1.1149-.4104.6317-1.3739.1054-2.1785-.5473.2052-1.0942.3637-1.3469.6472-.2736.2996-.4416.632-.1681 1.0574.2943.425.9255.6468 1.4096.4739z" />
        <path id="L"
            d="M190.6739 65.0772l.0203-.0159c-.273-.9938.274-1.7037 1.2213-2.1929.7568-.3944 1.9581-.5049 2.8399.0313-.189-.8839.3159-1.7042 1.2207-2.2251 1.3462-.7099 3.071-.457 4.2078.7577l3.4499 3.6924-2.3773 1.246-3.0294-3.2341c-.5258-.5214-1.22-1.0261-1.9562-.647-1.1786.6151.0427 1.6726.1047 1.7355l2.9662 3.1558-2.3773 1.2466-3.0296-3.2349c-.5249-.5205-1.22-1.0253-1.9567-.6468-1.1783.6151.0426 1.6728.1055 1.736l2.9659 3.1559-2.3773 1.2462-3.8289-4.1024-1.409-1.3726 2.3346-1.2311.9049.8994z" />
        <path id="M"
            d="M209.3567 60.8017c-.2531-.1101-.442-.2691-.9049-.5999l-.0206.0156c.2097.5205.3577 1.3095-.6313 2.0835-1.2626.9777-2.7354.8832-4.0404-.1104-1.5352-1.1529-.9882-2.5406.7584-3.8829l.6312-.4882c-.5687-.4105-1.2835-1.0884-2.0418-.4423-.4617.3947-.0412.9305.3586 1.2148l-1.8939 1.4682c-.9258-.6633-1.0521-1.3413-.7995-1.973.2526-.6461.863-1.2304 1.4518-1.688 1.0736-.8366 2.9451-1.4364 4.3765-.3625l3.3023 2.4144c.2736.2051.5901.3616 1.4314.867l-1.9778 1.4837zm-2.251-.1101c.8622-.6636-.0426-1.452-.9048-2.0841-.4204.3325-.8627.616-.9682.9479-.1262.3622-.1262.7097.3371 1.0413.4631.3463 1.1569.3948 1.5359.0949z" />
        <path id="N"
            d="M232.6474 115.4121c1.5137 0 3.555-.0322 3.555 1.7987 0 1.1529-1.0945 1.9088-2.5036 1.9088-1.8092 0-2.63-1.0722-2.7144-2.3974h-2.9664c-.0629 2.7919 2.2726 4.4173 5.7225 4.4173 3.0084 0 5.7229-1.4354 5.7229-3.9911 0-1.358-1.031-2.4623-2.7349-2.7619v-.0318c1.4306-.3156 2.1456-1.3406 2.1456-2.4763 0-2.179-2.7142-3.3618-5.1753-3.3618-3.1778 0-5.2176 1.7203-5.3228 4.1975h2.9666c-.021-1.2465.8202-2.1776 2.3773-2.1776 1.1357 0 2.1883.5833 2.1883 1.609 0 1.3886-1.9359 1.5936-3.283 1.5151v1.7515h.0222z" />
        <path id="O"
            d="M268.6026 61.1323h2.9667v-2.8076h2.0403v-2.0359h-2.0403v-7.306h-2.7991l-6.6901 7.0683v2.2569h6.5012v2.8243h.0213zm0-4.8597h-4.0399l3.9768-4.2123h.0631v4.2123z" />
        <path id="P"
            d="M42.2862 49.5666h-2.4827c-.3367 1.8625-2.3352 2.4461-4.5024 2.4139v1.8628h3.8711v7.8891h3.114V49.5666z" />
        <path id="Q"
            d="M72.4572 112.8402c0-1.2786.5877-2.7931 2.44-2.7931 1.3459 0 2.3134.7261 2.3134 1.8781-.0198 1.4993-1.8724 2.24-3.2399 2.9657-2.6508 1.4203-4.838 2.6193-4.86 5.4293H80.409v-2.115h-7.2801c1.1156-1.2465 2.9248-1.9406 4.4401-2.7929s2.7555-1.8621 2.7555-3.6771c0-2.3818-2.462-3.8025-5.2809-3.8025-3.7027 0-5.7016 2.1306-5.5962 4.9075h3.0098z" />
        <path id="R"
            d="M183.0157 102.4262c.7577 1.6407 2.6716 1.7837 4.4187 1.3894 1.704-.3951 3.1976-1.3101 2.5243-2.9517-.4631-1.1518-1.7887-1.2466-3.093-1.1987-1.2617.0469-2.4617.2211-2.7143-.3946-.2099-.505.4424-.7413.9049-.8358.7367-.1742 1.4098-.1275 1.7467.5205l1.9567-.4422c-.7787-1.4991-2.4827-1.6097-4.124-1.231-1.5988.3635-3.0923 1.1527-2.4401 2.7454.4411 1.1046 1.7878 1.1838 3.0505 1.1201 1.5779-.0777 2.5246-.0947 2.7141.4272.2513.5992-.4212.962-1.0309 1.104-.8212.189-1.6832.063-1.9996-.6939l-1.914.4413zm-8.2681-.0311c-.2526-1.0253-.0424-2.1145 1.3882-2.3038 1.4517-.1896 2.1255.7893 2.3564 1.8143s.0426 2.0984-1.3882 2.3043c-1.4518.1882-2.1255-.7893-2.3564-1.8148zm-2.1247.2837c.4835 2.036 2.3556 3.1718 4.7756 2.8563 2.4407-.3154 3.6816-1.8783 3.1975-3.9138-.4833-2.0507-2.3564-3.1865-4.7966-2.8557-2.3987.3154-3.6608 1.8615-3.1765 3.9132zm-8.9633 3.9285l2.1458-.1417-.2516-2.24.7568-.7262 2.4826 2.7612 2.588-.1737-3.7453-3.8969 2.6721-2.5727-2.5243.1583-2.4197 2.5092-.5679-4.8134-2.1463.1418 1.0098 8.9941zm-8.626-3.8021c.021-.5048.4206-1.3889 1.7885-1.3889 1.0522 0 1.5146.474 1.7045 1.3889h-3.493zm5.6386 1.1361c.1471-2.0046-1.1357-3.8816-3.8086-3.8816-2.3767 0-3.9964 1.4824-3.9964 3.4397 0 2.0199 1.5353 3.4235 3.9964 3.4235 1.7682 0 3.0517-.6623 3.6611-2.1923h-1.8929c-.1267.41-.8419.8509-1.7041.8509-1.1992 0-1.8514-.5202-1.9148-1.6559l5.6593.0157zm-1.1992-6.2957h-2.3563l-1.4731 1.7987h1.494l2.3354-1.7987zm-9.7197.5841l-2.1457-.0791-.1264 1.9561-1.3048-.047-.0843 1.1993 1.3043.0471-.2733 3.8499c-.0842 1.2941 1.0522 1.5939 2.3567 1.6409l1.2617-.0156.1054-1.4049c-.2308.0322-.4415.0322-.6731.0322-.715-.0322-.9047-.1889-.8623-.7885l.2309-3.2503 1.578.062.0635-1.1992-1.5781-.0626.1475-1.9403zm-10.7932 3.3124c.1685-.6942.7363-.9306 1.5561-.8666.7581.0619 1.3683.2203 1.2627.9939-.1051.7257-1.3251.5991-2.6503.6463-1.3463.0473-2.7143.2999-2.9244 1.7668-.1898 1.3261.9041 2.0359 2.3774 2.1625.9464.0786 1.9773-.0633 2.7353-.5994-.0217.2203.0209.4254.0627.6465l2.1673.1735c-.169-.2839-.1478-.8679-.0634-1.4673l.4631-3.377c.2099-1.5616-1.5997-1.9881-3.1559-2.1142-1.7466-.1416-3.598.2207-3.9557 1.8783l2.1251.1567zm2.5249 2.2094c-.0636.3948-.274 1.4838-1.9358 1.3575-.6941-.0477-1.2839-.2684-1.1991-.9318.0845-.6461.7148-.7886 1.3881-.8512.6737-.048 1.4301 0 1.8304-.237l-.0836.6625zm2.2509-6.4694l-2.3563-.1896-1.7042 1.6731 1.4929.1257 2.5676-1.6092zm-8.7103-.6943l-2.125-.2836-.336 1.4516 2.1247.2845.3363-1.4525zm-5.9963 10.6348l.6737.143c2.1248.2842 2.8616-.2689 3.1765-1.5785l1.578-6.7532-2.1246-.2837-1.557 6.6584c-.1057.4889-.526.5211-.9469.4573-.1677-.0153-.3157-.0631-.442-.1103l-.3577 1.467zm-11.6976-9.4513c.3787-.6466 1.01-.7892 1.7674-.5841.7153.1896 1.2627.4429.9258 1.1684-.3153.6943-1.4724.3626-2.7769.1895-1.3253-.1895-2.7354-.174-3.3873 1.2148-.5895 1.2618.273 2.1304 1.6623 2.4927.9043.2372 1.9346.2681 2.8397-.1263-.0837.205-.1048.426-.1263.6311l2.0622.5368c-.063-.2995.105-.8836.3786-1.436l1.4724-3.2026c.6733-1.4838-.9672-2.2093-2.44-2.5885-1.6621-.4258-3.577-.3943-4.4183 1.1685l2.0404.5357zm1.8095 2.5717c-.1682.3633-.715 1.4041-2.293.9941-.6522-.1724-1.1782-.4732-.884-1.1045.2946-.6153.9468-.6469 1.62-.5994.6737.0633 1.3888.2371 1.8521.0789l-.2951.6309zm61.2019 8.1735l-2.0818.4106.5043 1.42 2.0829-.4102-.5054-1.4204zm1.0309 9.1203l2.0834-.41-2.2509-6.2955-2.0834.41 2.2509 6.2955zm-10.3507-2.9349c-.0836-.71.3789-1.0407 1.1781-1.1512.7363-.0946 1.41-.0636 1.5775.6946.1694.7253-1.0514.8356-2.3133 1.1827-1.2834.3318-2.5034.8524-2.1674 2.3035.3161 1.3098 1.6198 1.7678 3.0716 1.5785.9471-.1425 1.8727-.4894 2.4197-1.1528.063.2057.1679.4109.2943.6001l2.1465-.2837c-.2526-.2373-.4632-.8043-.6103-1.388l-.7787-3.3451c-.3578-1.5471-2.2718-1.5792-3.8078-1.3734-1.7255.2206-3.3874.9627-3.114 2.6346l2.1038-.2998zm3.2402 1.5944c.0844.3785.2946 1.4835-1.3671 1.7043-.695.0947-1.3262.0153-1.4942-.6479-.1475-.6464.3995-.915 1.0309-1.1042s1.3673-.2996 1.6622-.5991l.1682.6469zm-20.639 4.3549l2.1459-.1105-.358-3.7712c-.1263-1.2783.8839-1.5466 1.3045-1.5782 1.3678-.0629 1.3889.8046 1.4517 1.5619l.3365 3.6449 2.1461-.1105-.3362-3.6288c-.0845-.8205.0622-1.6571 1.2828-1.7193s1.3889.6462 1.4734 1.5141l.3362 3.6927 2.1464-.1105-.4006-4.3552c-.1681-1.6887-1.4091-2.2725-3.0713-2.1779-1.0941.0636-1.8514.6152-2.2511 1.1992-.505-.7563-1.4096-1.0098-2.3771-.9614-1.0104.0464-1.7886.4881-2.2936 1.1828l-.1055-.883-2.0194.1103.5893 6.5006zm-8.921-5.0018c.1686-.6941.7366-.9319 1.5569-.8681.7575.0635 1.3678.2204 1.2626.9943-.1053.7257-1.3253.5995-2.6509.6621-1.3469.0478-2.7142.2997-2.9246 1.7679-.189 1.325.9044 2.0354 2.378 2.1612.9466.0793 1.9775-.0632 2.7343-.5997-.0209.2208.0217.4258.0633.6472l2.1667.173c-.1679-.2837-.147-.8671-.0628-1.4667l.4626-3.3768c.2108-1.5625-1.5986-1.9881-3.1556-2.1144-1.7461-.1423-3.6184.2212-3.9555 1.8777l2.125.1423zm2.5252 2.2081c-.0641.3946-.2734 1.4838-1.9362 1.3578-.6937-.0478-1.2831-.2684-1.1986-.9306.0836-.6479.7149-.7891 1.3877-.8529.6735-.0464 1.4311 0 1.8305-.2362l-.0834.6619zm2.2511-6.4525l-2.3567-.1894-1.683 1.6719 1.4933.1265 2.5464-1.609zm-18.8096 7.2415l7.0905.9312.3155-1.3256-4.2916-.567 4.9016-3.2347.3161-1.3257-6.5015-.8525-.3152 1.3251 3.7237.4894-4.9018 3.2346-.3373 1.3252zm-10.0982-4.1172c-.5051 1.6876 1.0098 2.5716 2.756 2.9338 1.7247.3477 3.6395.1582 4.2294-1.4982.4206-1.1682-.6315-1.7678-1.7677-2.2411-1.0937-.4728-2.251-.7885-2.0194-1.4038.1891-.5048.9042-.4422 1.3672-.3475.7366.1424 1.3045.458 1.1155 1.1359l1.9772.3943c.4001-1.5771-.968-2.3509-2.6085-2.6819-1.6204-.3314-3.4294-.253-4.0188 1.3567-.3999 1.1046.6732 1.7042 1.7886 2.1625 1.3881.5669 2.1875.9306 1.9984 1.4508-.2105.6155-1.0519.6469-1.6413.5364-.8204-.1572-1.4725-.6151-1.22-1.3877l-1.9566-.4102z" />
    </defs>
</svg>