<svg xmlns="http://www.w3.org/2000/svg" xmlns:xlink="http://www.w3.org/1999/xlink" width="395"
    height="415" stroke="#000" stroke-linecap="round" stroke-linejoin="round" fill="#fff"
    fill-rule="evenodd">
    <style>
        <![CDATA[.B{stroke:none}.C{fill:#000}.D{stroke-width:1.5}.E{stroke-width:.5463}.F{fill:#c4000c}.G{fill:none}.H{stroke-linejoin:miter}.I{stroke-width:1.25}.J{stroke-width:2.5}.K{fill:#ffec00}.L{fill-rule:nonzero}.M{stroke-width:.3542}.N{stroke-width:1.4383}.O{stroke-width:.25}.P{stroke-width:.5}.Q{stroke-linecap:butt}.R{stroke-width:.1749}.S{stroke-width:.2875}]]>
    </style>
    <g class="B">
        <path
            d="M389.5934 1.7406v106.0579c0 82.372-84.3483 138.2571-191.4193 138.2571S5.7462 188.2378 5.7462 105.8674L5.6644 1.7406h383.929z"
            fill="#209740" />
        <path
            d="M297.1278 1.1566v63.8846c0 38.715-46.8634 77.5602-101.7954 77.5602s-97.6542-38.8452-97.6542-77.5602l-.0545-63.8846h199.5041z"
            class="F" />
    </g>
    <g class="G">
        <path
            d="M297.1825 1.1566l-.0547 63.8846c0 38.715-46.8634 77.5602-101.7954 77.5602s-97.6542-38.8452-97.6542-77.5602l-.0545-63.8846"
            stroke-width="1.6507" class="H Q" />
        <g stroke="#fff" class="I">
            <use xlink:href="#B" />
            <use xlink:href="#C" />
            <use xlink:href="#D" />
            <use xlink:href="#E" />
            <use xlink:href="#F" />
            <use xlink:href="#G" />
            <use xlink:href="#H" />
            <use xlink:href="#I" />
            <use xlink:href="#J" />
            <use xlink:href="#K" />
            <use xlink:href="#L" />
            <use xlink:href="#M" />
        </g>
        <g class="J">
            <use xlink:href="#B" />
            <use xlink:href="#C" />
            <use xlink:href="#D" />
            <use xlink:href="#E" />
            <use xlink:href="#F" />
            <use xlink:href="#G" />
            <use xlink:href="#H" />
            <use xlink:href="#I" />
            <use xlink:href="#J" />
            <use xlink:href="#K" />
            <use xlink:href="#L" />
            <use xlink:href="#M" />
        </g>
    </g>
    <g class="B L">
        <use xlink:href="#B" />
        <use xlink:href="#C" />
        <use xlink:href="#D" />
        <use xlink:href="#E" />
        <use xlink:href="#F" />
        <use xlink:href="#G" />
        <use xlink:href="#H" />
        <use xlink:href="#I" />
        <use xlink:href="#J" />
        <use xlink:href="#K" />
        <use xlink:href="#L" />
        <use xlink:href="#M" />
    </g>
    <g class="G">
        <use xlink:href="#N" class="I" />
        <use xlink:href="#N" class="J" />
    </g>
    <use xlink:href="#N" class="B" />
    <g class="G">
        <use xlink:href="#O" class="I" />
        <use xlink:href="#O" class="J" />
    </g>
    <use xlink:href="#O" class="B" />
    <g class="G">
        <use xlink:href="#P" class="I" />
        <use xlink:href="#P" class="J" />
    </g>
    <use xlink:href="#P" class="B" />
    <g class="G">
        <use xlink:href="#Q" class="I" />
        <use xlink:href="#Q" class="J" />
    </g>
    <use xlink:href="#Q" class="B" />
    <g class="G">
        <use xlink:href="#R" class="I" />
        <use xlink:href="#R" class="J" />
    </g>
    <use xlink:href="#R" class="B" />
    <g class="H">
        <g class="L">
            <g class="C">
                <path
                    d="M374.7276 279.7981c-.083-21.7925-33.1326-39.4461-73.8936-39.4461-40.8184 0-73.9225 17.7084-73.9225 39.5254 0 .9416.1635 1.8878.2717 2.8266l-.2717 11.3203c0 .8632.1635 1.7015.2448 2.5398l-.2448 10.2671c0 .8632.1635 1.7015.2448 2.5398l-.2448 10.2671c0 21.8456 33.1041 41.5415 73.9225 41.5415s73.9206-19.6959 73.9206-41.5415v-12.8069-1.4155-11.3914-1.4193l-.027-12.8069z"
                    stroke-width="3.2056" />
                <g class="E">
                    <path
                        d="M226.8844 319.6891c0 21.8456 33.1041 41.5424 73.9225 41.5424s73.9206-19.6968 73.9206-41.5424v-14.2473H227.2114l-.327 14.2473z" />
                    <path
                        d="M300.8069 348.8688c40.8149 0 73.9206-21.4743 73.9206-43.3199s-33.1057-39.554-73.9206-39.554-73.9225 17.7084-73.9225 39.554 33.1041 43.3199 73.9225 43.3199z" />
                </g>
            </g>
            <g class="K E">
                <path
                    d="M300.8066 305.441l29.1264-35.9615c-8.9367-2.0455-18.7725-3.1963-29.1264-3.1963s-20.1903 1.1508-29.1277 3.1963l29.1277 35.9615z" />
                <use xlink:href="#S" />
                <path
                    d="M300.8066 305.4418l-29.1277 39.7615c8.9374 2.0418 18.7752 3.1706 29.1277 3.1706 10.3272 0 20.1897-1.1537 29.1264-3.1706l-29.1264-39.7615z" />
                <use xlink:href="#T" />
            </g>
            <path
                d="M300.8066 330.5871c26.4571 0 47.9273-11.4739 47.9273-25.6425s-21.4702-25.6432-47.9273-25.6432-47.9285 11.4739-47.9285 25.6432 21.4714 25.6425 47.9285 25.6425z"
                class="C M" />
            <path
                d="M300.8066 332.1059c26.4571 0 47.9273-11.4739 47.9273-25.6425 0-14.1432-21.4702-25.6432-47.9273-25.6432s-47.9285 11.5-47.9285 25.6432c0 14.1686 21.4714 25.6425 47.9285 25.6425z"
                fill="#d8d9db" class="N" />
            <g class="E">
                <g class="K">
                    <use xlink:href="#U" />
                    <use xlink:href="#V" />
                </g>
                <g class="C">
                    <path
                        d="M226.8844 306.8812c0 21.8456 33.1041 41.5166 73.9225 41.5166s73.9206-19.671 73.9206-41.5166v-14.2473H227.2114l-.327 14.2473z" />
                    <path
                        d="M300.8069 336.0348c40.8149 0 73.9206-21.4759 73.9206-43.3211s-33.1057-39.5528-73.9206-39.5528-73.9225 17.7084-73.9225 39.5528 33.1041 43.3211 73.9225 43.3211z" />
                </g>
                <g class="K">
                    <path
                        d="M300.8066 292.6355l29.1264-35.9909c-8.9367-2.0455-18.7725-3.1963-29.1264-3.1963s-20.1903 1.1508-29.1277 3.1963l29.1277 35.9909z" />
                    <use xlink:href="#S" y="-12.8079" />
                    <path
                        d="M300.8066 292.6329l-29.1277 39.7366c8.9374 2.0667 18.7752 3.1955 29.1277 3.1955 10.3272 0 20.1897-1.1288 29.1264-3.1955l-29.1264-39.7366z" />
                    <path
                        d="M300.8065 292.6322l67.2459 15.5874c3.8431-4.7952 5.9682-10.0596 5.9682-15.5874s-2.1251-10.8149-5.9682-15.5836l-67.2459 15.5836z" />
                </g>
            </g>
            <use xlink:href="#W" class="C M" />
            <path
                d="M300.8066 319.2987c26.4571 0 47.9273-11.4738 47.9273-25.6441s-21.4702-25.6432-47.9273-25.6432-47.9285 11.4751-47.9285 25.6432 21.4714 25.6441 47.9285 25.6441z"
                fill="#d8d9db" class="N" />
            <g class="E">
                <g class="K">
                    <use xlink:href="#U" y="-12.8088" />
                    <use xlink:href="#V" y="-12.8088" />
                </g>
                <g class="C">
                    <path
                        d="M226.8844 294.0463c0 21.8207 33.1041 41.5166 73.9225 41.5166s73.9206-19.6959 73.9206-41.5166V279.799H227.2114l-.327 14.2473z" />
                    <use xlink:href="#X" />
                    <use xlink:href="#X" />
                </g>
                <g class="K">
                    <path
                        d="M300.8066 279.7982l29.1264-35.9631c-8.9367-2.0439-18.7725-3.1947-29.1264-3.1947s-20.1903 1.125-29.1277 3.1947l29.1277 35.9631z" />
                    <use xlink:href="#S" y="-25.6429" />
                    <path
                        d="M300.8066 279.799l-29.1277 39.7615c8.9374 2.0418 18.7752 3.1955 29.1277 3.1955 10.3272 0 20.1897-1.1537 29.1264-3.1955l-29.1264-39.7615z" />
                    <use xlink:href="#T" y="-25.6429" />
                </g>
            </g>
            <use xlink:href="#W" y="-12.8349" class="C M" />
            <path
                d="M300.8066 306.4892c26.4571 0 47.9273-11.4993 47.9273-25.6425s-21.4702-25.6432-47.9273-25.6432-47.9285 11.5-47.9285 25.6432 21.4714 25.6425 47.9285 25.6425z"
                class="N" />
            <path
                d="M232.2536 296.2214s17.3563 19.1203 39.4253 23.338l-.2446-1.2306v12.5484c-9.5083-1.2076-30.7902-8.3569-40.2994-24.4921l1.1187-10.1637zm136.3984 0s-17.3297 19.1203-39.4271 23.338l.2717-1.2306v12.5484c9.5108-1.2076 30.7626-8.3569 40.2979-24.4921l-1.1425-10.1637z"
                class="E K" />
        </g>
        <path
            d="M274.24 331.2418s22.8065 9.3254 53.1599.71M274.24 344.5222s22.8065 9.3254 53.1599.7088"
            stroke="#96969a" stroke-width=".779" class="G Q" />
    </g>
    <path
        d="M318.026 280.8444l21.8262-4.6871-24.5236 1.8891 16.8935-8.881-21.4972 6.6239 7.4378-11.5495-13.7599 10.2957-3.4331-11.998-3.4608 11.998-13.8409-10.111 7.547 11.3648-21.2798-6.5205 16.6752 8.7776-25.0678-1.992 22.3702 4.79-22.3702 4.7965 25.0678-2.0169-16.6752 8.7731 21.2798-6.4959-7.547 11.3431 13.8409-10.0845 3.4608 11.9686 3.4331-11.9686 13.7599 10.292-7.4378-11.5506 21.4972 6.6038-16.8935-8.881 24.5236 1.909-21.8262-4.6886z"
        class="B F L" />
    <path
        d="M51.0582 19.1245c-.7352-2.2797-3.2423-3.5883-5.6397-2.8801l-26.866 7.9099c-2.3702.7055-3.7333 3.1153-2.9974 5.4199l12.6153 39.6574c.7361 2.2781 3.2431 3.5875 5.6403 2.882l26.8662-7.9118c2.3977-.7055 3.7328-3.1169 2.9971-5.4199L51.0582 19.1245z"
        class="D H" />
    <path d="M35.8002 33.1123l-4.1419 13.8323 11.9073 7.3298 4.305-13.6959-12.0704-7.4662z"
        class="B F" />
    <g class="H">
        <path
            d="M47.9793 25.2788c0-2.4079 2.0168-4.3463 4.5219-4.3463h28.0941c2.4785 0 4.522 1.9384 4.522 4.3463v41.4908c0 2.4103-2.0168 4.3492-4.522 4.3492H52.5012c-2.4783 0-4.5219-1.9389-4.5219-4.3492V25.2788z"
            class="D" />
        <g class="C">
            <path
                d="M65.254 43.6681l.109 2.2538h-2.3432l-.3815 4.2667 2.4794-.1013.1363 3.3245-1.7439 2.3572h4.8226l-1.2528-2.2526.1373-3.1955h3.4602l.8436-4.399h-4.0589l.2449-2.1248-2.453-.129z"
                class="O" />
            <path
                d="M62.5838 40.1609c0-2.1746 1.9347-3.9055 4.305-3.9055 2.3973 0 4.3052 1.7551 4.3052 3.9055 0 2.1452-1.9346 3.901-4.3052 3.901s-4.305-1.728-4.305-3.901zm5.9398 8.6437c0-2.1746 1.9347-3.9055 4.305-3.9055 2.3973 0 4.3052 1.7551 4.3052 3.9055 0 2.173-1.9346 3.9259-4.3052 3.9259-2.3703-.0249-4.305-1.7807-4.305-3.9259zm-13.0786-.3404c0-2.1746 1.9347-3.9055 4.305-3.9055 2.3973 0 4.3052 1.7551 4.3052 3.9055 0 2.1452-1.9346 3.901-4.3052 3.901s-4.305-1.7558-4.305-3.901z"
                class="P" />
        </g>
        <path
            d="M81.4923 118.9196c-.7347-2.3052-3.2419-3.5868-5.6402-2.8801l-26.8654 7.9099c-2.3968.7077-3.7319 3.1164-2.997 5.4199l12.6162 39.6574c.7348 2.3062 3.2417 3.5895 5.6399 2.8813l26.8651-7.9099c2.3973-.7067 3.7324-3.1149 2.9977-5.4211l-12.6163-39.6574z"
            class="D" />
        <path
            d="M84.272 150.355c-5.5582 1.7513-9.1822-.581-10.953-5.6855l.0812-.0249c1.6896 1.6754 4.1696 2.7473 6.5943 1.909 2.5065-.8632 3.76-3.4851 2.8342-5.9179-1.0902-2.8801-4.2239-3.984-6.9488-5.0808-3.5146-1.3351-6.3755-2.7249-8.5008-5.9212.7085 3.7976-.954 7.4413-2.9153 10.609-1.4167 2.2771-2.5616 4.792-1.5801 7.4132.9259 2.4335 3.7325 3.5623 6.2116 2.6991 2.3979-.8383 3.7599-3.2244 3.8151-5.5539l.0818-.0274c2.1253 4.8721.6808 9.3246-4.6874 11.1589l.137.8134 16.2668-5.6855-.4366-.7055z"
            class="C R" />
        <path
            d="M77.1065 125.0752c0-2.3838 2.0168-4.3476 4.5219-4.3476h28.0941c2.5051 0 4.5218 1.9384 4.5218 4.3476v41.4895c0 2.383-2.0167 4.3492-4.5218 4.3492H81.6284c-2.4783 0-4.5219-1.9384-4.5219-4.3492v-41.4895z"
            class="D" />
        <path
            d="M96.9152 140.9776c.8992-3.2768 2.8605-5.893 5.8855-5.1111s4.3048 3.4594 3.487 6.3654-8.937 11.7352-10.1357 14.5391c-.9265-2.9084-9.1547-11.8924-9.6997-14.8804-.5451-2.9563.9809-5.5261 4.0598-6.0497s4.7954 2.2551 5.3946 5.5787c.6272 3.3528.0821 2.8292 1.0085-.442z"
            stroke="#c73326" class="F S" />
        <path
            d="M316.1464 119.6048c-.5719-2.3323-2.9696-3.8014-5.4225-3.2507l-27.3829 6.0773c-2.4247.5515-3.9507 2.8838-3.3787 5.2124l9.6999 40.4164c.5729 2.3323 2.9704 3.7971 5.4222 3.2453l27.3828-6.0756c2.4258-.5478 3.9516-2.8801 3.3789-5.2124l-9.6997-40.4127z"
            class="D" />
        <path
            d="M316.3098 153.0258c-5.6941 1.2812-9.1001-1.3363-10.4076-6.5736l.0806-.0278c1.5259 1.8049 3.8964 3.0905 6.4039 2.4348 2.5878-.6557 4.0597-3.1706 3.3512-5.6584-.8175-2.957-3.8421-4.3182-6.4847-5.6557-3.379-1.6256-6.1031-3.2486-7.9297-6.6018.3547 3.8504-1.635 7.3334-3.8685 10.3214-1.6078 2.1746-2.9982 4.5567-2.2338 7.2542.7078 2.5149 3.4053 3.8761 5.9398 3.2204 2.4786-.627 4.0597-2.905 4.3044-5.2124l.0821-.0249c1.6898 5.0298-.1635 9.3529-5.6951 10.7402l.0824.8134 16.7288-4.2994-.3538-.7304z"
            class="C R" />
        <path
            d="M312.4686 127.3789c0-2.407 2.0153-4.3454 4.5219-4.3454h28.0924c2.5069 0 4.5228 1.9384 4.5228 4.3454v41.4917c0 2.3821-2.0159 4.3492-4.5228 4.3492h-28.0924c-2.5066 0-4.5219-1.9413-4.5219-4.3492v-41.4917z"
            class="D" />
    </g>
    <path d="M330.7236 137.6226l-8.174 11.3672 8.5842 10.8182 8.9087-11.4468-9.3189-10.7386z"
        class="B F" />
    <g class="H">
        <path
            d="M348.6253 21.4817c-.4631-2.3572-2.8335-3.8766-5.2875-3.4303l-27.5727 5.1604c-2.4528.444-4.0328 2.7246-3.5694 5.0818l8.228 40.7281c.4623 2.3572 2.8326 3.8771 5.2869 3.4308l27.573-5.1572c2.4534-.4472 4.0334-2.7253 3.5702-5.0825l-8.2285-40.7311z"
            class="D" />
        <path
            d="M334.1295 39.8174c0-3.3797 1.1719-6.391 4.3064-6.391s5.0945 2.2538 5.0945 5.2667-4.006 13.3547-4.4138 16.3676c-1.6895-2.5647-13.5155-9.0357-14.8506-11.7611s-.5446-5.5776 2.2897-6.8346c2.8327-1.2835 5.2305.9674 6.7298 4.0624 1.4984 3.0627.844 2.6697.844-.71z"
            stroke="#c73326" class="F S" />
        <path
            d="M344.674 24.94c.2174-2.3821 2.3976-4.14 4.8773-3.9288l27.9829 2.3584c2.4793.2092 4.3319 2.3025 4.1145 4.6873l-3.7601 41.3313c-.2177 2.3848-2.3978 4.14-4.8778 3.9574l-27.9827-2.3572c-2.4788-.2104-4.3052-2.3074-4.1141-4.6895l3.76-41.3589z"
            class="D" />
        <g class="C">
            <path
                d="M360.5594 44.6108l.1366 2.2538h-2.3432l-.3815 4.2667 2.4784-.1295.1097 3.325-1.7164 2.3849 4.987.0548-1.4174-2.3074.1376-3.2204h3.4602l.8431-4.3741h-4.0584l.2449-2.1497-2.4806-.1041z"
                class="O" />
            <path
                d="M357.9161 41.0775c0-2.1746 1.9351-3.9055 4.3057-3.9055 2.3966 0 4.3317 1.7551 4.3317 3.9055 0 2.173-1.9351 3.901-4.3317 3.901-2.3706.0249-4.3057-1.728-4.3057-3.901zm6.2669 8.5128c0-2.1746 1.9351-3.9055 4.3057-3.9055 2.3966 0 4.3045 1.7551 4.3045 3.9055 0 2.1452-1.9339 3.901-4.3045 3.901-2.3706.0249-4.3057-1.728-4.3057-3.901zm-13.4056-.2095c0-2.1746 1.9351-3.9055 4.3057-3.9055 2.3966 0 4.3045 1.7551 4.3045 3.9055 0 2.173-1.9339 3.901-4.3045 3.901-2.3706.0249-4.3057-1.728-4.3057-3.901z"
                class="P" />
        </g>
        <path
            d="M137.2957 27.1397c-.7084-2.2005.5998-4.5577 2.8881-5.2383L186.6132 8.255c2.2879-.6806 4.7416.5755 5.4496 2.776l19.9997 62.8373c.7082 2.2264-.6 4.5571-2.8883 5.2383l-46.43 13.647c-2.3161.6811-4.7406-.5761-5.449-2.7762l-19.9995-62.8377z"
            class="D" />
    </g>
    <path d="M171.6545 33.6623l-6.7843 20.3798 17.4654 10.7377 6.2947-20.0386-16.9758-11.0789z"
        class="B F" />
    <g class="H">
        <path
            d="M186.8856 19.518c.136-2.3042 2.1802-4.0846 4.5773-3.9553l48.5008 2.4364c2.3967.1318 4.2505 2.0954 4.1133 4.4013l-3.5682 65.6386c-.1356 2.3055-2.1804 4.0869-4.5788 3.9553l-48.4995-2.4359c-2.3981-.1305-4.2505-2.0953-4.1147-4.4002l3.5698-65.6402z"
            class="D" />
        <g class="C">
            <path
                d="M213.1797 48.9067l.1896 3.4573h-3.5945l-.5736 6.5487 3.7872-.1826.1913 5.105-2.6433 3.6432h7.629l-2.1521-3.4589.1901-4.9241h5.3131l1.3091-6.7313h-6.241l.3823-3.2731-3.7872-.1842z"
                class="O" />
            <path
                d="M209.119 43.5098c0-3.3261 2.9704-5.9971 6.621-5.9971s6.6216 2.6983 6.6216 5.9971c0 3.3283-2.97 6.0009-6.6216 6.0009s-6.621-2.6726-6.621-6.0009zm9.0738 13.2014c0-3.3261 2.9696-5.9971 6.621-5.9971s6.6216 2.6983 6.6216 5.9971c0 3.3283-2.9706 6.0009-6.6216 6.0009-3.6514.0249-6.621-2.6726-6.621-6.0009zm-20.0538-.4715c0-3.3274 2.9696-5.9971 6.621-5.9971s6.6216 2.6983 6.6216 5.9971c0 3.3283-2.9706 6.0009-6.6216 6.0009s-6.621-2.6726-6.621-6.0009z"
                class="P" />
        </g>
    </g>
    <path d="M0 0h393.251v3.8557H0z" class="B C L" />
    <defs>
        <path id="B"
            d="M124.1628 102.943c.2177-.2866.4905-.5236 1.1167-1.0726l-.0273-.0249c-.9259.2075-2.2874.3139-3.5423-1.0234-1.5528-1.675-1.2799-3.5084.5177-5.0024 2.1258-1.7826 4.4693-.9443 6.621 1.3612l.7908.8383c.7622-.6557 1.9891-1.4672.9537-2.4881-.6262-.6293-1.6075-.1577-2.1258.2886l-2.3425-2.5149c1.2255-1.0746 2.397-1.1537 3.461-.7866 1.0894.3667 2.0427 1.205 2.7781 1.9901 1.3352 1.4433 2.2071 3.8263.2447 5.4765l-4.441 3.8229c-.3543.3139-.6811.7083-1.6343 1.6756l-2.3705-2.5403zm.382-2.7492c1.0886 1.1537 2.5067.104 3.6506-.8906-.5185-.5766-.9804-1.1263-1.5538-1.3089-.5989-.1835-1.1987-.2363-1.8249.2866-.5999.5517-.7356 1.3891-.2719 1.9129z" />
        <path id="C"
            d="M134.8981 101.3732l1.7705-2.0712 6.7575 5.3419-1.7703 2.0705-7.8755 1.3366 4.1964 3.3246-1.7711 2.0729-7.084-5.6096 1.7707-2.0667 7.8198-1.3612-3.814-3.0378z" />
        <path id="D"
            d="M158.0033 119.0241c-1.9072 3.6935-5.1225 4.1662-7.901 2.8299-2.7799-1.311-4.3057-4.0886-2.3988-7.7786s5.1233-4.1651 7.902-2.8288 4.3045 4.084 2.3978 7.7775zm-6.7577.6304c1.4177.6806 2.5893-.8682 3.3244-2.307s1.3086-3.2457-.1092-3.9263-2.588.8632-3.3231 2.3012c-.7095 1.4172-1.2813 3.2764.1079 3.9321z" />
        <path id="E"
            d="M166.2595 119.4717c.1367-.3684.1907-.7094.0814-.9711-.1088-.2867-.3545-.5229-.845-.6806-.5176-.1566-.9532.0785-1.1716.6806-.2723.7881 1.1716 1.2046 3.1341 2.6975.9811.7613 1.4716 1.7833.8717 3.5109-.9815 2.8031-3.5428 2.776-5.6947 2.0954-2.2888-.7342-4.3594-1.992-3.2153-5.2124l3.3512 1.0752c-.1634.286-.1905.6806-.0809 1.0209s.3264.6557.6811.7591c.6805.2116 1.3068.0792 1.5255-.5765.6542-1.8845-5.2857-2.5398-3.9515-6.391.9003-2.619 3.6248-2.5398 5.4771-1.9384 2.2344.7088 4.0598 2.0169 3.1889 5.0022l-3.352-1.0718z" />
        <path id="F"
            d="M171.9819 120.3349l.5446-2.619 8.5554 1.6758-.5449 2.6198-6.2957 4.7144 5.3147 1.0467-.5446 2.6219-8.9918-1.7563.5446-2.6178 6.213-4.7405-4.7953-.945z" />
        <path id="G"
            d="M184.324 119.7071l.1637-1.6766 3.8707-1.2578-.3285 3.2747 2.1534.1826-.2449 2.6726-2.1532-.1826-.4367 4.4239c-.0267.2905-.3252 1.7294.5446 1.7845.4909.0498 1.0087.0747 1.4449.0498l-.2449 2.5149c-.847.1067-1.4715.1067-2.0145.052-2.5359-.2346-4.0075-.7575-3.4899-4.1634l.4625-5.002-1.907-.1826.2457-2.6726 1.9341.1826z" />
        <path id="H"
            d="M203.1515 125.7585c.0824 4.1101-2.5068 5.9693-5.6125 6.0229-3.0793.0543-5.7762-1.6758-5.8855-5.8138-.0818-4.1138 2.534-5.9738 5.6132-6.0507 3.0787-.0249 5.7771 1.7264 5.8848 5.8416zm-5.6671 3.5872c1.5803-.0249 1.853-1.9392 1.8258-3.5109s-.4094-3.4544-1.9894-3.4279-1.8526 1.9348-1.8259 3.508.4095 3.4557 1.9895 3.4308zm.4907-10.7402l-2.3162.0536 1.9613-3.274 4.0883-.0792v.0543l-3.7334 3.2453z" />
        <path id="I"
            d="M217.2941 121.2524c-.0824-.3692-.2182-.6806-.4365-.8672-.2449-.2096-.5999-.2843-1.0896-.1826-.5457.1058-.7905.5243-.6263 1.1516.1902.8134 1.6617.4482 4.1407.7619 1.2545.1572 2.2346.7854 2.6436 2.5664.6814 2.8801-1.5534 4.1395-3.7599 4.61-2.3707.5239-4.7963.4706-5.5592-2.8566l3.4602-.7574c.0284.3403.1906.6806.4638.9151s.6266.3946.981.3133c.7085-.1556 1.1449-.5727 1.0084-1.2533-.4633-1.9401-5.8855.442-6.8121-3.486-.6269-2.6975 1.7435-3.9819 3.6507-4.399 2.2892-.498 4.5504-.2905 5.4229 2.6975l-3.4877.7863z" />
        <path id="J"
            d="M222.6606 119.1584l-.8984-2.5149 8.284-2.7253.8982 2.4862-2.9424 7.1546 5.1494-1.7031.9001 2.5149-8.6925 2.8817-.8981-2.5149 2.8598-7.1275-4.6601 1.5483z" />
        <path id="K"
            d="M242.7428 120.5955c-.2184-.2847-.3823-.5985-.7628-1.3339l-.0276.027c-.0539.9159-.3541 2.2008-2.0161 2.9835-2.1263.9702-3.8422.2109-4.8506-1.885-1.1991-2.4621.3002-4.3741 3.2153-5.7353l1.0634-.498c-.4363-.8881-.8998-2.2522-2.2349-1.5687-.7894.415-.5996 1.4359-.2995 2.0418l-3.1883 1.4654c-.7352-1.4156-.4903-2.5435.1909-3.4325.6815-.9146 1.7704-1.5687 2.7787-2.0169 1.7987-.8383 4.414-.996 5.5318 1.3114l2.5885 5.1875c.2188.415.4902.8383 1.2254 1.9631l-3.2142 1.4906zm-6.8128-11.1054l-2.0974.9702.3817-3.7719 3.7058-1.7023.0265.0278-2.0166 4.4762zm4.1423 9.9828c1.444-.681.8182-2.2813.1364-3.6176-.7086.3403-1.4172.6047-1.7441 1.0745-.3546.4975-.5721 1.0503-.218 1.7558.3813.7055 1.1987 1.0729 1.8257.7873z" />
        <path id="L"
            d="M246.9383 107.8143l.0263-.0268c-.3534-1.6489.3548-2.8267 1.5817-3.6395.9802-.6552 2.5359-.8383 3.6778.0519-.2446-1.4683.4092-2.8298 1.5811-3.6935 1.7434-1.1786 3.977-.758 5.4493 1.2577l4.4681 6.1293-3.0789 2.0675-3.9233-5.368c-.681-.8661-1.58-1.7039-2.5335-1.0736-1.5264 1.0209.0553 2.7761.1355 2.8801l3.8415 5.2388-3.0788 2.07-3.9234-5.3693c-.6799-.8649-1.58-1.7027-2.5341-1.0755-1.5262 1.0216.0553 2.7776.1366 2.8822l3.841 5.24-3.0787 2.0673-4.9588-6.8093-1.8248-2.2792 3.0234-2.0424 1.172 1.4923z" />
        <path id="M"
            d="M271.134 100.7178c-.3282-.1826-.5728-.4468-1.1723-.996l-.0264.0249c.2713.8646.4634 2.1746-.8175 3.46-1.6352 1.622-3.5425 1.4647-5.2326-.1836-1.9881-1.9138-1.2798-4.2164.9823-6.4456l.8172-.8102c-.7364-.6824-1.6622-1.8068-2.6446-.735-.5976.6557-.0528 1.5452.4649 2.0169l-2.4529 2.4381c-1.1989-1.1018-1.3624-2.2278-1.0352-3.2764.327-1.0718 1.1174-2.0418 1.8802-2.8026 1.3904-1.3889 3.8137-2.3835 5.6678-.6004l4.2763 4.0078c.3548.3403.7647.6001 1.8541 1.4384l-2.5613 2.4637zm-2.9152-.1826c1.1167-1.1025-.0552-2.4101-1.1722-3.4611-.5439.554-1.117 1.0233-1.2534 1.5749-.1636.6011-.1636 1.1786.4364 1.7285.5998.5741 1.4982.6557 1.9892.1577z" />
        <path id="N"
            d="M301.2973 191.3706c1.9604 0 4.6039-.0544 4.6039 2.9856 0 1.9151-1.4172 3.1684-3.2421 3.1684-2.3433 0-3.4062-1.7791-3.5153-3.9794h-3.8418c-.0817 4.6351 2.9432 7.3326 7.411 7.3326 3.8963 0 7.4118-2.3821 7.4118-6.6234 0-2.2567-1.3353-4.0889-3.5421-4.5861v-.0536c1.853-.5229 2.7786-2.2244 2.7786-4.1085 0-3.6188-3.5151-5.5821-6.7022-5.5821-4.1155 0-6.7573 2.8557-6.8937 6.9682h3.8421c-.027-2.0683 1.0625-3.615 3.0787-3.615 1.4709 0 2.8344.9673 2.8344 2.6697 0 2.3065-2.5074 2.6468-4.2519 2.5149v2.9087h.0286z" />
        <path id="O"
            d="M347.8626 101.2662h3.842v-4.6593h2.6423v-3.3797h-2.6423V81.098h-3.6252l-8.6641 11.7324v3.7476h8.4195v4.6882h.0278zm0-8.0673h-5.2321l5.1503-6.9919h.0818v6.9919z" />
        <path id="P"
            d="M54.7641 82.0671h-3.2153c-.4361 3.0921-3.0242 4.0616-5.831 4.006v3.095h5.0134v13.0945h4.0329V82.0671z" />
        <path id="Q"
            d="M93.838 187.1017c0-2.1239.7611-4.6367 3.16-4.6367 1.7431 0 2.9961 1.2051 2.9961 3.1178-.0257 2.49-2.425 3.7184-4.1961 4.9219-3.433 2.3577-6.2655 4.3492-6.294 9.0138h14.6323v-3.5109h-9.4285c1.4449-2.0683 3.788-3.2204 5.7504-4.6364s3.5685-3.0909 3.5685-6.1038c0-3.9537-3.1885-6.3125-6.8391-6.3125-4.7953 0-7.384 3.5366-7.2475 8.1468h3.8979z" />
        <path id="R"
            d="M237.0202 169.8145c.9813 2.7229 3.4601 2.9616 5.7226 2.3067 2.2067-.6562 4.1412-2.1751 3.2692-4.9013-.5997-1.9118-2.3164-2.0695-4.0057-1.9885-1.634.0767-3.188.3667-3.5153-.6549-.2719-.8383.5728-1.2317 1.1721-1.3869.954-.2897 1.8256-.2138 2.262.8635l2.534-.7352c-1.0084-2.488-3.2153-2.672-5.3408-2.0436-2.0705.6047-4.0049 1.9153-3.1601 4.558.5712 1.833 2.3152 1.9653 3.9505 1.8592 2.0436-.1278 3.2697-.1572 3.5151.7105.3253.9935-.5454 1.5956-1.3351 1.8308-1.0634.3139-2.18.1051-2.5898-1.1502l-2.4787.7319zm-10.7078-.0513c-.3271-1.7015-.0549-3.5101 1.7978-3.8248 1.8801-.3149 2.7528 1.3107 3.0517 3.0122s.0553 3.4827-1.7978 3.8255c-1.8802.3109-2.7526-1.3106-3.0517-3.0129zm-2.7516.4696c.6262 3.3816 3.0507 5.2665 6.1847 4.7428 3.161-.5236 4.7678-3.1188 4.1411-6.4974-.626-3.4037-3.052-5.2886-6.2121-4.74-3.1066.5236-4.741 3.0888-4.1137 6.4946zm-11.6083 6.521l2.7789-.2336-.3258-3.7184.9803-1.2062 3.215 4.5843 3.3515-.2893-4.8504-6.4677 3.4606-4.2725-3.2689.2644-3.1338 4.1658-.7356-7.9914-2.7795.2347 1.3077 14.9299zm-11.1715-6.31c.0273-.838.5447-2.3059 2.3165-2.3059 1.3627 0 1.9615.7873 2.2073 2.3059h-4.5238zm7.3026 1.8856c.1906-3.3278-1.4707-6.443-4.9326-6.443-3.0779 0-5.1755 2.4595-5.1755 5.7092 0 3.3526 1.9883 5.6829 5.1755 5.6829 2.29 0 3.9521-1.0986 4.7417-3.6384h-2.4517c-.164.6806-1.0902 1.4117-2.2068 1.4117-1.5533 0-2.3979-.8632-2.4799-2.748l7.3293.0256zm-1.553-10.4504h-3.0516l-1.908 2.9847h1.9348l3.0248-2.9847zm-12.5879.9696l-2.7789-.1313-.1637 3.2465-1.6899-.0774-.1089 1.9902 1.6889.0787-.3537 6.391c-.1091 2.1482 1.3627 2.6462 3.052 2.7229.5448.0262 1.1444.0262 1.634-.0254l.1366-2.3323c-.2989.0531-.5721.0531-.8718.0531-.926-.0531-1.1718-.3126-1.1169-1.3079l.2992-5.395 2.0437.1016.0821-1.9907-2.0436-.1029.1909-3.2211zm-13.9782 5.4973c.2183-1.1519.9538-1.5443 2.0154-1.4376.9818.1013 1.772.3664 1.6353 1.6495-.1362 1.2054-1.7162.9944-3.4324 1.0741-1.7437.077-3.5151.4973-3.7873 2.9317-.2458 2.201 1.1709 3.3792 3.0788 3.5906 1.2258.1293 2.5609-.1059 3.5426-.9952-.0281.3659.0271.7062.0813 1.0719l2.8065.2893c-.2187-.4719-.1911-1.4417-.0819-2.4366l.5997-5.6054c.2718-2.5918-2.0717-3.3011-4.0871-3.5104-2.2619-.2341-4.6599.3665-5.123 3.1191l2.7521.259zm3.2699 3.6681c-.0821.6557-.3548 2.4639-2.5068 2.2536-.8989-.079-1.6628-.4449-1.5531-1.5476.1096-1.0712.926-1.3086 1.7979-1.4115.8723-.0807 1.8519 0 2.3704-.3941l-.1084 1.0996zm2.9151-10.7397l-3.0513-.3141-2.2074 2.778 1.9335.2082 3.3252-2.6721zm-11.2805-1.1524l-2.7518-.4706-.4352 2.411 2.7515.4719.4355-2.4123zm-7.7657 17.6541l.8726.2382c2.7519.4723 3.7061-.447 4.114-2.6216l2.0434-11.2105-2.7514-.4696-2.0165 11.0521c-.137.8119-.6812.866-1.2263.7603-.2172-.0256-.4088-.1061-.5723-.1833l-.4635 2.4344zm-15.1492-15.6888c.4904-1.0729 1.3078-1.3109 2.2889-.9706.9264.3154 1.6353.7367 1.1989 1.941-.4081 1.1529-1.9067.6006-3.5961.3146-1.7165-.3146-3.5427-.289-4.3869 2.0169-.7634 2.0936.3535 3.5361 2.1528 4.1367 1.1711.3951 2.5053.4464 3.6776-.2093-.1083.3403-.1356.706-.1636 1.0463l2.6708.8919c-.0817-.4962.1358-1.4658.4903-2.3841l1.907-5.315c.8719-2.4639-1.2528-3.6679-3.16-4.2982-2.1526-.706-4.6326-.6544-5.7223 1.941l2.6426.8888zm2.3433 4.2685c-.2177.6036-.9258 2.3305-2.9695 1.6499-.8445-.2849-1.526-.7857-1.1447-1.833.3815-1.0222 1.2261-1.0725 2.098-.9955.8725.1056 1.7985.3949 2.3985.131l-.3823 1.0476zm79.2616 13.5682l-2.696.6811.6531 2.3572 2.6973-.6806-.6544-2.3577zm1.3351 15.1397l2.6983-.6806-2.9151-10.4502-2.6983.6806 2.9151 10.4502zm-13.4052-4.8721c-.108-1.1786.4909-1.7269 1.526-1.9095.9535-.1577 1.826-.1074 2.0428 1.1525.2196 1.204-1.3614 1.3873-2.9957 1.9623-1.6622.5523-3.2422 1.4158-2.8071 3.824.4092 2.1746 2.0977 2.9342 3.9779 2.6213 1.2265-.2374 2.4253-.8126 3.1338-1.9153.0815.3421.2176.6824.381.996l2.7801-.4703c-.3271-.3934-.6-1.3353-.7903-2.3031l-1.0086-5.5532c-.4634-2.5689-2.9422-2.6216-4.9315-2.2808-2.2347.3665-4.3868 1.5999-4.0328 4.3741l2.7244-.498zm4.1965 2.6472c.1091.6293.3816 2.4636-1.7705 2.8296-.9.1572-1.7177.0256-1.9351-1.0765-.1909-1.0725.5173-1.5189 1.3351-1.8328s1.7708-.498 2.1526-.9944l.2179 1.0741zm-26.7293 7.2293l2.7793-.1826-.4637-6.2604c-.1635-2.1226 1.1446-2.5685 1.6893-2.6206 1.7717-.105 1.799 1.3363 1.88 2.5919l.436 6.0507 2.7792-.1831-.4352-6.0243c-.1096-1.3616.0804-2.7501 1.6613-2.8524s1.7988 1.0729 1.9083 2.5121l.4354 6.1304 2.7796-.1826-.5189-7.23c-.2175-2.8042-1.8249-3.7735-3.9775-3.6163-1.4169.1061-2.3978 1.0214-2.9153 1.9907-.6539-1.2545-1.8255-1.6766-3.0785-1.5953-1.3086.0764-2.3164.8096-2.9704 1.9629l-.1367-1.4649-2.6152.1831.763 10.7907zm-11.5533-8.3034c.2185-1.1515.9537-1.5469 2.0164-1.4408.9808.1064 1.7712.3657 1.6352 1.651-.1364 1.2042-1.7164.9952-3.4331 1.0981-1.7445.08-3.5153.4967-3.7877 2.9357-.2447 2.1995 1.1711 3.3788 3.0797 3.5868 1.226.1323 2.5611-.1051 3.5412-.996-.0271.367.028.7073.082 1.0745l2.806.2867c-.2176-.4703-.1907-1.4379-.0814-2.4331l.5989-5.6068c.2733-2.5929-2.0702-3.2984-4.0866-3.5093-2.2613-.2368-4.6861.3679-5.1225 3.1164l2.7519.2368zm3.2704 3.6655c-.0832.6544-.354 2.4633-2.5076 2.2546-.8984-.08-1.6616-.4465-1.5523-1.5448.1083-1.0763.9259-1.3099 1.7972-1.4166.8723-.0764 1.8535 0 2.3708-.3913l-.1081 1.0981zm2.9153-10.7103l-3.052-.3146-2.18 2.7747 1.9342.21 3.2978-2.6701zm-24.3601 12.0199l9.1829 1.5456.4086-2.2008-5.5579-.9399 6.3479-5.3698.4092-2.2005-8.4198-1.4166-.4082 2.1995 4.8224.8134-6.3484 5.3696-.4367 2.1995zm-13.0778-6.8349c-.6541 2.8016 1.3077 4.2702 3.5692 4.8701 2.2336.5787 4.7133.2633 5.4775-2.4855.5447-1.9402-.8178-2.9362-2.2896-3.7219-1.4163-.7835-2.9151-1.3076-2.6152-2.3288.2449-.8383 1.1711-.7354 1.7706-.5777.9542.2374 1.6896.7606 1.4447 1.8852l2.5606.6546c.5183-2.617-1.2535-3.9023-3.3781-4.4506-2.0985-.5512-4.4412-.4215-5.2046 2.2511-.5181 1.833.8716 2.829 2.3164 3.5906 1.7976.9399 2.8329 1.5446 2.588 2.4085-.2727 1.0209-1.3625 1.0725-2.1256.8886-1.0624-.2593-1.9072-1.0209-1.58-2.3018l-2.5339-.6824z" />
        <path id="S"
            d="M300.8068 305.4401l-67.2472-15.5836c-3.841 4.7936-5.9669 10.0567-5.9669 15.5836s2.1259 10.7922 5.9669 15.5874l67.2472-15.5874z" />
        <path id="T"
            d="M300.8065 305.4401l67.2459 15.5874c3.8431-4.7952 5.9682-10.0596 5.9682-15.5874s-2.1251-10.79-5.9682-15.5836l-67.2459 15.5836z" />
        <path id="U"
            d="M232.2536 321.8651s17.3563 19.1194 39.4253 23.3363l-.2446-1.2289v12.5459c-9.5083-1.2051-30.7902-8.3544-40.2994-24.4896l1.1187-10.1637z" />
        <path id="V"
            d="M368.652 321.8651s-17.3297 19.1194-39.4271 23.3363l.2717-1.2289v12.5459c9.5108-1.2051 30.7626-8.3544 40.2979-24.4896l-1.1425-10.1637z" />
        <path id="W"
            d="M300.8066 317.7537c26.4571 0 47.9273-11.4755 47.9273-25.6441 0-14.1432-21.4702-25.6432-47.9273-25.6432s-47.9285 11.4751-47.9285 25.6432 21.4714 25.6441 47.9285 25.6441z" />
        <path id="X"
            d="M300.8069 323.2249c40.8149 0 73.9206-21.4766 73.9206-43.3214s-33.1057-39.5254-73.9206-39.5254-73.9225 17.7084-73.9225 39.5254 33.1041 43.3214 73.9225 43.3214z" />
    </defs>
</svg>