<svg width="392" height="374.576" xmlns="http://www.w3.org/2000/svg">

    <g>
        <title>Layer 1</title>
        <path id="svg_1" fill="#209740"
            d="m388.354,1.8049l0,109.9751c0,85.413 -84.08,143.366 -190.81,143.366c-106.7307,0 -191.81606,-59.957 -191.81606,-145.37l-0.08158,-107.9711l382.70764,0z"
            clip-rule="evenodd" fill-rule="evenodd" />
        <path id="svg_2" fill="#C4000C"
            d="m296.183,1.19937l0,66.24463c0,40.143 -46.716,80.423 -101.472,80.423c-54.756,0 -97.3434,-40.28 -97.3434,-80.423l-0.0543,-66.24463l198.8697,0z"
            clip-rule="evenodd" fill-rule="evenodd" />
        <path id="svg_3" stroke-miterlimit="3.8637" stroke-width="1.6507" stroke="black"
            d="m296.237,1.19937l-0.054,66.24463c0,40.143 -46.716,80.423 -101.472,80.423c-54.756,0 -97.3434,-40.28 -97.3434,-80.423l-0.0543,-66.24463" />
        <path id="svg_4" stroke-linejoin="round" stroke-linecap="round" stroke-miterlimit="3.8637"
            stroke-width="1.25" stroke="white"
            d="m123.768,106.745c0.217,-0.298 0.489,-0.543 1.113,-1.113l-0.027,-0.027c-0.923,0.217 -2.281,0.326 -3.531,-1.06c-1.548,-1.738 -1.276,-3.639 0.516,-5.1873c2.119,-1.8469 4.455,-0.9777 6.6,1.4123l0.788,0.869c0.76,-0.679 1.983,-1.521 0.951,-2.58c-0.625,-0.6519 -1.603,-0.163 -2.119,0.2987l-2.336,-2.6074c1.222,-1.1136 2.39,-1.195 3.45,-0.8148c1.086,0.3803 2.037,1.2494 2.77,2.0642c1.331,1.4938 2.2,3.9653 0.244,5.6763l-4.427,3.966c-0.353,0.326 -0.679,0.733 -1.629,1.738l-2.363,-2.635zm0.38,-2.851c1.086,1.195 2.499,0.108 3.639,-0.924c-0.516,-0.597 -0.977,-1.168 -1.548,-1.358c-0.597,-0.19 -1.195,-0.244 -1.819,0.299c-0.598,0.57 -0.734,1.439 -0.272,1.983z" />
        <path id="svg_5" stroke-linejoin="round" stroke-linecap="round" stroke-miterlimit="3.8637"
            stroke-width="1.25" stroke="white"
            d="m134.469,105.116l1.765,-2.146l6.736,5.541l-1.765,2.145l-7.85,1.386l4.183,3.449l-1.765,2.146l-7.062,-5.813l1.765,-2.145l7.795,-1.413l-3.802,-3.15z" />
        <path id="svg_6" stroke-linejoin="round" stroke-linecap="round" stroke-miterlimit="3.8637"
            stroke-width="1.25" stroke="white"
            d="m157.501,123.422c-1.901,3.83 -5.106,4.318 -7.876,2.933c-2.771,-1.358 -4.292,-4.237 -2.391,-8.066c1.902,-3.83 5.107,-4.319 7.877,-2.934c2.77,1.385 4.291,4.237 2.39,8.067zm-6.736,0.652c1.413,0.706 2.581,-0.897 3.314,-2.39c0.733,-1.494 1.304,-3.368 -0.109,-4.074c-1.412,-0.707 -2.58,0.896 -3.313,2.39c-0.707,1.466 -1.277,3.395 0.108,4.074z" />
        <path id="svg_7" stroke-linejoin="round" stroke-linecap="round" stroke-miterlimit="3.8637"
            stroke-width="1.25" stroke="white"
            d="m165.731,123.884c0.136,-0.381 0.19,-0.734 0.081,-1.005c-0.108,-0.299 -0.353,-0.543 -0.842,-0.706c-0.516,-0.163 -0.95,0.081 -1.168,0.706c-0.271,0.815 1.168,1.249 3.124,2.797c0.978,0.788 1.467,1.847 0.869,3.64c-0.978,2.906 -3.531,2.879 -5.677,2.173c-2.281,-0.761 -4.345,-2.065 -3.205,-5.405l3.341,1.113c-0.163,0.299 -0.19,0.706 -0.081,1.06c0.108,0.353 0.326,0.679 0.679,0.787c0.679,0.218 1.303,0.082 1.521,-0.597c0.652,-1.956 -5.269,-2.635 -3.939,-6.627c0.897,-2.717 3.613,-2.635 5.46,-2.01c2.227,0.733 4.047,2.091 3.178,5.187l-3.341,-1.113z" />
        <path id="svg_8" stroke-linejoin="round" stroke-linecap="round" stroke-miterlimit="3.8637"
            stroke-width="1.25" stroke="white"
            d="m171.435,124.78l0.543,-2.716l8.528,1.738l-0.543,2.716l-6.274,4.889l5.296,1.087l-0.543,2.716l-8.963,-1.82l0.543,-2.716l6.193,-4.916l-4.78,-0.978z" />
        <path id="svg_9" stroke-linejoin="round" stroke-linecap="round" stroke-miterlimit="3.8637"
            stroke-width="1.25" stroke="white"
            d="m183.738,124.128l0.163,-1.738l3.857,-1.304l-0.326,3.395l2.146,0.19l-0.245,2.771l-2.145,-0.19l-0.435,4.59c-0.027,0.299 -0.326,1.792 0.543,1.847c0.489,0.054 1.005,0.081 1.44,0.054l-0.245,2.607c-0.842,0.109 -1.466,0.109 -2.009,0.055c-2.526,-0.245 -3.993,-0.788 -3.477,-4.319l0.462,-5.187l-1.902,-0.191l0.245,-2.77l1.928,0.19z" />
        <path id="svg_10" stroke-linejoin="round" stroke-linecap="round" stroke-miterlimit="3.8637"
            stroke-width="1.25" stroke="white"
            d="m202.506,130.402c0.082,4.265 -2.499,6.193 -5.595,6.247c-3.069,0.055 -5.758,-1.738 -5.867,-6.029c-0.081,-4.265 2.526,-6.193 5.596,-6.274c3.069,-0.028 5.758,1.792 5.866,6.056zm-5.649,3.721c1.575,-0.027 1.847,-2.01 1.82,-3.639c-0.028,-1.63 -0.408,-3.585 -1.983,-3.558c-1.575,0.027 -1.847,2.01 -1.82,3.639c0.027,1.63 0.408,3.586 1.983,3.558zm0.489,-11.135l-2.309,0.054l1.956,-3.395l4.074,-0.082l0,0.055l-3.721,3.368z" />
        <path id="svg_11" stroke-linejoin="round" stroke-linecap="round" stroke-miterlimit="3.8637"
            stroke-width="1.25" stroke="white"
            d="m216.603,125.731c-0.082,-0.381 -0.218,-0.706 -0.435,-0.897c-0.244,-0.217 -0.598,-0.298 -1.086,-0.19c-0.544,0.109 -0.788,0.543 -0.625,1.195c0.19,0.842 1.657,0.462 4.128,0.788c1.25,0.163 2.227,0.815 2.635,2.662c0.679,2.987 -1.548,4.291 -3.748,4.78c-2.363,0.543 -4.781,0.489 -5.541,-2.961l3.449,-0.787c0.028,0.353 0.19,0.706 0.462,0.95c0.272,0.245 0.625,0.408 0.978,0.326c0.706,-0.163 1.141,-0.597 1.005,-1.303c-0.462,-2.01 -5.867,0.461 -6.79,-3.613c-0.625,-2.797 1.738,-4.128 3.639,-4.563c2.282,-0.516 4.536,-0.298 5.405,2.798l-3.476,0.815z" />
        <path id="svg_12" stroke-linejoin="round" stroke-linecap="round" stroke-miterlimit="3.8637"
            stroke-width="1.25" stroke="white"
            d="m221.953,123.558l-0.896,-2.608l8.257,-2.824l0.896,2.58l-2.933,7.415l5.133,-1.766l0.896,2.608l-8.664,2.987l-0.896,-2.607l2.852,-7.388l-4.645,1.603z" />
        <path id="svg_13" stroke-linejoin="round" stroke-linecap="round" stroke-miterlimit="3.8637"
            stroke-width="1.25" stroke="white"
            d="m241.971,125.052c-0.218,-0.299 -0.381,-0.625 -0.761,-1.385l-0.027,0.027c-0.054,0.95 -0.353,2.281 -2.01,3.096c-2.119,1.005 -3.83,0.217 -4.835,-1.956c-1.195,-2.553 0.299,-4.535 3.205,-5.948l1.06,-0.516c-0.435,-0.923 -0.897,-2.336 -2.228,-1.629c-0.787,0.434 -0.597,1.493 -0.298,2.118l-3.178,1.521c-0.733,-1.467 -0.489,-2.635 0.19,-3.558c0.679,-0.951 1.765,-1.63 2.77,-2.091c1.793,-0.869 4.4,-1.032 5.514,1.358l2.58,5.377c0.218,0.435 0.489,0.87 1.222,2.038l-3.204,1.548zm-6.791,-11.516l-2.091,1.005l0.38,-3.912l3.694,-1.765l0.027,0.027l-2.01,4.645zm4.129,10.348c1.439,-0.706 0.815,-2.363 0.136,-3.748c-0.707,0.353 -1.413,0.624 -1.739,1.113c-0.353,0.516 -0.57,1.087 -0.217,1.82c0.38,0.733 1.195,1.114 1.82,0.815z" />
        <path id="svg_14" stroke-linejoin="round" stroke-linecap="round" stroke-miterlimit="3.8637"
            stroke-width="1.25" stroke="white"
            d="m246.153,111.797l0.027,-0.027c-0.353,-1.711 0.353,-2.933 1.576,-3.775c0.977,-0.679 2.526,-0.869 3.666,0.054c-0.244,-1.521 0.408,-2.933 1.576,-3.83c1.738,-1.222 3.965,-0.787 5.432,1.304l4.454,6.356l-3.069,2.145l-3.911,-5.567c-0.679,-0.897 -1.575,-1.766 -2.526,-1.114c-1.521,1.059 0.054,2.879 0.136,2.988l3.829,5.432l-3.069,2.145l-3.911,-5.568c-0.679,-0.896 -1.575,-1.765 -2.526,-1.113c-1.521,1.059 0.055,2.879 0.136,2.988l3.83,5.432l-3.07,2.145l-4.943,-7.061c-0.597,-0.842 -1.005,-1.413 -1.819,-2.363l3.014,-2.119l1.168,1.548z" />
        <path id="svg_15" stroke-linejoin="round" stroke-linecap="round" stroke-miterlimit="3.8637"
            stroke-width="1.25" stroke="white"
            d="m270.272,104.437c-0.326,-0.19 -0.57,-0.462 -1.168,-1.032l-0.027,0.027c0.271,0.896 0.462,2.254 -0.815,3.585c-1.63,1.684 -3.531,1.521 -5.215,-0.19c-1.983,-1.983 -1.276,-4.373 0.978,-6.682l0.815,-0.8416c-0.734,-0.7062 -1.657,-1.8741 -2.635,-0.7605c-0.597,0.679 -0.054,1.6021 0.462,2.0911l-2.445,2.526c-1.195,-1.141 -1.358,-2.308 -1.032,-3.3949c0.326,-1.1136 1.114,-2.1185 1.874,-2.9062c1.386,-1.4395 3.803,-2.4716 5.65,-0.6247l4.264,4.1558c0.353,0.353 0.761,0.624 1.847,1.494l-2.553,2.553zm-2.906,-0.19c1.113,-1.141 -0.055,-2.499 -1.168,-3.586c-0.543,0.571 -1.114,1.06 -1.25,1.63c-0.163,0.625 -0.163,1.222 0.435,1.793c0.598,0.597 1.494,0.679 1.983,0.163z" />
        <path id="svg_16" stroke-linejoin="round" stroke-linecap="round" stroke-miterlimit="3.8637"
            stroke-width="2.5" stroke="black"
            d="m123.768,106.745c0.217,-0.298 0.489,-0.543 1.113,-1.113l-0.027,-0.027c-0.923,0.217 -2.281,0.326 -3.531,-1.06c-1.548,-1.738 -1.276,-3.639 0.516,-5.1873c2.119,-1.8469 4.455,-0.9777 6.6,1.4123l0.788,0.869c0.76,-0.679 1.983,-1.521 0.951,-2.58c-0.625,-0.6519 -1.603,-0.163 -2.119,0.2987l-2.336,-2.6074c1.222,-1.1136 2.39,-1.195 3.45,-0.8148c1.086,0.3803 2.037,1.2494 2.77,2.0642c1.331,1.4938 2.2,3.9653 0.244,5.6763l-4.427,3.966c-0.353,0.326 -0.679,0.733 -1.629,1.738l-2.363,-2.635zm0.38,-2.851c1.086,1.195 2.499,0.108 3.639,-0.924c-0.516,-0.597 -0.977,-1.168 -1.548,-1.358c-0.597,-0.19 -1.195,-0.244 -1.819,0.299c-0.598,0.57 -0.734,1.439 -0.272,1.983z" />
        <path id="svg_17" stroke-linejoin="round" stroke-linecap="round" stroke-miterlimit="3.8637"
            stroke-width="2.5" stroke="black"
            d="m134.469,105.116l1.765,-2.146l6.736,5.541l-1.765,2.145l-7.85,1.386l4.183,3.449l-1.765,2.146l-7.062,-5.813l1.765,-2.145l7.795,-1.413l-3.802,-3.15z" />
        <path id="svg_18" stroke-linejoin="round" stroke-linecap="round" stroke-miterlimit="3.8637"
            stroke-width="2.5" stroke="black"
            d="m157.501,123.422c-1.901,3.83 -5.106,4.318 -7.876,2.933c-2.771,-1.358 -4.292,-4.237 -2.391,-8.066c1.902,-3.83 5.107,-4.319 7.877,-2.934c2.77,1.385 4.291,4.237 2.39,8.067zm-6.736,0.652c1.413,0.706 2.581,-0.897 3.314,-2.39c0.733,-1.494 1.304,-3.368 -0.109,-4.074c-1.412,-0.707 -2.58,0.896 -3.313,2.39c-0.707,1.466 -1.277,3.395 0.108,4.074z" />
        <path id="svg_19" stroke-linejoin="round" stroke-linecap="round" stroke-miterlimit="3.8637"
            stroke-width="2.5" stroke="black"
            d="m165.731,123.884c0.136,-0.381 0.19,-0.734 0.081,-1.005c-0.108,-0.299 -0.353,-0.543 -0.842,-0.706c-0.516,-0.163 -0.95,0.081 -1.168,0.706c-0.271,0.815 1.168,1.249 3.124,2.797c0.978,0.788 1.467,1.847 0.869,3.64c-0.978,2.906 -3.531,2.879 -5.677,2.173c-2.281,-0.761 -4.345,-2.065 -3.205,-5.405l3.341,1.113c-0.163,0.299 -0.19,0.706 -0.081,1.06c0.108,0.353 0.326,0.679 0.679,0.787c0.679,0.218 1.303,0.082 1.521,-0.597c0.652,-1.956 -5.269,-2.635 -3.939,-6.627c0.897,-2.717 3.613,-2.635 5.46,-2.01c2.227,0.733 4.047,2.091 3.178,5.187l-3.341,-1.113z" />
        <path id="svg_20" stroke-linejoin="round" stroke-linecap="round" stroke-miterlimit="3.8637"
            stroke-width="2.5" stroke="black"
            d="m171.435,124.78l0.543,-2.716l8.528,1.738l-0.543,2.716l-6.274,4.889l5.296,1.087l-0.543,2.716l-8.963,-1.82l0.543,-2.716l6.193,-4.916l-4.78,-0.978z" />
        <path id="svg_21" stroke-linejoin="round" stroke-linecap="round" stroke-miterlimit="3.8637"
            stroke-width="2.5" stroke="black"
            d="m183.738,124.128l0.163,-1.738l3.857,-1.304l-0.326,3.395l2.146,0.19l-0.245,2.771l-2.145,-0.19l-0.435,4.59c-0.027,0.299 -0.326,1.792 0.543,1.847c0.489,0.054 1.005,0.081 1.44,0.054l-0.245,2.607c-0.842,0.109 -1.466,0.109 -2.009,0.055c-2.526,-0.245 -3.993,-0.788 -3.477,-4.319l0.462,-5.187l-1.902,-0.191l0.245,-2.77l1.928,0.19z" />
        <path id="svg_22" stroke-linejoin="round" stroke-linecap="round" stroke-miterlimit="3.8637"
            stroke-width="2.5" stroke="black"
            d="m202.506,130.402c0.082,4.265 -2.499,6.193 -5.595,6.247c-3.069,0.055 -5.758,-1.738 -5.867,-6.029c-0.081,-4.265 2.526,-6.193 5.596,-6.274c3.069,-0.028 5.758,1.792 5.866,6.056zm-5.649,3.721c1.575,-0.027 1.847,-2.01 1.82,-3.639c-0.028,-1.63 -0.408,-3.585 -1.983,-3.558c-1.575,0.027 -1.847,2.01 -1.82,3.639c0.027,1.63 0.408,3.586 1.983,3.558zm0.489,-11.135l-2.309,0.054l1.956,-3.395l4.074,-0.082l0,0.055l-3.721,3.368z" />
        <path id="svg_23" stroke-linejoin="round" stroke-linecap="round" stroke-miterlimit="3.8637"
            stroke-width="2.5" stroke="black"
            d="m216.603,125.731c-0.082,-0.381 -0.218,-0.706 -0.435,-0.897c-0.244,-0.217 -0.598,-0.298 -1.086,-0.19c-0.544,0.109 -0.788,0.543 -0.625,1.195c0.19,0.842 1.657,0.462 4.128,0.788c1.25,0.163 2.227,0.815 2.635,2.662c0.679,2.987 -1.548,4.291 -3.748,4.78c-2.363,0.543 -4.781,0.489 -5.541,-2.961l3.449,-0.787c0.028,0.353 0.19,0.706 0.462,0.95c0.272,0.245 0.625,0.408 0.978,0.326c0.706,-0.163 1.141,-0.597 1.005,-1.303c-0.462,-2.01 -5.867,0.461 -6.79,-3.613c-0.625,-2.797 1.738,-4.128 3.639,-4.563c2.282,-0.516 4.536,-0.298 5.405,2.798l-3.476,0.815z" />
        <path id="svg_24" stroke-linejoin="round" stroke-linecap="round" stroke-miterlimit="3.8637"
            stroke-width="2.5" stroke="black"
            d="m221.953,123.558l-0.896,-2.608l8.257,-2.824l0.896,2.58l-2.933,7.415l5.133,-1.766l0.896,2.608l-8.664,2.987l-0.896,-2.607l2.852,-7.388l-4.645,1.603z" />
        <path id="svg_25" stroke-linejoin="round" stroke-linecap="round" stroke-miterlimit="3.8637"
            stroke-width="2.5" stroke="black"
            d="m241.971,125.052c-0.218,-0.299 -0.381,-0.625 -0.761,-1.385l-0.027,0.027c-0.054,0.95 -0.353,2.281 -2.01,3.096c-2.119,1.005 -3.83,0.217 -4.835,-1.956c-1.195,-2.553 0.299,-4.535 3.205,-5.948l1.06,-0.516c-0.435,-0.923 -0.897,-2.336 -2.228,-1.629c-0.787,0.434 -0.597,1.493 -0.298,2.118l-3.178,1.521c-0.733,-1.467 -0.489,-2.635 0.19,-3.558c0.679,-0.951 1.765,-1.63 2.77,-2.091c1.793,-0.869 4.4,-1.032 5.514,1.358l2.58,5.377c0.218,0.435 0.489,0.87 1.222,2.038l-3.204,1.548zm-6.791,-11.516l-2.091,1.005l0.38,-3.912l3.694,-1.765l0.027,0.027l-2.01,4.645zm4.129,10.348c1.439,-0.706 0.815,-2.363 0.136,-3.748c-0.707,0.353 -1.413,0.624 -1.739,1.113c-0.353,0.516 -0.57,1.087 -0.217,1.82c0.38,0.733 1.195,1.114 1.82,0.815z" />
        <path id="svg_26" stroke-linejoin="round" stroke-linecap="round" stroke-miterlimit="3.8637"
            stroke-width="2.5" stroke="black"
            d="m246.153,111.797l0.027,-0.027c-0.353,-1.711 0.353,-2.933 1.576,-3.775c0.977,-0.679 2.526,-0.869 3.666,0.054c-0.244,-1.521 0.408,-2.933 1.576,-3.83c1.738,-1.222 3.965,-0.787 5.432,1.304l4.454,6.356l-3.069,2.145l-3.911,-5.567c-0.679,-0.897 -1.575,-1.766 -2.526,-1.114c-1.521,1.059 0.054,2.879 0.136,2.988l3.829,5.432l-3.069,2.145l-3.911,-5.568c-0.679,-0.896 -1.575,-1.765 -2.526,-1.113c-1.521,1.059 0.055,2.879 0.136,2.988l3.83,5.432l-3.07,2.145l-4.943,-7.061c-0.597,-0.842 -1.005,-1.413 -1.819,-2.363l3.014,-2.119l1.168,1.548z" />
        <path id="svg_27" stroke-linejoin="round" stroke-linecap="round" stroke-miterlimit="3.8637"
            stroke-width="2.5" stroke="black"
            d="m270.272,104.437c-0.326,-0.19 -0.57,-0.462 -1.168,-1.032l-0.027,0.027c0.271,0.896 0.462,2.254 -0.815,3.585c-1.63,1.684 -3.531,1.521 -5.215,-0.19c-1.983,-1.983 -1.276,-4.373 0.978,-6.682l0.815,-0.8416c-0.734,-0.7062 -1.657,-1.8741 -2.635,-0.7605c-0.597,0.679 -0.054,1.6021 0.462,2.0911l-2.445,2.526c-1.195,-1.141 -1.358,-2.308 -1.032,-3.3949c0.326,-1.1136 1.114,-2.1185 1.874,-2.9062c1.386,-1.4395 3.803,-2.4716 5.65,-0.6247l4.264,4.1558c0.353,0.353 0.761,0.624 1.847,1.494l-2.553,2.553zm-2.906,-0.19c1.113,-1.141 -0.055,-2.499 -1.168,-3.586c-0.543,0.571 -1.114,1.06 -1.25,1.63c-0.163,0.625 -0.163,1.222 0.435,1.793c0.598,0.597 1.494,0.679 1.983,0.163z" />
        <path id="svg_28" fill="white"
            d="m123.768,106.745c0.217,-0.298 0.489,-0.543 1.113,-1.113l-0.027,-0.027c-0.923,0.217 -2.281,0.326 -3.531,-1.06c-1.548,-1.738 -1.276,-3.639 0.516,-5.1873c2.119,-1.8469 4.455,-0.9777 6.6,1.4123l0.788,0.869c0.76,-0.679 1.983,-1.521 0.951,-2.58c-0.625,-0.6519 -1.603,-0.163 -2.119,0.2987l-2.336,-2.6074c1.222,-1.1136 2.39,-1.195 3.45,-0.8148c1.086,0.3803 2.037,1.2494 2.77,2.0642c1.331,1.4938 2.2,3.9653 0.244,5.6763l-4.427,3.966c-0.353,0.326 -0.679,0.733 -1.629,1.738l-2.363,-2.635zm0.38,-2.851c1.086,1.195 2.499,0.108 3.639,-0.924c-0.516,-0.597 -0.977,-1.168 -1.548,-1.358c-0.597,-0.19 -1.195,-0.244 -1.819,0.299c-0.598,0.57 -0.734,1.439 -0.272,1.983z" />
        <path id="svg_29" fill="white"
            d="m134.469,105.116l1.765,-2.146l6.736,5.541l-1.765,2.145l-7.85,1.386l4.183,3.449l-1.765,2.146l-7.062,-5.813l1.765,-2.145l7.795,-1.413l-3.802,-3.15z" />
        <path id="svg_30" fill="white"
            d="m157.501,123.422c-1.901,3.83 -5.106,4.318 -7.876,2.933c-2.771,-1.358 -4.292,-4.237 -2.391,-8.066c1.902,-3.83 5.107,-4.319 7.877,-2.934c2.77,1.385 4.291,4.237 2.39,8.067zm-6.736,0.652c1.413,0.706 2.581,-0.897 3.314,-2.39c0.733,-1.494 1.304,-3.368 -0.109,-4.074c-1.412,-0.707 -2.58,0.896 -3.313,2.39c-0.707,1.466 -1.277,3.395 0.108,4.074z" />
        <path id="svg_31" fill="white"
            d="m165.731,123.884c0.136,-0.381 0.19,-0.734 0.081,-1.005c-0.108,-0.299 -0.353,-0.543 -0.842,-0.706c-0.516,-0.163 -0.95,0.081 -1.168,0.706c-0.271,0.815 1.168,1.249 3.124,2.797c0.978,0.788 1.467,1.847 0.869,3.64c-0.978,2.906 -3.531,2.879 -5.677,2.173c-2.281,-0.761 -4.345,-2.065 -3.205,-5.405l3.341,1.113c-0.163,0.299 -0.19,0.706 -0.081,1.06c0.108,0.353 0.326,0.679 0.679,0.787c0.679,0.218 1.303,0.082 1.521,-0.597c0.652,-1.956 -5.269,-2.635 -3.939,-6.627c0.897,-2.717 3.613,-2.635 5.46,-2.01c2.227,0.733 4.047,2.091 3.178,5.187l-3.341,-1.113z" />
        <path id="svg_32" fill="white"
            d="m171.435,124.78l0.543,-2.716l8.528,1.738l-0.543,2.716l-6.274,4.889l5.296,1.087l-0.543,2.716l-8.963,-1.82l0.543,-2.716l6.193,-4.916l-4.78,-0.978z" />
        <path id="svg_33" fill="white"
            d="m183.738,124.128l0.163,-1.738l3.857,-1.304l-0.326,3.395l2.146,0.19l-0.245,2.771l-2.145,-0.19l-0.435,4.59c-0.027,0.299 -0.326,1.792 0.543,1.847c0.489,0.054 1.005,0.081 1.44,0.054l-0.245,2.607c-0.842,0.109 -1.466,0.109 -2.009,0.055c-2.526,-0.245 -3.993,-0.788 -3.477,-4.319l0.462,-5.187l-1.902,-0.191l0.245,-2.77l1.928,0.19z" />
        <path id="svg_34" fill="white"
            d="m202.506,130.402c0.082,4.265 -2.499,6.193 -5.595,6.247c-3.069,0.055 -5.758,-1.738 -5.867,-6.029c-0.081,-4.265 2.526,-6.193 5.596,-6.274c3.069,-0.028 5.758,1.792 5.866,6.056zm-5.649,3.721c1.575,-0.027 1.847,-2.01 1.82,-3.639c-0.028,-1.63 -0.408,-3.585 -1.983,-3.558c-1.575,0.027 -1.847,2.01 -1.82,3.639c0.027,1.63 0.408,3.586 1.983,3.558zm0.489,-11.135l-2.309,0.054l1.956,-3.395l4.074,-0.082l0,0.055l-3.721,3.368z" />
        <path id="svg_35" fill="white"
            d="m216.603,125.731c-0.082,-0.381 -0.218,-0.706 -0.435,-0.897c-0.244,-0.217 -0.598,-0.298 -1.086,-0.19c-0.544,0.109 -0.788,0.543 -0.625,1.195c0.19,0.842 1.657,0.462 4.128,0.788c1.25,0.163 2.227,0.815 2.635,2.662c0.679,2.987 -1.548,4.291 -3.748,4.78c-2.363,0.543 -4.781,0.489 -5.541,-2.961l3.449,-0.787c0.028,0.353 0.19,0.706 0.462,0.95c0.272,0.245 0.625,0.408 0.978,0.326c0.706,-0.163 1.141,-0.597 1.005,-1.303c-0.462,-2.01 -5.867,0.461 -6.79,-3.613c-0.625,-2.797 1.738,-4.128 3.639,-4.563c2.282,-0.516 4.536,-0.298 5.405,2.798l-3.476,0.815z" />
        <path id="svg_36" fill="white"
            d="m221.953,123.558l-0.896,-2.608l8.257,-2.824l0.896,2.58l-2.933,7.415l5.133,-1.766l0.896,2.608l-8.664,2.987l-0.896,-2.607l2.852,-7.388l-4.645,1.603z" />
        <path id="svg_37" fill="white"
            d="m241.971,125.052c-0.218,-0.299 -0.381,-0.625 -0.761,-1.385l-0.027,0.027c-0.054,0.95 -0.353,2.281 -2.01,3.096c-2.119,1.005 -3.83,0.217 -4.835,-1.956c-1.195,-2.553 0.299,-4.535 3.205,-5.948l1.06,-0.516c-0.435,-0.923 -0.897,-2.336 -2.228,-1.629c-0.787,0.434 -0.597,1.493 -0.298,2.118l-3.178,1.521c-0.733,-1.467 -0.489,-2.635 0.19,-3.558c0.679,-0.951 1.765,-1.63 2.77,-2.091c1.793,-0.869 4.4,-1.032 5.514,1.358l2.58,5.377c0.218,0.435 0.489,0.87 1.222,2.038l-3.204,1.548zm-6.791,-11.516l-2.091,1.005l0.38,-3.912l3.694,-1.765l0.027,0.027l-2.01,4.645zm4.129,10.348c1.439,-0.706 0.815,-2.363 0.136,-3.748c-0.707,0.353 -1.413,0.624 -1.739,1.113c-0.353,0.516 -0.57,1.087 -0.217,1.82c0.38,0.733 1.195,1.114 1.82,0.815z" />
        <path id="svg_38" fill="white"
            d="m246.153,111.797l0.027,-0.027c-0.353,-1.711 0.353,-2.933 1.576,-3.775c0.977,-0.679 2.526,-0.869 3.666,0.054c-0.244,-1.521 0.408,-2.933 1.576,-3.83c1.738,-1.222 3.965,-0.787 5.432,1.304l4.454,6.356l-3.069,2.145l-3.911,-5.567c-0.679,-0.897 -1.575,-1.766 -2.526,-1.114c-1.521,1.059 0.054,2.879 0.136,2.988l3.829,5.432l-3.069,2.145l-3.911,-5.568c-0.679,-0.896 -1.575,-1.765 -2.526,-1.113c-1.521,1.059 0.055,2.879 0.136,2.988l3.83,5.432l-3.07,2.145l-4.943,-7.061c-0.597,-0.842 -1.005,-1.413 -1.819,-2.363l3.014,-2.119l1.168,1.548z" />
        <path id="svg_39" fill="white"
            d="m270.272,104.437c-0.326,-0.19 -0.57,-0.462 -1.168,-1.032l-0.027,0.027c0.271,0.896 0.462,2.254 -0.815,3.585c-1.63,1.684 -3.531,1.521 -5.215,-0.19c-1.983,-1.983 -1.276,-4.373 0.978,-6.682l0.815,-0.8416c-0.734,-0.7062 -1.657,-1.8741 -2.635,-0.7605c-0.597,0.679 -0.054,1.6021 0.462,2.0911l-2.445,2.526c-1.195,-1.141 -1.358,-2.308 -1.032,-3.3949c0.326,-1.1136 1.114,-2.1185 1.874,-2.9062c1.386,-1.4395 3.803,-2.4716 5.65,-0.6247l4.264,4.1558c0.353,0.353 0.761,0.624 1.847,1.494l-2.553,2.553zm-2.906,-0.19c1.113,-1.141 -0.055,-2.499 -1.168,-3.586c-0.543,0.571 -1.114,1.06 -1.25,1.63c-0.163,0.625 -0.163,1.222 0.435,1.793c0.598,0.597 1.494,0.679 1.983,0.163z" />
        <path id="svg_40" stroke-linejoin="round" stroke-miterlimit="3.8637" stroke-width="1.25"
            stroke="red"
            d="m300.339,198.439c1.955,0 4.59,-0.054 4.59,3.097c0,1.983 -1.413,3.286 -3.232,3.286c-2.336,0 -3.395,-1.847 -3.504,-4.128l-3.83,0c-0.081,4.807 2.934,7.605 7.388,7.605c3.884,0 7.388,-2.472 7.388,-6.872c0,-2.336 -1.331,-4.237 -3.531,-4.753l0,-0.054c1.847,-0.543 2.77,-2.309 2.77,-4.264c0,-3.749 -3.504,-5.786 -6.681,-5.786c-4.102,0 -6.736,2.961 -6.872,7.225l3.83,0c-0.027,-2.146 1.059,-3.748 3.069,-3.748c1.466,0 2.825,1.005 2.825,2.77c0,2.39 -2.499,2.743 -4.238,2.608l0,3.014l0.028,0z" />
        <path id="svg_41" stroke-linejoin="round" stroke-miterlimit="3.8637" stroke-width="2.5"
            stroke="black"
            d="m300.339,198.439c1.955,0 4.59,-0.054 4.59,3.097c0,1.983 -1.413,3.286 -3.232,3.286c-2.336,0 -3.395,-1.847 -3.504,-4.128l-3.83,0c-0.081,4.807 2.934,7.605 7.388,7.605c3.884,0 7.388,-2.472 7.388,-6.872c0,-2.336 -1.331,-4.237 -3.531,-4.753l0,-0.054c1.847,-0.543 2.77,-2.309 2.77,-4.264c0,-3.749 -3.504,-5.786 -6.681,-5.786c-4.102,0 -6.736,2.961 -6.872,7.225l3.83,0c-0.027,-2.146 1.059,-3.748 3.069,-3.748c1.466,0 2.825,1.005 2.825,2.77c0,2.39 -2.499,2.743 -4.238,2.608l0,3.014l0.028,0z" />
        <path id="svg_42" fill="white"
            d="m300.339,198.439c1.955,0 4.59,-0.054 4.59,3.097c0,1.983 -1.413,3.286 -3.232,3.286c-2.336,0 -3.395,-1.847 -3.504,-4.128l-3.83,0c-0.081,4.807 2.934,7.605 7.388,7.605c3.884,0 7.388,-2.472 7.388,-6.872c0,-2.336 -1.331,-4.237 -3.531,-4.753l0,-0.054c1.847,-0.543 2.77,-2.309 2.77,-4.264c0,-3.749 -3.504,-5.786 -6.681,-5.786c-4.102,0 -6.736,2.961 -6.872,7.225l3.83,0c-0.027,-2.146 1.059,-3.748 3.069,-3.748c1.466,0 2.825,1.005 2.825,2.77c0,2.39 -2.499,2.743 -4.238,2.608l0,3.014l0.028,0z"
            clip-rule="evenodd" fill-rule="evenodd" />
        <path id="svg_43" stroke-linejoin="round" stroke-miterlimit="3.8637" stroke-width="1.25"
            stroke="black"
            d="m346.756,105.007l3.83,0l0,-4.834l2.634,0l0,-3.5042l-2.634,0l0,-12.5753l-3.613,0l-8.637,12.1679l0,3.8836l8.393,0l0,4.862l0.027,0zm0,-8.3653l-5.215,0l5.134,-7.2519l0.081,0l0,7.2519z" />
        <path id="svg_44" stroke-linejoin="round" stroke-miterlimit="3.8637" stroke-width="2.5"
            stroke="black"
            d="m346.756,105.007l3.83,0l0,-4.834l2.634,0l0,-3.5042l-2.634,0l0,-12.5753l-3.613,0l-8.637,12.1679l0,3.8836l8.393,0l0,4.862l0.027,0zm0,-8.3653l-5.215,0l5.134,-7.2519l0.081,0l0,7.2519z" />
        <path id="svg_45" fill="white"
            d="m346.756,105.007l3.83,0l0,-4.834l2.634,0l0,-3.5042l-2.634,0l0,-12.5753l-3.613,0l-8.637,12.1679l0,3.8836l8.393,0l0,4.862l0.027,0zm0,-8.3653l-5.215,0l5.134,-7.2519l0.081,0l0,7.2519z"
            clip-rule="evenodd" fill-rule="evenodd" />
        <path id="svg_46" stroke-linejoin="round" stroke-miterlimit="3.8637" stroke-width="1.25"
            stroke="black"
            d="m54.5898,85.0984l-3.205,0c-0.4346,3.205 -3.0148,4.2099 -5.8124,4.1556l0,3.2049l4.9976,0l0,13.5801l4.0198,0l0,-20.9406z" />
        <path id="svg_47" stroke-linejoin="round" stroke-miterlimit="3.8637" stroke-width="2.5"
            stroke="black"
            d="m54.5898,85.0984l-3.205,0c-0.4346,3.205 -3.0148,4.2099 -5.8124,4.1556l0,3.2049l4.9976,0l0,13.5801l4.0198,0l0,-20.9406z" />
        <path id="svg_48" fill="white"
            d="m54.5898,85.0984l-3.205,0c-0.4346,3.205 -3.0148,4.2099 -5.8124,4.1556l0,3.2049l4.9976,0l0,13.5801l4.0198,0l0,-20.9406z"
            clip-rule="evenodd" fill-rule="evenodd" />
        <path id="svg_49" stroke-linejoin="round" stroke-miterlimit="3.8637" stroke-width="1.25"
            stroke="black"
            d="m93.5379,194.012c0,-2.2 0.7605,-4.807 3.1506,-4.807c1.7383,0 2.9877,1.249 2.9877,3.232c-0.0272,2.58 -2.4173,3.857 -4.1827,5.106c-3.4223,2.445 -6.247,4.509 -6.2741,9.344l14.5856,0l0,-3.64l-9.398,0c1.4395,-2.146 3.7754,-3.341 5.731,-4.807c1.955,-1.467 3.558,-3.205 3.558,-6.329c0,-4.101 -3.178,-6.546 -6.8174,-6.546c-4.7802,0 -7.3605,3.667 -7.2247,8.447l3.884,0z" />
        <path id="svg_50" stroke-linejoin="round" stroke-miterlimit="3.8637" stroke-width="2.5"
            stroke="black"
            d="m93.5379,194.012c0,-2.2 0.7605,-4.807 3.1506,-4.807c1.7383,0 2.9877,1.249 2.9877,3.232c-0.0272,2.58 -2.4173,3.857 -4.1827,5.106c-3.4223,2.445 -6.247,4.509 -6.2741,9.344l14.5856,0l0,-3.64l-9.398,0c1.4395,-2.146 3.7754,-3.341 5.731,-4.807c1.955,-1.467 3.558,-3.205 3.558,-6.329c0,-4.101 -3.178,-6.546 -6.8174,-6.546c-4.7802,0 -7.3605,3.667 -7.2247,8.447l3.884,0z" />
        <path id="svg_51" fill="white"
            d="m93.5379,194.012c0,-2.2 0.7605,-4.807 3.1506,-4.807c1.7383,0 2.9877,1.249 2.9877,3.232c-0.0272,2.58 -2.4173,3.857 -4.1827,5.106c-3.4223,2.445 -6.247,4.509 -6.2741,9.344l14.5856,0l0,-3.64l-9.398,0c1.4395,-2.146 3.7754,-3.341 5.731,-4.807c1.955,-1.467 3.558,-3.205 3.558,-6.329c0,-4.101 -3.178,-6.546 -6.8174,-6.546c-4.7802,0 -7.3605,3.667 -7.2247,8.447l3.884,0z"
            clip-rule="evenodd" fill-rule="evenodd" />
        <path id="svg_52" stroke-linejoin="round" stroke-miterlimit="3.8637" stroke-width="1.25"
            stroke="black"
            d="m236.267,176.086c0.978,2.825 3.449,3.07 5.704,2.391c2.2,-0.68 4.128,-2.255 3.259,-5.08c-0.598,-1.982 -2.309,-2.145 -3.993,-2.064c-1.629,0.082 -3.178,0.381 -3.504,-0.679c-0.271,-0.869 0.571,-1.276 1.168,-1.439c0.951,-0.299 1.82,-0.218 2.255,0.896l2.526,-0.76c-1.005,-2.581 -3.205,-2.771 -5.324,-2.119c-2.064,0.625 -3.992,1.983 -3.15,4.726c0.57,1.901 2.308,2.037 3.938,1.928c2.037,-0.135 3.259,-0.163 3.504,0.734c0.325,1.032 -0.544,1.657 -1.331,1.901c-1.06,0.326 -2.173,0.109 -2.581,-1.195l-2.471,0.76zm-10.674,-0.054c-0.326,-1.765 -0.055,-3.639 1.792,-3.965c1.874,-0.326 2.744,1.358 3.042,3.123c0.299,1.766 0.055,3.612 -1.792,3.966c-1.874,0.325 -2.744,-1.358 -3.042,-3.124zm-2.743,0.489c0.624,3.504 3.041,5.459 6.165,4.916c3.151,-0.543 4.753,-3.232 4.128,-6.736c-0.624,-3.531 -3.042,-5.486 -6.192,-4.916c-3.097,0.543 -4.726,3.205 -4.101,6.736zm-11.571,6.763l2.77,-0.245l-0.325,-3.856l0.977,-1.25l3.205,4.753l3.341,-0.298l-4.835,-6.709l3.45,-4.427l-3.259,0.271l-3.124,4.319l-0.733,-8.284l-2.771,0.244l1.304,15.482zm-11.136,-6.546c0.027,-0.869 0.543,-2.39 2.309,-2.39c1.358,0 1.955,0.815 2.2,2.39l-4.509,0zm7.279,1.956c0.19,-3.45 -1.466,-6.682 -4.916,-6.682c-3.069,0 -5.16,2.553 -5.16,5.921c0,3.477 1.982,5.894 5.16,5.894c2.282,0 3.939,-1.141 4.726,-3.775l-2.444,0c-0.163,0.706 -1.087,1.466 -2.2,1.466c-1.548,0 -2.39,-0.896 -2.472,-2.851l7.306,0.027zm-1.548,-10.837l-3.042,0l-1.901,3.096l1.928,0l3.015,-3.096zm-12.548,1.005l-2.77,-0.136l-0.163,3.368l-1.684,-0.082l-0.109,2.065l1.684,0.081l-0.353,6.627c-0.109,2.227 1.358,2.743 3.042,2.825c0.543,0.027 1.141,0.027 1.629,-0.027l0.136,-2.418c-0.298,0.055 -0.57,0.055 -0.869,0.055c-0.923,-0.055 -1.168,-0.326 -1.113,-1.358l0.298,-5.595l2.037,0.108l0.082,-2.064l-2.037,-0.109l0.19,-3.34zm-13.933,5.703c0.217,-1.195 0.95,-1.602 2.009,-1.493c0.978,0.108 1.766,0.38 1.63,1.711c-0.136,1.249 -1.711,1.032 -3.422,1.113c-1.738,0.082 -3.504,0.516 -3.775,3.042c-0.245,2.282 1.167,3.504 3.069,3.721c1.222,0.136 2.553,-0.108 3.531,-1.032c-0.028,0.38 0.027,0.733 0.081,1.114l2.798,0.298c-0.218,-0.488 -0.191,-1.493 -0.082,-2.525l0.598,-5.813c0.271,-2.689 -2.065,-3.422 -4.074,-3.639c-2.255,-0.245 -4.645,0.38 -5.107,3.232l2.744,0.271zm3.259,3.803c-0.082,0.679 -0.353,2.553 -2.499,2.336c-0.896,-0.082 -1.657,-0.462 -1.548,-1.603c0.109,-1.113 0.923,-1.358 1.792,-1.466c0.87,-0.082 1.847,0 2.363,-0.408l-0.108,1.141zm2.906,-11.136l-3.042,-0.326l-2.2,2.879l1.928,0.217l3.314,-2.77zm-11.244,-1.195l-2.744,-0.489l-0.434,2.499l2.743,0.489l0.435,-2.499zm-7.741,18.306c0.271,0.082 0.57,0.19 0.869,0.245c2.743,0.489 3.694,-0.462 4.101,-2.716l2.037,-11.625l-2.743,-0.489l-2.01,11.462c-0.136,0.842 -0.679,0.896 -1.222,0.787c-0.217,-0.027 -0.408,-0.108 -0.571,-0.19l-0.461,2.526zm-15.102,-16.269c0.489,-1.114 1.304,-1.358 2.282,-1.005c0.923,0.326 1.63,0.761 1.195,2.01c-0.407,1.195 -1.901,0.625 -3.585,0.326c-1.711,-0.326 -3.531,-0.299 -4.373,2.091c-0.761,2.173 0.353,3.667 2.146,4.292c1.168,0.407 2.498,0.461 3.666,-0.218c-0.108,0.353 -0.135,0.734 -0.163,1.087l2.662,0.923c-0.081,-0.516 0.136,-1.521 0.489,-2.471l1.901,-5.514c0.869,-2.553 -1.249,-3.802 -3.15,-4.454c-2.146,-0.734 -4.618,-0.679 -5.704,2.01l2.634,0.923zm2.336,4.427c-0.217,0.625 -0.923,2.417 -2.96,1.711c-0.842,-0.298 -1.521,-0.815 -1.141,-1.901c0.38,-1.059 1.222,-1.114 2.091,-1.032c0.87,0.109 1.793,0.407 2.391,0.136l-0.381,1.086zm79.01,14.069l-2.688,0.707l0.651,2.444l2.689,-0.706l-0.652,-2.445zm1.331,15.699l2.689,-0.706l-2.906,-10.837l-2.689,0.706l2.906,10.837zm-13.363,-5.052c-0.108,-1.222 0.489,-1.792 1.521,-1.982c0.951,-0.163 1.82,-0.109 2.037,1.195c0.218,1.249 -1.358,1.439 -2.987,2.037c-1.657,0.57 -3.232,1.466 -2.798,3.965c0.408,2.254 2.091,3.042 3.966,2.716c1.222,-0.244 2.417,-0.842 3.123,-1.983c0.082,0.354 0.217,0.707 0.38,1.033l2.771,-0.489c-0.326,-0.408 -0.598,-1.385 -0.788,-2.39l-1.005,-5.758c-0.462,-2.662 -2.933,-2.717 -4.916,-2.363c-2.227,0.38 -4.373,1.656 -4.02,4.535l2.716,-0.516zm4.183,2.744c0.109,0.651 0.38,2.553 -1.765,2.933c-0.897,0.163 -1.712,0.027 -1.929,-1.114c-0.19,-1.113 0.516,-1.575 1.331,-1.901c0.815,-0.326 1.765,-0.516 2.146,-1.032l0.217,1.114zm-26.644,7.496l2.77,-0.19l-0.462,-6.492c-0.163,-2.2 1.141,-2.661 1.684,-2.716c1.766,-0.108 1.793,1.385 1.874,2.689l0.435,6.274l2.77,-0.19l-0.434,-6.247c-0.109,-1.412 0.081,-2.852 1.656,-2.96c1.576,-0.109 1.793,1.113 1.902,2.607l0.434,6.356l2.771,-0.19l-0.517,-7.497c-0.217,-2.906 -1.819,-3.911 -3.965,-3.748c-1.412,0.109 -2.39,1.059 -2.906,2.064c-0.652,-1.303 -1.82,-1.738 -3.069,-1.656c-1.304,0.081 -2.309,0.841 -2.961,2.037l-0.136,-1.521l-2.607,0.19l0.761,11.19zm-11.517,-8.61c0.218,-1.195 0.951,-1.603 2.01,-1.494c0.978,0.109 1.766,0.38 1.63,1.711c-0.136,1.25 -1.711,1.032 -3.422,1.141c-1.739,0.081 -3.504,0.516 -3.776,3.042c-0.244,2.281 1.168,3.504 3.07,3.721c1.222,0.136 2.553,-0.109 3.53,-1.032c-0.027,0.38 0.028,0.733 0.082,1.113l2.797,0.299c-0.217,-0.489 -0.19,-1.494 -0.081,-2.526l0.597,-5.812c0.272,-2.689 -2.064,-3.422 -4.074,-3.64c-2.254,-0.244 -4.671,0.381 -5.106,3.233l2.743,0.244zm3.26,3.802c-0.082,0.679 -0.353,2.554 -2.499,2.336c-0.896,-0.081 -1.657,-0.461 -1.548,-1.602c0.108,-1.114 0.923,-1.358 1.792,-1.467c0.869,-0.081 1.847,0 2.363,-0.407l-0.108,1.14zm2.906,-11.108l-3.042,-0.326l-2.173,2.879l1.928,0.217l3.287,-2.77zm-24.282,12.466l9.153,1.603l0.408,-2.282l-5.541,-0.977l6.328,-5.568l0.408,-2.282l-8.393,-1.466l-0.407,2.281l4.807,0.842l-6.328,5.568l-0.435,2.281zm-13.037,-7.088c-0.652,2.906 1.304,4.427 3.558,5.051c2.227,0.598 4.699,0.272 5.46,-2.58c0.543,-2.01 -0.815,-3.042 -2.282,-3.857c-1.412,-0.814 -2.906,-1.358 -2.607,-2.417c0.244,-0.869 1.168,-0.76 1.765,-0.597c0.951,0.244 1.684,0.787 1.44,1.955l2.553,0.679c0.516,-2.716 -1.25,-4.047 -3.368,-4.617c-2.092,-0.571 -4.427,-0.435 -5.188,2.336c-0.516,1.901 0.869,2.933 2.309,3.721c1.792,0.977 2.824,1.602 2.58,2.498c-0.272,1.06 -1.358,1.114 -2.119,0.924c-1.059,-0.272 -1.901,-1.059 -1.575,-2.39l-2.526,-0.706z" />
        <path id="svg_53" stroke-linejoin="round" stroke-miterlimit="3.8637" stroke-width="2.5"
            stroke="black"
            d="m236.267,176.086c0.978,2.825 3.449,3.07 5.704,2.391c2.2,-0.68 4.128,-2.255 3.259,-5.08c-0.598,-1.982 -2.309,-2.145 -3.993,-2.064c-1.629,0.082 -3.178,0.381 -3.504,-0.679c-0.271,-0.869 0.571,-1.276 1.168,-1.439c0.951,-0.299 1.82,-0.218 2.255,0.896l2.526,-0.76c-1.005,-2.581 -3.205,-2.771 -5.324,-2.119c-2.064,0.625 -3.992,1.983 -3.15,4.726c0.57,1.901 2.308,2.037 3.938,1.928c2.037,-0.135 3.259,-0.163 3.504,0.734c0.325,1.032 -0.544,1.657 -1.331,1.901c-1.06,0.326 -2.173,0.109 -2.581,-1.195l-2.471,0.76zm-10.674,-0.054c-0.326,-1.765 -0.055,-3.639 1.792,-3.965c1.874,-0.326 2.744,1.358 3.042,3.123c0.299,1.766 0.055,3.612 -1.792,3.966c-1.874,0.325 -2.744,-1.358 -3.042,-3.124zm-2.743,0.489c0.624,3.504 3.041,5.459 6.165,4.916c3.151,-0.543 4.753,-3.232 4.128,-6.736c-0.624,-3.531 -3.042,-5.486 -6.192,-4.916c-3.097,0.543 -4.726,3.205 -4.101,6.736zm-11.571,6.763l2.77,-0.245l-0.325,-3.856l0.977,-1.25l3.205,4.753l3.341,-0.298l-4.835,-6.709l3.45,-4.427l-3.259,0.271l-3.124,4.319l-0.733,-8.284l-2.771,0.244l1.304,15.482zm-11.136,-6.546c0.027,-0.869 0.543,-2.39 2.309,-2.39c1.358,0 1.955,0.815 2.2,2.39l-4.509,0zm7.279,1.956c0.19,-3.45 -1.466,-6.682 -4.916,-6.682c-3.069,0 -5.16,2.553 -5.16,5.921c0,3.477 1.982,5.894 5.16,5.894c2.282,0 3.939,-1.141 4.726,-3.775l-2.444,0c-0.163,0.706 -1.087,1.466 -2.2,1.466c-1.548,0 -2.39,-0.896 -2.472,-2.851l7.306,0.027zm-1.548,-10.837l-3.042,0l-1.901,3.096l1.928,0l3.015,-3.096zm-12.548,1.005l-2.77,-0.136l-0.163,3.368l-1.684,-0.082l-0.109,2.065l1.684,0.081l-0.353,6.627c-0.109,2.227 1.358,2.743 3.042,2.825c0.543,0.027 1.141,0.027 1.629,-0.027l0.136,-2.418c-0.298,0.055 -0.57,0.055 -0.869,0.055c-0.923,-0.055 -1.168,-0.326 -1.113,-1.358l0.298,-5.595l2.037,0.108l0.082,-2.064l-2.037,-0.109l0.19,-3.34zm-13.933,5.703c0.217,-1.195 0.95,-1.602 2.009,-1.493c0.978,0.108 1.766,0.38 1.63,1.711c-0.136,1.249 -1.711,1.032 -3.422,1.113c-1.738,0.082 -3.504,0.516 -3.775,3.042c-0.245,2.282 1.167,3.504 3.069,3.721c1.222,0.136 2.553,-0.108 3.531,-1.032c-0.028,0.38 0.027,0.733 0.081,1.114l2.798,0.298c-0.218,-0.488 -0.191,-1.493 -0.082,-2.525l0.598,-5.813c0.271,-2.689 -2.065,-3.422 -4.074,-3.639c-2.255,-0.245 -4.645,0.38 -5.107,3.232l2.744,0.271zm3.259,3.803c-0.082,0.679 -0.353,2.553 -2.499,2.336c-0.896,-0.082 -1.657,-0.462 -1.548,-1.603c0.109,-1.113 0.923,-1.358 1.792,-1.466c0.87,-0.082 1.847,0 2.363,-0.408l-0.108,1.141zm2.906,-11.136l-3.042,-0.326l-2.2,2.879l1.928,0.217l3.314,-2.77zm-11.244,-1.195l-2.744,-0.489l-0.434,2.499l2.743,0.489l0.435,-2.499zm-7.741,18.306c0.271,0.082 0.57,0.19 0.869,0.245c2.743,0.489 3.694,-0.462 4.101,-2.716l2.037,-11.625l-2.743,-0.489l-2.01,11.462c-0.136,0.842 -0.679,0.896 -1.222,0.787c-0.217,-0.027 -0.408,-0.108 -0.571,-0.19l-0.461,2.526zm-15.102,-16.269c0.489,-1.114 1.304,-1.358 2.282,-1.005c0.923,0.326 1.63,0.761 1.195,2.01c-0.407,1.195 -1.901,0.625 -3.585,0.326c-1.711,-0.326 -3.531,-0.299 -4.373,2.091c-0.761,2.173 0.353,3.667 2.146,4.292c1.168,0.407 2.498,0.461 3.666,-0.218c-0.108,0.353 -0.135,0.734 -0.163,1.087l2.662,0.923c-0.081,-0.516 0.136,-1.521 0.489,-2.471l1.901,-5.514c0.869,-2.553 -1.249,-3.802 -3.15,-4.454c-2.146,-0.734 -4.618,-0.679 -5.704,2.01l2.634,0.923zm2.336,4.427c-0.217,0.625 -0.923,2.417 -2.96,1.711c-0.842,-0.298 -1.521,-0.815 -1.141,-1.901c0.38,-1.059 1.222,-1.114 2.091,-1.032c0.87,0.109 1.793,0.407 2.391,0.136l-0.381,1.086zm79.01,14.069l-2.688,0.707l0.651,2.444l2.689,-0.706l-0.652,-2.445zm1.331,15.699l2.689,-0.706l-2.906,-10.837l-2.689,0.706l2.906,10.837zm-13.363,-5.052c-0.108,-1.222 0.489,-1.792 1.521,-1.982c0.951,-0.163 1.82,-0.109 2.037,1.195c0.218,1.249 -1.358,1.439 -2.987,2.037c-1.657,0.57 -3.232,1.466 -2.798,3.965c0.408,2.254 2.091,3.042 3.966,2.716c1.222,-0.244 2.417,-0.842 3.123,-1.983c0.082,0.354 0.217,0.707 0.38,1.033l2.771,-0.489c-0.326,-0.408 -0.598,-1.385 -0.788,-2.39l-1.005,-5.758c-0.462,-2.662 -2.933,-2.717 -4.916,-2.363c-2.227,0.38 -4.373,1.656 -4.02,4.535l2.716,-0.516zm4.183,2.744c0.109,0.651 0.38,2.553 -1.765,2.933c-0.897,0.163 -1.712,0.027 -1.929,-1.114c-0.19,-1.113 0.516,-1.575 1.331,-1.901c0.815,-0.326 1.765,-0.516 2.146,-1.032l0.217,1.114zm-26.644,7.496l2.77,-0.19l-0.462,-6.492c-0.163,-2.2 1.141,-2.661 1.684,-2.716c1.766,-0.108 1.793,1.385 1.874,2.689l0.435,6.274l2.77,-0.19l-0.434,-6.247c-0.109,-1.412 0.081,-2.852 1.656,-2.96c1.576,-0.109 1.793,1.113 1.902,2.607l0.434,6.356l2.771,-0.19l-0.517,-7.497c-0.217,-2.906 -1.819,-3.911 -3.965,-3.748c-1.412,0.109 -2.39,1.059 -2.906,2.064c-0.652,-1.303 -1.82,-1.738 -3.069,-1.656c-1.304,0.081 -2.309,0.841 -2.961,2.037l-0.136,-1.521l-2.607,0.19l0.761,11.19zm-11.517,-8.61c0.218,-1.195 0.951,-1.603 2.01,-1.494c0.978,0.109 1.766,0.38 1.63,1.711c-0.136,1.25 -1.711,1.032 -3.422,1.141c-1.739,0.081 -3.504,0.516 -3.776,3.042c-0.244,2.281 1.168,3.504 3.07,3.721c1.222,0.136 2.553,-0.109 3.53,-1.032c-0.027,0.38 0.028,0.733 0.082,1.113l2.797,0.299c-0.217,-0.489 -0.19,-1.494 -0.081,-2.526l0.597,-5.812c0.272,-2.689 -2.064,-3.422 -4.074,-3.64c-2.254,-0.244 -4.671,0.381 -5.106,3.233l2.743,0.244zm3.26,3.802c-0.082,0.679 -0.353,2.554 -2.499,2.336c-0.896,-0.081 -1.657,-0.461 -1.548,-1.602c0.108,-1.114 0.923,-1.358 1.792,-1.467c0.869,-0.081 1.847,0 2.363,-0.407l-0.108,1.14zm2.906,-11.108l-3.042,-0.326l-2.173,2.879l1.928,0.217l3.287,-2.77zm-24.282,12.466l9.153,1.603l0.408,-2.282l-5.541,-0.977l6.328,-5.568l0.408,-2.282l-8.393,-1.466l-0.407,2.281l4.807,0.842l-6.328,5.568l-0.435,2.281zm-13.037,-7.088c-0.652,2.906 1.304,4.427 3.558,5.051c2.227,0.598 4.699,0.272 5.46,-2.58c0.543,-2.01 -0.815,-3.042 -2.282,-3.857c-1.412,-0.814 -2.906,-1.358 -2.607,-2.417c0.244,-0.869 1.168,-0.76 1.765,-0.597c0.951,0.244 1.684,0.787 1.44,1.955l2.553,0.679c0.516,-2.716 -1.25,-4.047 -3.368,-4.617c-2.092,-0.571 -4.427,-0.435 -5.188,2.336c-0.516,1.901 0.869,2.933 2.309,3.721c1.792,0.977 2.824,1.602 2.58,2.498c-0.272,1.06 -1.358,1.114 -2.119,0.924c-1.059,-0.272 -1.901,-1.059 -1.575,-2.39l-2.526,-0.706z" />
        <path id="svg_54" fill="white"
            d="m236.267,176.086c0.978,2.825 3.449,3.07 5.704,2.391c2.2,-0.68 4.128,-2.255 3.259,-5.08c-0.598,-1.982 -2.309,-2.145 -3.993,-2.064c-1.629,0.082 -3.178,0.381 -3.504,-0.679c-0.271,-0.869 0.571,-1.276 1.168,-1.439c0.951,-0.299 1.82,-0.218 2.255,0.896l2.526,-0.76c-1.005,-2.581 -3.205,-2.771 -5.324,-2.119c-2.064,0.625 -3.992,1.983 -3.15,4.726c0.57,1.901 2.308,2.037 3.938,1.928c2.037,-0.135 3.259,-0.163 3.504,0.734c0.325,1.032 -0.544,1.657 -1.331,1.901c-1.06,0.326 -2.173,0.109 -2.581,-1.195l-2.471,0.76zm-10.674,-0.054c-0.326,-1.765 -0.055,-3.639 1.792,-3.965c1.874,-0.326 2.744,1.358 3.042,3.123c0.299,1.766 0.055,3.612 -1.792,3.966c-1.874,0.325 -2.744,-1.358 -3.042,-3.124zm-2.743,0.489c0.624,3.504 3.041,5.459 6.165,4.916c3.151,-0.543 4.753,-3.232 4.128,-6.736c-0.624,-3.531 -3.042,-5.486 -6.192,-4.916c-3.097,0.543 -4.726,3.205 -4.101,6.736zm-11.571,6.763l2.77,-0.245l-0.325,-3.856l0.977,-1.25l3.205,4.753l3.341,-0.298l-4.835,-6.709l3.45,-4.427l-3.259,0.271l-3.124,4.319l-0.733,-8.284l-2.771,0.244l1.304,15.482zm-11.136,-6.546c0.027,-0.869 0.543,-2.39 2.309,-2.39c1.358,0 1.955,0.815 2.2,2.39l-4.509,0zm7.279,1.956c0.19,-3.45 -1.466,-6.682 -4.916,-6.682c-3.069,0 -5.16,2.553 -5.16,5.921c0,3.477 1.982,5.894 5.16,5.894c2.282,0 3.939,-1.141 4.726,-3.775l-2.444,0c-0.163,0.706 -1.087,1.466 -2.2,1.466c-1.548,0 -2.39,-0.896 -2.472,-2.851l7.306,0.027zm-1.548,-10.837l-3.042,0l-1.901,3.096l1.928,0l3.015,-3.096zm-12.548,1.005l-2.77,-0.136l-0.163,3.368l-1.684,-0.082l-0.109,2.065l1.684,0.081l-0.353,6.627c-0.109,2.227 1.358,2.743 3.042,2.825c0.543,0.027 1.141,0.027 1.629,-0.027l0.136,-2.418c-0.298,0.055 -0.57,0.055 -0.869,0.055c-0.923,-0.055 -1.168,-0.326 -1.113,-1.358l0.298,-5.595l2.037,0.108l0.082,-2.064l-2.037,-0.109l0.19,-3.34zm-13.933,5.703c0.217,-1.195 0.95,-1.602 2.009,-1.493c0.978,0.108 1.766,0.38 1.63,1.711c-0.136,1.249 -1.711,1.032 -3.422,1.113c-1.738,0.082 -3.504,0.516 -3.775,3.042c-0.245,2.282 1.167,3.504 3.069,3.721c1.222,0.136 2.553,-0.108 3.531,-1.032c-0.028,0.38 0.027,0.733 0.081,1.114l2.798,0.298c-0.218,-0.488 -0.191,-1.493 -0.082,-2.525l0.598,-5.813c0.271,-2.689 -2.065,-3.422 -4.074,-3.639c-2.255,-0.245 -4.645,0.38 -5.107,3.232l2.744,0.271zm3.259,3.803c-0.082,0.679 -0.353,2.553 -2.499,2.336c-0.896,-0.082 -1.657,-0.462 -1.548,-1.603c0.109,-1.113 0.923,-1.358 1.792,-1.466c0.87,-0.082 1.847,0 2.363,-0.408l-0.108,1.141zm2.906,-11.136l-3.042,-0.326l-2.2,2.879l1.928,0.217l3.314,-2.77zm-11.244,-1.195l-2.744,-0.489l-0.434,2.499l2.743,0.489l0.435,-2.499zm-7.741,18.306c0.271,0.082 0.57,0.19 0.869,0.245c2.743,0.489 3.694,-0.462 4.101,-2.716l2.037,-11.625l-2.743,-0.489l-2.01,11.462c-0.136,0.842 -0.679,0.896 -1.222,0.787c-0.217,-0.027 -0.408,-0.108 -0.571,-0.19l-0.461,2.526zm-15.102,-16.269c0.489,-1.114 1.304,-1.358 2.282,-1.005c0.923,0.326 1.63,0.761 1.195,2.01c-0.407,1.195 -1.901,0.625 -3.585,0.326c-1.711,-0.326 -3.531,-0.299 -4.373,2.091c-0.761,2.173 0.353,3.667 2.146,4.292c1.168,0.407 2.498,0.461 3.666,-0.218c-0.108,0.353 -0.135,0.734 -0.163,1.087l2.662,0.923c-0.081,-0.516 0.136,-1.521 0.489,-2.471l1.901,-5.514c0.869,-2.553 -1.249,-3.802 -3.15,-4.454c-2.146,-0.734 -4.618,-0.679 -5.704,2.01l2.634,0.923zm2.336,4.427c-0.217,0.625 -0.923,2.417 -2.96,1.711c-0.842,-0.298 -1.521,-0.815 -1.141,-1.901c0.38,-1.059 1.222,-1.114 2.091,-1.032c0.87,0.109 1.793,0.407 2.391,0.136l-0.381,1.086zm79.01,14.069l-2.688,0.707l0.651,2.444l2.689,-0.706l-0.652,-2.445zm1.331,15.699l2.689,-0.706l-2.906,-10.837l-2.689,0.706l2.906,10.837zm-13.363,-5.052c-0.108,-1.222 0.489,-1.792 1.521,-1.982c0.951,-0.163 1.82,-0.109 2.037,1.195c0.218,1.249 -1.358,1.439 -2.987,2.037c-1.657,0.57 -3.232,1.466 -2.798,3.965c0.408,2.254 2.091,3.042 3.966,2.716c1.222,-0.244 2.417,-0.842 3.123,-1.983c0.082,0.354 0.217,0.707 0.38,1.033l2.771,-0.489c-0.326,-0.408 -0.598,-1.385 -0.788,-2.39l-1.005,-5.758c-0.462,-2.662 -2.933,-2.717 -4.916,-2.363c-2.227,0.38 -4.373,1.656 -4.02,4.535l2.716,-0.516zm4.183,2.744c0.109,0.651 0.38,2.553 -1.765,2.933c-0.897,0.163 -1.712,0.027 -1.929,-1.114c-0.19,-1.113 0.516,-1.575 1.331,-1.901c0.815,-0.326 1.765,-0.516 2.146,-1.032l0.217,1.114zm-26.644,7.496l2.77,-0.19l-0.462,-6.492c-0.163,-2.2 1.141,-2.661 1.684,-2.716c1.766,-0.108 1.793,1.385 1.874,2.689l0.435,6.274l2.77,-0.19l-0.434,-6.247c-0.109,-1.412 0.081,-2.852 1.656,-2.96c1.576,-0.109 1.793,1.113 1.902,2.607l0.434,6.356l2.771,-0.19l-0.517,-7.497c-0.217,-2.906 -1.819,-3.911 -3.965,-3.748c-1.412,0.109 -2.39,1.059 -2.906,2.064c-0.652,-1.303 -1.82,-1.738 -3.069,-1.656c-1.304,0.081 -2.309,0.841 -2.961,2.037l-0.136,-1.521l-2.607,0.19l0.761,11.19zm-11.517,-8.61c0.218,-1.195 0.951,-1.603 2.01,-1.494c0.978,0.109 1.766,0.38 1.63,1.711c-0.136,1.25 -1.711,1.032 -3.422,1.141c-1.739,0.081 -3.504,0.516 -3.776,3.042c-0.244,2.281 1.168,3.504 3.07,3.721c1.222,0.136 2.553,-0.109 3.53,-1.032c-0.027,0.38 0.028,0.733 0.082,1.113l2.797,0.299c-0.217,-0.489 -0.19,-1.494 -0.081,-2.526l0.597,-5.812c0.272,-2.689 -2.064,-3.422 -4.074,-3.64c-2.254,-0.244 -4.671,0.381 -5.106,3.233l2.743,0.244zm3.26,3.802c-0.082,0.679 -0.353,2.554 -2.499,2.336c-0.896,-0.081 -1.657,-0.461 -1.548,-1.602c0.108,-1.114 0.923,-1.358 1.792,-1.467c0.869,-0.081 1.847,0 2.363,-0.407l-0.108,1.14zm2.906,-11.108l-3.042,-0.326l-2.173,2.879l1.928,0.217l3.287,-2.77zm-24.282,12.466l9.153,1.603l0.408,-2.282l-5.541,-0.977l6.328,-5.568l0.408,-2.282l-8.393,-1.466l-0.407,2.281l4.807,0.842l-6.328,5.568l-0.435,2.281zm-13.037,-7.088c-0.652,2.906 1.304,4.427 3.558,5.051c2.227,0.598 4.699,0.272 5.46,-2.58c0.543,-2.01 -0.815,-3.042 -2.282,-3.857c-1.412,-0.814 -2.906,-1.358 -2.607,-2.417c0.244,-0.869 1.168,-0.76 1.765,-0.597c0.951,0.244 1.684,0.787 1.44,1.955l2.553,0.679c0.516,-2.716 -1.25,-4.047 -3.368,-4.617c-2.092,-0.571 -4.427,-0.435 -5.188,2.336c-0.516,1.901 0.869,2.933 2.309,3.721c1.792,0.977 2.824,1.602 2.58,2.498c-0.272,1.06 -1.358,1.114 -2.119,0.924c-1.059,-0.272 -1.901,-1.059 -1.575,-2.39l-2.526,-0.706z"
            clip-rule="evenodd" fill-rule="evenodd" />
        <path id="svg_55" fill="#C4000C"
            d="m222.535,294.851l152.194,-17.219l-12.24,-14.876l17.184,-50.237l-44.893,28.016l-6.224,-52.767l-28.359,44.824l-28.359,-44.824l-6.197,52.767l-44.92,-28.016l17.184,50.237l-14.46,-1.483l-0.91,33.578z" />
        <path id="svg_56" stroke-width="3.2056" stroke="black" fill="black"
            d="m373.536,290.134c-0.081,-22.598 -33.027,-40.904 -73.659,-40.904c-40.687,0 -73.687,18.36 -73.687,40.985c0,0.978 0.163,1.956 0.272,2.933l-0.272,11.734c0,0.896 0.163,1.765 0.244,2.634l-0.244,10.647c0,0.897 0.163,1.766 0.244,2.635l-0.244,10.647c0,22.652 33,43.076 73.687,43.076c40.686,0 73.686,-20.424 73.686,-43.076l0,-13.282l0,-1.466l0,-11.815l0,-1.467l-0.027,-13.281z" />
        <path id="svg_57" stroke-width="0.5463" stroke="black" fill="black"
            d="m226.163,331.499c0,22.652 33,43.077 73.687,43.077c40.686,0 73.686,-20.425 73.686,-43.077l0,-14.775l-147.047,0l-0.326,14.775z" />
        <path id="svg_58" stroke-width="0.5463" stroke="black" fill="black"
            d="m299.85,361.756c40.686,0 73.686,-22.271 73.686,-44.923c0,-22.652 -33,-41.013 -73.686,-41.013c-40.687,0 -73.687,18.361 -73.687,41.013c0,22.652 33,44.923 73.687,44.923z" />
        <path id="svg_59" stroke-width="0.5463" stroke="black" fill="#FFEC00"
            d="m299.85,316.724l29.034,-37.291c-8.908,-2.119 -18.713,-3.314 -29.034,-3.314c-10.321,0 -20.126,1.195 -29.035,3.314l29.035,37.291z" />
        <path id="svg_60" stroke-width="0.5463" stroke="black" fill="#FFEC00"
            d="m299.85,316.724l-67.033,-16.161c-3.829,4.971 -5.948,10.43 -5.948,16.161c0,5.731 2.119,11.19 5.948,16.16l67.033,-16.16z" />
        <path id="svg_61" stroke-width="0.5463" stroke="black" fill="#FFEC00"
            d="m299.85,316.724l-29.035,41.23c8.909,2.118 18.714,3.286 29.035,3.286c10.294,0 20.126,-1.195 29.034,-3.286l-29.034,-41.23z" />
        <path id="svg_62" stroke-width="0.5463" stroke="black" fill="#FFEC00"
            d="m299.85,316.724l67.032,16.16c3.83,-4.97 5.948,-10.429 5.948,-16.16c0,-5.731 -2.118,-11.19 -5.948,-16.161l-67.032,16.161z" />
        <path id="svg_63" stroke-width="0.3542" stroke="black" fill="black"
            d="m299.85,342.798c26.373,0 47.775,-11.896 47.775,-26.59c0,-14.694 -21.402,-26.59 -47.775,-26.59c-26.373,0 -47.776,11.896 -47.776,26.59c0,14.694 21.403,26.59 47.776,26.59z" />
        <path id="svg_64" stroke-width="1.4383" stroke="black" fill="#D8D9DB"
            d="m299.85,344.373c26.373,0 47.775,-11.896 47.775,-26.59c0,-14.667 -21.402,-26.59 -47.775,-26.59c-26.373,0 -47.776,11.923 -47.776,26.59c0,14.694 21.403,26.59 47.776,26.59z" />
        <path id="svg_65" stroke-width="0.5463" stroke="black" fill="#FFEC00"
            d="m231.514,333.754c0,0 17.301,19.827 39.301,24.2l-0.244,-1.277l0,13.01c-9.479,-1.249 -30.692,-8.664 -40.171,-25.395l1.114,-10.538z" />
        <path id="svg_66" stroke-width="0.5463" stroke="black" fill="#FFEC00"
            d="m367.48,333.754c0,0 -17.275,19.827 -39.302,24.2l0.272,-1.277l0,13.01c9.479,-1.249 30.664,-8.664 40.17,-25.395l-1.14,-10.538z" />
        <path id="svg_67" stroke-width="0.5463" stroke="black" fill="black"
            d="m226.163,318.218c0,22.652 33,43.049 73.687,43.049c40.686,0 73.686,-20.397 73.686,-43.049l0,-14.775l-147.047,0l-0.326,14.775z" />
        <path id="svg_68" stroke-width="0.5463" stroke="black" fill="black"
            d="m299.85,348.448c40.686,0 73.686,-22.272 73.686,-44.924c0,-22.652 -33,-41.012 -73.686,-41.012c-40.687,0 -73.687,18.36 -73.687,41.012c0,22.652 33,44.924 73.687,44.924z" />
        <path id="svg_69" stroke-width="0.5463" stroke="black" fill="#FFEC00"
            d="m299.85,303.443l29.034,-37.319c-8.908,-2.119 -18.713,-3.314 -29.034,-3.314c-10.321,0 -20.126,1.195 -29.035,3.314l29.035,37.319z" />
        <path id="svg_70" stroke-width="0.5463" stroke="black" fill="#FFEC00"
            d="m299.85,303.442l-67.033,-16.16c-3.829,4.97 -5.948,10.43 -5.948,16.16c0,5.731 2.119,11.191 5.948,16.161l67.033,-16.161z" />
        <path id="svg_71" stroke-width="0.5463" stroke="black" fill="#FFEC00"
            d="m299.85,303.442l-29.035,41.203c8.909,2.146 18.714,3.314 29.035,3.314c10.294,0 20.126,-1.168 29.034,-3.314l-29.034,-41.203z" />
        <path id="svg_72" stroke-width="0.5463" stroke="black" fill="#FFEC00"
            d="m299.85,303.442l67.032,16.161c3.83,-4.97 5.948,-10.43 5.948,-16.161c0,-5.73 -2.118,-11.217 -5.948,-16.16l-67.032,16.16z" />
        <path id="svg_73" stroke-width="0.3542" stroke="black" fill="black"
            d="m299.85,329.49c26.373,0 47.775,-11.897 47.775,-26.591c0,-14.666 -21.402,-26.59 -47.775,-26.59c-26.373,0 -47.776,11.897 -47.776,26.59c0,14.694 21.403,26.591 47.776,26.591z" />
        <path id="svg_74" stroke-width="1.4383" stroke="black" fill="#D8D9DB"
            d="m299.85,331.092c26.373,0 47.775,-11.896 47.775,-26.59c0,-14.694 -21.402,-26.591 -47.775,-26.591c-26.373,0 -47.776,11.897 -47.776,26.591c0,14.694 21.403,26.59 47.776,26.59z" />
        <path id="svg_75" stroke-width="0.5463" stroke="black" fill="#FFEC00"
            d="m231.514,320.472c0,0 17.301,19.827 39.301,24.2l-0.244,-1.276l0,13.009c-9.479,-1.249 -30.692,-8.664 -40.171,-25.395l1.114,-10.538z" />
        <path id="svg_76" stroke-width="0.5463" stroke="black" fill="#FFEC00"
            d="m367.48,320.472c0,0 -17.275,19.827 -39.302,24.2l0.272,-1.276l0,13.009c9.479,-1.249 30.664,-8.664 40.17,-25.395l-1.14,-10.538z" />
        <path id="svg_77" stroke-width="0.5463" stroke="black" fill="black"
            d="m226.163,304.909c0,22.625 33,43.05 73.687,43.05c40.686,0 73.686,-20.425 73.686,-43.05l0,-14.775l-147.047,0l-0.326,14.775z" />
        <path id="svg_78" stroke-width="0.5463" stroke="black" fill="black"
            d="m299.85,335.166c40.686,0 73.686,-22.272 73.686,-44.924c0,-22.652 -33,-40.985 -73.686,-40.985c-40.687,0 -73.687,18.36 -73.687,40.985c0,22.625 33,44.924 73.687,44.924z" />
        <path id="svg_79" stroke-width="0.5463" stroke="black" fill="black"
            d="m299.85,335.166c40.686,0 73.686,-22.272 73.686,-44.924c0,-22.652 -33,-40.985 -73.686,-40.985c-40.687,0 -73.687,18.36 -73.687,40.985c0,22.625 33,44.924 73.687,44.924z" />
        <path id="svg_80" stroke-width="0.5463" stroke="black" fill="#FFEC00"
            d="m299.85,290.134l29.034,-37.292c-8.908,-2.118 -18.713,-3.313 -29.034,-3.313c-10.321,0 -20.126,1.168 -29.035,3.313l29.035,37.292z" />
        <path id="svg_81" stroke-width="0.5463" stroke="black" fill="#FFEC00"
            d="m299.85,290.134l-67.033,-16.161c-3.829,4.971 -5.948,10.43 -5.948,16.161c0,5.731 2.119,11.19 5.948,16.16l67.033,-16.16z" />
        <path id="svg_82" stroke-width="0.5463" stroke="black" fill="#FFEC00"
            d="m299.85,290.134l-29.035,41.229c8.909,2.119 18.714,3.314 29.035,3.314c10.294,0 20.126,-1.195 29.034,-3.314l-29.034,-41.229z" />
        <path id="svg_83" stroke-width="0.5463" stroke="black" fill="#FFEC00"
            d="m299.85,290.134l67.032,16.16c3.83,-4.97 5.948,-10.429 5.948,-16.16c0,-5.731 -2.118,-11.19 -5.948,-16.161l-67.032,16.161z" />
        <path id="svg_84" stroke-width="0.3542" stroke="black" fill="black"
            d="m299.85,316.181c26.373,0 47.775,-11.897 47.775,-26.59c0,-14.667 -21.402,-26.591 -47.775,-26.591c-26.373,0 -47.776,11.897 -47.776,26.591c0,14.693 21.403,26.59 47.776,26.59z" />
        <path id="svg_85" stroke-width="1.4383" stroke="black" fill="white"
            d="m299.85,317.81c26.373,0 47.775,-11.923 47.775,-26.59c0,-14.667 -21.402,-26.59 -47.775,-26.59c-26.373,0 -47.776,11.923 -47.776,26.59c0,14.667 21.403,26.59 47.776,26.59z" />
        <path id="svg_86" stroke-width="0.5463" stroke="black" fill="#FFEC00"
            d="m231.514,307.163c0,0 17.301,19.828 39.301,24.201l-0.244,-1.277l0,13.01c-9.479,-1.25 -30.692,-8.664 -40.171,-25.395l1.114,-10.539z" />
        <path id="svg_87" stroke-width="0.5463" stroke="black" fill="#FFEC00"
            d="m367.48,307.163c0,0 -17.275,19.828 -39.302,24.201l0.272,-1.277l0,13.01c9.479,-1.25 30.664,-8.664 40.17,-25.395l-1.14,-10.539z" />
        <path id="svg_88" stroke-width="0.779" stroke="#96969A"
            d="m273.368,343.477c0,0 22.734,9.669 52.991,0.734" />
        <path id="svg_89" stroke-width="0.779" stroke="#96969A"
            d="m273.368,357.248c0,0 22.734,9.669 52.991,0.733" />
        <path id="svg_90" fill="#C4000C"
            d="m317.015,291.22l21.756,-4.862l-24.445,1.956l16.84,-9.208l-21.43,6.872l7.415,-11.978l-13.716,10.674l-3.422,-12.439l-3.45,12.439l-13.797,-10.484l7.523,11.788l-21.212,-6.763l16.622,9.099l-24.988,-2.064l22.299,4.97l-22.299,4.97l24.988,-2.091l-16.622,9.099l21.212,-6.736l-7.523,11.761l13.797,-10.457l3.45,12.412l3.422,-12.412l13.716,10.674l-7.415,-11.978l21.43,6.845l-16.84,-9.208l24.445,1.983l-21.756,-4.862z" />
        <path id="svg_91" stroke-miterlimit="3.8637" stroke-width="1.5" stroke="black" fill="white"
            d="m50.8958,19.8316c-0.7333,-2.363 -3.2321,-3.721 -5.6222,-2.9877l-26.7803,8.2025c-2.363,0.7333 -3.721,3.2321 -2.9877,5.6222l12.5754,41.1212c0.7333,2.3629 3.2321,3.721 5.6222,2.9876l26.7803,-8.2025c2.3902,-0.7333 3.721,-3.2321 2.9877,-5.6222l-12.5754,-41.1211z"
            clip-rule="evenodd" fill-rule="evenodd" />
        <path id="svg_92" fill="#C4000C"
            d="m35.686,34.3354l-4.1284,14.3408l11.8691,7.605l4.2914,-14.205l-12.0321,-7.7408z"
            clip-rule="evenodd" fill-rule="evenodd" />
        <path id="svg_93" stroke-miterlimit="3.8637" stroke-width="1.5" stroke="black" fill="white"
            d="m47.8267,26.2143c0,-2.4988 2.0099,-4.5086 4.5087,-4.5086l28.0025,0c2.4717,0 4.5087,2.0098 4.5087,4.5086l0,43.0224c0,2.4988 -2.0099,4.5086 -4.5087,4.5086l-28.0025,0c-2.4716,0 -4.5087,-2.0098 -4.5087,-4.5086l0,-43.0224z"
            clip-rule="evenodd" fill-rule="evenodd" />
        <path id="svg_94" stroke-miterlimit="3.8637" stroke-width="0.25" stroke="black" fill="black"
            d="m65.0465,45.2811l0.1086,2.3358l-2.3358,0l-0.3802,4.4272l2.4716,-0.1087l0.1358,3.4494l-1.7383,2.4445l4.8074,0l-1.2493,-2.3358l0.1358,-3.3136l3.4494,0l0.8419,-4.563l-4.0469,0l0.2445,-2.2l-2.4445,-0.1358z"
            clip-rule="evenodd" fill-rule="evenodd" />
        <path id="svg_95" stroke-miterlimit="3.8637" stroke-width="0.5" stroke="black" fill="black"
            d="m62.3848,41.6415c0,-2.2543 1.9284,-4.0469 4.2914,-4.0469c2.3901,0 4.2914,1.8197 4.2914,4.0469c0,2.2272 -1.9284,4.0469 -4.2914,4.0469c-2.363,0 -4.2914,-1.7926 -4.2914,-4.0469z"
            clip-rule="evenodd" fill-rule="evenodd" />
        <path id="svg_96" stroke-miterlimit="3.8637" stroke-width="0.5" stroke="black" fill="black"
            d="m68.3057,50.6045c0,-2.2543 1.9284,-4.0469 4.2914,-4.0469c2.3901,0 4.2914,1.8197 4.2914,4.0469c0,2.2543 -1.9284,4.0741 -4.2914,4.0741c-2.363,-0.0272 -4.2914,-1.8469 -4.2914,-4.0741z"
            clip-rule="evenodd" fill-rule="evenodd" />
        <path id="svg_97" stroke-miterlimit="3.8637" stroke-width="0.5" stroke="black" fill="black"
            d="m55.2687,50.2515c0,-2.2543 1.9284,-4.0469 4.2914,-4.0469c2.3901,0 4.2914,1.8197 4.2914,4.0469c0,2.2272 -1.9284,4.0469 -4.2914,4.0469c-2.363,0 -4.2914,-1.8197 -4.2914,-4.0469z"
            clip-rule="evenodd" fill-rule="evenodd" />
        <path id="svg_98" stroke-miterlimit="3.8637" stroke-width="1.5" stroke="black" fill="white"
            d="m81.2341,123.313c-0.7333,-2.39 -3.2321,-3.721 -5.6222,-2.987l-26.7804,8.202c-2.3901,0.734 -3.721,3.232 -2.9876,5.622l12.5753,41.122c0.7334,2.39 3.2321,3.721 5.6223,2.987l26.7803,-8.202c2.3901,-0.734 3.721,-3.232 2.9877,-5.622l-12.5754,-41.122z"
            clip-rule="evenodd" fill-rule="evenodd" />
        <path id="svg_99" stroke-miterlimit="3.8637" stroke-width="0.1749" stroke="black"
            fill="black"
            d="m84.0045,155.906c-5.5407,1.82 -9.1531,-0.598 -10.9185,-5.894l0.0815,-0.027c1.6839,1.738 4.1555,2.852 6.5728,1.983c2.4988,-0.897 3.7482,-3.613 2.8247,-6.139c-1.0864,-2.987 -4.2099,-4.128 -6.9259,-5.269c-3.5037,-1.385 -6.3556,-2.824 -8.4741,-6.138c0.7062,3.938 -0.9506,7.714 -2.9062,11c-1.4123,2.363 -2.5531,4.97 -1.5753,7.686c0.9234,2.526 3.721,3.694 6.1926,2.798c2.3901,-0.869 3.7482,-3.341 3.8025,-5.758l0.0815,-0.027c2.1185,5.052 0.679,9.669 -4.6717,11.57l0.1358,0.842l16.2149,-5.894l-0.4346,-0.733z"
            clip-rule="evenodd" fill-rule="evenodd" />
        <path id="svg_100" stroke-miterlimit="3.8637" stroke-width="1.5" stroke="black" fill="white"
            d="m76.8613,129.696c0,-2.471 2.0099,-4.509 4.5087,-4.509l28.003,0c2.498,0 4.508,2.01 4.508,4.509l0,43.022c0,2.472 -2.01,4.509 -4.508,4.509l-28.003,0c-2.4716,0 -4.5087,-2.01 -4.5087,-4.509l0,-43.022z"
            clip-rule="evenodd" fill-rule="evenodd" />
        <path id="svg_101" stroke-miterlimit="3.8637" stroke-width="0.2875" stroke="#C73326"
            fill="#C4000C"
            d="m96.6071,146.183c0.8963,-3.395 2.8518,-6.111 5.8669,-5.297c3.015,0.815 4.291,3.586 3.476,6.6c-0.815,3.015 -8.9084,12.168 -10.1034,15.074c-0.9235,-3.014 -9.126,-12.33 -9.6692,-15.427c-0.5432,-3.069 0.9778,-5.731 4.0469,-6.274c3.0692,-0.543 4.7803,2.336 5.3778,5.785c0.6247,3.477 0.0815,2.934 1.005,-0.461z"
            clip-rule="evenodd" fill-rule="evenodd" />
        <path id="svg_102" stroke-miterlimit="3.8637" stroke-width="1.5" stroke="black" fill="white"
            d="m315.141,124.02c-0.57,-2.418 -2.96,-3.939 -5.405,-3.368l-27.296,6.301c-2.417,0.57 -3.938,2.988 -3.368,5.405l9.669,41.909c0.571,2.417 2.961,3.938 5.405,3.367l27.296,-6.301c2.418,-0.57 3.939,-2.987 3.368,-5.405l-9.669,-41.908z"
            clip-rule="evenodd" fill-rule="evenodd" />
        <path id="svg_103" stroke-miterlimit="3.8637" stroke-width="0.1749" stroke="black"
            fill="black"
            d="m315.304,158.676c-5.676,1.331 -9.071,-1.385 -10.375,-6.817l0.081,-0.027c1.521,1.874 3.884,3.205 6.383,2.526c2.58,-0.679 4.047,-3.287 3.341,-5.867c-0.815,-3.069 -3.83,-4.481 -6.464,-5.867c-3.368,-1.683 -6.084,-3.367 -7.904,-6.844c0.353,3.993 -1.63,7.605 -3.857,10.701c-1.602,2.255 -2.988,4.726 -2.227,7.524c0.706,2.607 3.395,4.02 5.921,3.341c2.471,-0.652 4.047,-3.015 4.291,-5.405l0.082,-0.028c1.684,5.215 -0.163,9.697 -5.677,11.136l0.082,0.842l16.676,-4.454l-0.353,-0.761z"
            clip-rule="evenodd" fill-rule="evenodd" />
        <path id="svg_104" stroke-miterlimit="3.8637" stroke-width="1.5" stroke="black" fill="white"
            d="m311.475,132.086c0,-2.498 2.009,-4.508 4.508,-4.508l28.003,0c2.499,0 4.508,2.01 4.508,4.508l0,43.023c0,2.471 -2.009,4.508 -4.508,4.508l-28.003,0c-2.499,0 -4.508,-2.01 -4.508,-4.508l0,-43.023z"
            clip-rule="evenodd" fill-rule="evenodd" />
        <path id="svg_105" fill="#C4000C"
            d="m329.672,142.706l-8.148,11.788l8.556,11.217l8.881,-11.869l-9.289,-11.136z"
            clip-rule="evenodd" fill-rule="evenodd" />
        <path id="svg_106" stroke-miterlimit="3.8637" stroke-width="1.5" stroke="black" fill="white"
            d="m347.517,22.276c-0.462,-2.4445 -2.825,-4.0198 -5.27,-3.5581l-27.486,5.3507c-2.445,0.4617 -4.02,2.8247 -3.558,5.2691l8.202,42.2347c0.462,2.4445 2.825,4.0198 5.27,3.5581l27.486,-5.3507c2.445,-0.4617 4.02,-2.8247 3.558,-5.2691l-8.202,-42.2347z"
            clip-rule="evenodd" fill-rule="evenodd" />
        <path id="svg_107" stroke-miterlimit="3.8637" stroke-width="0.2875" stroke="#C73326"
            fill="#C4000C"
            d="m333.067,41.2883c0,-3.5037 1.168,-6.6272 4.292,-6.6272c3.123,0 5.079,2.3358 5.079,5.4593c0,3.1234 -3.993,13.8519 -4.4,16.9753c-1.684,-2.6617 -13.472,-9.3704 -14.803,-12.1951c-1.331,-2.8247 -0.543,-5.7852 2.282,-7.0889c2.824,-1.3308 5.214,1.005 6.708,4.2099c1.494,3.1778 0.842,2.7704 0.842,-0.7333z"
            clip-rule="evenodd" fill-rule="evenodd" />
        <path id="svg_108" stroke-miterlimit="3.8637" stroke-width="1.5" stroke="black" fill="white"
            d="m343.578,25.8611c0.217,-2.4716 2.39,-4.2913 4.862,-4.0741l27.894,2.4445c2.471,0.2173 4.318,2.3901 4.101,4.8617l-3.748,42.8594c-0.217,2.4716 -2.39,4.2914 -4.862,4.1013l-27.894,-2.4445c-2.471,-0.2173 -4.291,-2.3901 -4.101,-4.8617l3.748,-42.8866z"
            clip-rule="evenodd" fill-rule="evenodd" />
        <path id="svg_109" stroke-miterlimit="3.8637" stroke-width="0.25" stroke="black"
            fill="black"
            d="m359.413,46.2586l0.136,2.3358l-2.336,0l-0.38,4.4272l2.471,-0.1358l0.109,3.4494l-1.711,2.4716l4.97,0.0543l-1.412,-2.3901l0.136,-3.3407l3.449,0l0.842,-4.5359l-4.047,0l0.245,-2.2271l-2.472,-0.1087z"
            clip-rule="evenodd" fill-rule="evenodd" />
        <path id="svg_110" stroke-miterlimit="3.8637" stroke-width="0.5" stroke="black" fill="black"
            d="m356.778,42.5919c0,-2.2543 1.929,-4.0469 4.292,-4.0469c2.39,0 4.318,1.8198 4.318,4.0469c0,2.2544 -1.928,4.047 -4.318,4.047c-2.363,0.0271 -4.292,-1.7926 -4.292,-4.047z"
            clip-rule="evenodd" fill-rule="evenodd" />
        <path id="svg_111" stroke-miterlimit="3.8637" stroke-width="0.5" stroke="black" fill="black"
            d="m363.025,51.4192c0,-2.2543 1.929,-4.0469 4.292,-4.0469c2.39,0 4.291,1.8197 4.291,4.0469c0,2.2272 -1.928,4.0469 -4.291,4.0469c-2.363,0.0272 -4.292,-1.7926 -4.292,-4.0469z"
            clip-rule="evenodd" fill-rule="evenodd" />
        <path id="svg_112" stroke-miterlimit="3.8637" stroke-width="0.5" stroke="black" fill="black"
            d="m349.662,51.2019c0,-2.2543 1.929,-4.0469 4.292,-4.0469c2.39,0 4.291,1.8198 4.291,4.0469c0,2.2544 -1.928,4.047 -4.291,4.047c-2.363,0.0271 -4.292,-1.7926 -4.292,-4.047z"
            clip-rule="evenodd" fill-rule="evenodd" />
        <path id="svg_113" stroke-miterlimit="3.8637" stroke-width="1.5" stroke="black" fill="white"
            d="m136.859,28.1428c-0.706,-2.2815 0.598,-4.726 2.879,-5.4321l46.282,-14.15071c2.281,-0.70618 4.726,0.59753 5.432,2.87901l19.936,65.1583c0.706,2.3086 -0.598,4.7259 -2.879,5.4321l-46.282,14.1506c-2.309,0.7062 -4.726,-0.5975 -5.432,-2.879l-19.936,-65.1582z"
            clip-rule="evenodd" fill-rule="evenodd" />
        <path id="svg_114" fill="#C4000C"
            d="m171.109,34.9057l-6.763,21.1309l17.41,11.1358l6.274,-20.7778l-16.921,-11.4889z"
            clip-rule="evenodd" fill-rule="evenodd" />
        <path id="svg_115" stroke-miterlimit="3.8637" stroke-width="1.5" stroke="black" fill="white"
            d="m186.291,20.2389c0.136,-2.3901 2.173,-4.237 4.563,-4.1012l48.346,2.5259c2.39,0.1358 4.237,2.1729 4.101,4.563l-3.558,68.0644c-0.135,2.3901 -2.173,4.2371 -4.563,4.1013l-48.346,-2.526c-2.39,-0.1358 -4.237,-2.1728 -4.101,-4.563l3.558,-68.0644z"
            clip-rule="evenodd" fill-rule="evenodd" />
        <path id="svg_116" stroke-miterlimit="3.8637" stroke-width="0.25" stroke="black"
            fill="black"
            d="m212.501,50.7132l0.19,3.5852l-3.585,0l-0.57,6.7902l3.775,-0.1902l0.19,5.2964l-2.634,3.7753l7.605,0l-2.146,-3.5852l0.19,-5.1062l5.296,0l1.304,-6.9803l-6.22,0l0.381,-3.3951l-3.776,-0.1901z"
            clip-rule="evenodd" fill-rule="evenodd" />
        <path id="svg_117" stroke-miterlimit="3.8637" stroke-width="0.5" stroke="black" fill="black"
            d="m208.454,45.1181c0,-3.4494 2.961,-6.2198 6.6,-6.2198c3.64,0 6.6,2.7975 6.6,6.2198c0,3.4494 -2.96,6.2197 -6.6,6.2197c-3.639,0 -6.6,-2.7703 -6.6,-6.2197z"
            clip-rule="evenodd" fill-rule="evenodd" />
        <path id="svg_118" stroke-miterlimit="3.8637" stroke-width="0.5" stroke="black" fill="black"
            d="m217.499,58.8071c0,-3.4494 2.96,-6.2198 6.6,-6.2198c3.639,0 6.6,2.7975 6.6,6.2198c0,3.4494 -2.961,6.2198 -6.6,6.2198c-3.64,0.0271 -6.6,-2.7704 -6.6,-6.2198z"
            clip-rule="evenodd" fill-rule="evenodd" />
        <path id="svg_119" stroke-miterlimit="3.8637" stroke-width="0.5" stroke="black" fill="black"
            d="m197.509,58.3181c0,-3.4494 2.96,-6.2197 6.6,-6.2197c3.639,0 6.6,2.7975 6.6,6.2197c0,3.4494 -2.961,6.2198 -6.6,6.2198c-3.64,0 -6.6,-2.7704 -6.6,-6.2198z"
            clip-rule="evenodd" fill-rule="evenodd" />
        <rect id="svg_120" transform="matrix(1, 0, 0, 1, 7.105427357601002e-15, 0)" fill="black"
            height="4" width="392" />
    </g>
</svg>