<svg xmlns="http://www.w3.org/2000/svg" xmlns:xlink="http://www.w3.org/1999/xlink" width="310"
    height="146" stroke="#000" stroke-linecap="round" stroke-linejoin="round" fill="#fff"
    fill-rule="evenodd">
    <style>
        <![CDATA[.B{stroke:none}.C{fill:#000}.D{stroke-width:1.5}.E{stroke-width:.5463}.F{fill:#c4000c}.G{fill:none}.H{stroke-linejoin:miter}.I{stroke-width:1.25}.J{stroke-width:2.5}.K{fill:#ffec00}.L{fill-rule:nonzero}.M{stroke-width:.3542}.N{stroke-width:1.4383}.O{stroke-width:.25}.P{stroke-width:.5}.Q{stroke-linecap:butt}.R{stroke-width:.1749}.S{stroke-width:.2875}]]>
    </style>
    <g class="B">
        <path
            d="M305.7569 1.0294v37.0564c0 28.7805-66.1974 48.3066-150.2278 48.3066S4.5098 66.191 4.5098 37.411L4.4455 1.0294h301.3114z"
            fill="#209740" />
        <path
            d="M233.1889.8253v22.3211c0 13.527-36.7788 27.0993-79.8901 27.0993s-76.64-13.5723-76.64-27.0993L76.6161.8253h156.5728z"
            class="F" />
    </g>
    <g class="G">
        <path
            d="M233.2319.8253l-.043 22.3211c0 13.527-36.7788 27.0993-79.8901 27.0993s-76.64-13.5723-76.64-27.0993L76.6161.8253"
            stroke-width="1.6507" class="H Q" />
        <g stroke="#fff" class="I">
            <use xlink:href="#B" />
            <use xlink:href="#C" />
            <use xlink:href="#D" />
            <use xlink:href="#E" />
            <use xlink:href="#F" />
            <use xlink:href="#G" />
            <use xlink:href="#H" />
            <use xlink:href="#I" />
            <use xlink:href="#J" />
            <use xlink:href="#K" />
            <use xlink:href="#L" />
            <use xlink:href="#M" />
        </g>
        <g class="J">
            <use xlink:href="#B" />
            <use xlink:href="#C" />
            <use xlink:href="#D" />
            <use xlink:href="#E" />
            <use xlink:href="#F" />
            <use xlink:href="#G" />
            <use xlink:href="#H" />
            <use xlink:href="#I" />
            <use xlink:href="#J" />
            <use xlink:href="#K" />
            <use xlink:href="#L" />
            <use xlink:href="#M" />
        </g>
    </g>
    <g class="B L">
        <use xlink:href="#B" />
        <use xlink:href="#C" />
        <use xlink:href="#D" />
        <use xlink:href="#E" />
        <use xlink:href="#F" />
        <use xlink:href="#G" />
        <use xlink:href="#H" />
        <use xlink:href="#I" />
        <use xlink:href="#J" />
        <use xlink:href="#K" />
        <use xlink:href="#L" />
        <use xlink:href="#M" />
    </g>
    <g class="G">
        <use xlink:href="#N" class="I" />
        <use xlink:href="#N" class="J" />
    </g>
    <use xlink:href="#N" class="B" />
    <g class="G">
        <use xlink:href="#O" class="I" />
        <use xlink:href="#O" class="J" />
    </g>
    <use xlink:href="#O" class="B" />
    <g class="G">
        <use xlink:href="#P" class="I" />
        <use xlink:href="#P" class="J" />
    </g>
    <use xlink:href="#P" class="B" />
    <g class="G">
        <use xlink:href="#Q" class="I" />
        <use xlink:href="#Q" class="J" />
    </g>
    <use xlink:href="#Q" class="B" />
    <g class="G">
        <use xlink:href="#R" class="I" />
        <use xlink:href="#R" class="J" />
    </g>
    <use xlink:href="#R" class="B" />
    <g class="H">
        <g class="L">
            <g class="C">
                <path
                    d="M294.0899 98.1819c-.065-7.6142-26.0026-13.7823-57.9924-13.7823-32.0346 0-58.015 6.1872-58.015 13.8103 0 .3287.1284.6593.2132.9874l-.2132 3.9552c0 .3016.1284.5945.1921.8874l-.1921 3.5873c0 .3016.1284.5945.1921.8874l-.1921 3.5873c0 7.6328 25.9804 14.5145 58.015 14.5145s58.0138-6.8817 58.0138-14.5145v-4.4747-.4945-3.9802-.4959l-.0214-4.4747z"
                    stroke-width="3.2056" />
                <g class="E">
                    <path
                        d="M178.0612 112.1197c0 7.6328 25.9804 14.5149 58.015 14.5149s58.0138-6.8821 58.0138-14.5149v-4.9779H178.3178l-.2566 4.9779z" />
                    <path
                        d="M236.0762 122.315c32.0322 0 58.0138-7.503 58.0138-15.1358s-25.9816-13.82-58.0138-13.82-58.015 6.1872-58.015 13.82 25.9804 15.1358 58.015 15.1358z" />
                </g>
            </g>
            <g class="K E">
                <path
                    d="M236.076 107.1414l22.8587-12.5645c-7.0135-.7149-14.7329-1.117-22.8587-1.117s-15.8455.4021-22.8597 1.117l22.8597 12.5645z" />
                <path
                    d="M236.0763 107.1411L183.3 101.6963c-3.0145 1.6748-4.6829 3.5139-4.6829 5.4448s1.6684 3.7707 4.6829 5.4462l52.7763-5.4462z" />
                <path
                    d="M236.076 107.1418l-22.8597 13.8925c7.0142.7134 14.735 1.1078 22.8597 1.1078 8.1048 0 15.8452-.4031 22.8587-1.1078l-22.8587-13.8925z" />
                <use xlink:href="#S" />
            </g>
            <path
                d="M236.0759 115.9274c20.7638 0 37.6139-4.009 37.6139-8.9594s-16.8501-8.9596-37.6139-8.9596-37.6146 4.0091-37.6146 8.9596 16.8508 8.9594 37.6146 8.9594z"
                class="C M" />
            <path
                d="M236.0759 116.4581c20.7638 0 37.6139-4.009 37.6139-8.9594 0-4.9416-16.8501-8.9596-37.6139-8.9596s-37.6146 4.018-37.6146 8.9596c0 4.9504 16.8508 8.9594 37.6146 8.9594z"
                fill="#d8d9db" class="N" />
            <g class="E">
                <g class="K">
                    <use xlink:href="#T" />
                    <use xlink:href="#U" />
                </g>
                <g class="C">
                    <path
                        d="M178.0612 107.6447c0 7.6328 25.9804 14.5058 58.015 14.5058s58.0138-6.873 58.0138-14.5058v-4.9779H178.3178l-.2566 4.9779z" />
                    <path
                        d="M236.0762 117.8308c32.0322 0 58.0138-7.5036 58.0138-15.1361S268.1084 88.875 236.0762 88.875s-58.015 6.1872-58.015 13.8197 25.9804 15.1361 58.015 15.1361z" />
                </g>
                <g class="K">
                    <path
                        d="M236.076 102.6673l22.8587-12.5749c-7.0135-.7149-14.7329-1.117-22.8587-1.117s-15.8455.4021-22.8597 1.117l22.8597 12.5749z" />
                    <path
                        d="M236.0763 102.6661L183.3 97.2213c-3.0145 1.6748-4.6829 3.5139-4.6829 5.4448s1.6684 3.7707 4.6829 5.4462l52.7763-5.4462z" />
                    <path
                        d="M236.076 102.6664l-22.8597 13.8838c7.0142.7221 14.735 1.1165 22.8597 1.1165 8.1048 0 15.8452-.3944 22.8587-1.1165l-22.8587-13.8838z" />
                    <path
                        d="M236.076 102.6661l52.7753 5.4462c3.0161-1.6755 4.6839-3.5148 4.6839-5.4462s-1.6678-3.7787-4.6839-5.4448l-52.7753 5.4448z" />
                </g>
            </g>
            <use xlink:href="#V" class="C M" />
            <path
                d="M236.0759 111.9836c20.7638 0 37.6139-4.0093 37.6139-8.9603s-16.8501-8.9596-37.6139-8.9596-37.6146 4.0093-37.6146 8.9596 16.8508 8.9603 37.6146 8.9603z"
                fill="#d8d9db" class="N" />
            <g class="E">
                <g class="K">
                    <use xlink:href="#T" y="-4.4754" />
                    <use xlink:href="#U" y="-4.4754" />
                </g>
                <g class="C">
                    <path
                        d="M178.0612 103.1602c0 7.6241 25.9804 14.5058 58.015 14.5058s58.0138-6.8817 58.0138-14.5058v-4.9779H178.3178l-.2566 4.9779z" />
                    <use xlink:href="#W" />
                    <use xlink:href="#W" />
                </g>
                <g class="K">
                    <path
                        d="M236.076 98.1819l22.8587-12.5655c-7.0135-.7139-14.7329-1.116-22.8587-1.116s-15.8455.393-22.8597 1.116l22.8597 12.5655z" />
                    <path
                        d="M236.0763 98.1816L183.3 92.7368c-3.0145 1.6748-4.6829 3.5139-4.6829 5.4448s1.6684 3.7707 4.6829 5.4462l52.7763-5.4462z" />
                    <path
                        d="M236.076 98.1823l-22.8597 13.8925c7.0142.7134 14.735 1.1165 22.8597 1.1165 8.1048 0 15.8452-.4031 22.8587-1.1165L236.076 98.1823z" />
                    <use xlink:href="#S" y="-8.9595" />
                </g>
            </g>
            <use xlink:href="#V" y="-4.4845" class="C M" />
            <path
                d="M236.0759 107.5077c20.7638 0 37.6139-4.0178 37.6139-8.9594s-16.8501-8.9596-37.6139-8.9596-37.6146 4.018-37.6146 8.9596 16.8508 8.9594 37.6146 8.9594z"
                class="N" />
            <path
                d="M182.275 103.9202s13.6214 6.6806 30.9414 8.1541l-.1921-.4299v4.3844c-7.4621-.4221-24.1643-2.9199-31.6273-8.5575l.878-3.5511zm107.0469 0s-13.6006 6.6806-30.9429 8.1541l.2132-.4299v4.3844c7.4641-.4221 24.1428-2.9199 31.6262-8.5575l-.8965-3.5511z"
                class="E K" />
        </g>
        <path
            d="M215.2263 116.1563s17.8987 3.2582 41.7206.248m-41.7206 4.3921s17.8987 3.2582 41.7206.2476"
            stroke="#96969a" stroke-width=".779" class="G Q" />
    </g>
    <path
        d="M249.5901 98.5477l17.1294-1.638-19.2463.6602 13.2582-3.103-16.8713 2.3143 5.8372-4.0349-10.7988 3.5969-2.6943-4.192-2.7161 4.192-10.8626-3.5327 5.923 3.9707-16.7005-2.278 13.0868 3.0667-19.6735-.696 17.5563 1.6738-17.5563 1.6757 19.6735-.7047-13.0868 3.0653 16.7005-2.2698-5.923 3.9634 10.8626-3.5235 2.7161 4.1818 2.6943-4.1818 10.7988 3.596-5.8372-4.0359 16.8713 2.3075-13.2582-3.103 19.2463.667-17.1294-1.638z"
        class="B F L" />
    <path
        d="M40.071 7.1035c-.577-.7968-2.5447-1.2541-4.4261-1.0064L14.5602 8.8608c-1.8602.2467-2.9299 1.0883-2.3524 1.8939l9.9006 13.8562c.5776.7957 2.5452 1.2531 4.4266 1.0064l21.0847-2.7638c1.8819-.2467 2.9297-1.0893 2.3523-1.8939L40.071 7.1035z"
        class="D H" />
    <path d="M28.0962 11.9906l-3.2505 4.8329 9.3449 2.5612 3.3786-4.7855-9.473-2.6086z" class="B F" />
    <g class="H">
        <path
            d="M37.6546 9.2537c0-.8415 1.5827-1.5187 3.5488-1.5187H63.252c1.9452 0 3.5489.6772 3.5489 1.5187v14.4966c0 .8422-1.5827 1.5196-3.5489 1.5196H41.2034c-1.945 0-3.5488-.6774-3.5488-1.5196V9.2537z"
            class="D" />
        <g class="C">
            <path
                d="M51.2121 15.6787l.0854.7874h-1.839l-.2993 1.4907 1.9458-.0353.1071 1.1614-1.3686.8238h3.7848l-.9834-.7871.1079-1.1165h2.7156l.662-1.537H52.945l.1922-.7424-1.9251-.045z"
                class="O" />
            <path
                d="M49.1164 14.4533c0-.7598 1.5182-1.3645 3.3786-1.3645 1.8814 0 3.3787.6133 3.3787 1.3645s-1.5182 1.363-3.3787 1.363-3.3786-.6038-3.3786-1.363zm4.6616 3.0201c0-.7598 1.5182-1.3645 3.3786-1.3645 1.8814 0 3.3787.6133 3.3787 1.3645 0 .7592-1.5182 1.3717-3.3787 1.3717-1.8604-.0087-3.3786-.6222-3.3786-1.3717zm-10.2642-.119c0-.7598 1.5182-1.3645 3.3786-1.3645 1.8814 0 3.3787.6133 3.3787 1.3645s-1.5182 1.363-3.3787 1.363-3.3786-.6135-3.3786-1.363z"
                class="P" />
        </g>
        <path
            d="M63.956 41.9715c-.5766-.8053-2.5443-1.2534-4.4265-1.0063l-21.0842 2.7637c-1.8811.2472-2.9289 1.0889-2.3521 1.8938l9.9013 13.8562c.5767.8056 2.544 1.2541 4.4263 1.0065l21.084-2.7636c1.8814-.247 2.9292-1.0885 2.3526-1.8941L63.956 41.9715z"
            class="D" />
        <path
            d="M66.1376 52.9548c-4.3622.6119-7.2063-.203-8.596-1.9865l.0639-.0087c1.3258.5856 3.272.9599 5.1751.667 1.9673-.3016 2.9509-1.2175 2.2242-2.0677-.8556-1.0063-3.3149-1.392-5.4534-1.7752-2.7583-.4665-5.0036-.9518-6.6716-2.0688.556 1.3268-.7486 2.5999-2.2879 3.707-1.1119.7953-2.0104 1.674-1.2402 2.5898.7268.8503 2.9294 1.2447 4.8751.9431 1.8818-.2929 2.951-1.1264 2.994-1.9403l.0642-.0094c1.668 1.7022.5344 3.2576-3.6784 3.8985l.1072.2842 12.7664-1.9865-.3426-.2465z"
            class="C R" />
        <path
            d="M60.5139 44.122c0-.8329 1.5827-1.5189 3.5488-1.5189h22.0486c1.9661 0 3.5487.6772 3.5487 1.5189v14.4964c0 .8328-1.5826 1.5196-3.5487 1.5196H64.0627c-1.945 0-3.5488-.6772-3.5488-1.5196V44.122z"
            class="D" />
        <path
            d="M76.0599 49.6785c.7059-1.1451 2.2452-2.059 4.6191-1.7859s3.3786 1.2088 2.7368 2.224-7.0138 4.1004-7.9546 5.0802c-.7271-1.0163-7.1848-4.1553-7.6125-5.1992-.4278-1.0331.7698-1.9311 3.186-2.114s3.7635.788 4.234 1.9492c.4921 1.1715.0643.9886.7912-.1543z"
            stroke="#c73326" class="F S" />
        <path
            d="M248.1148 42.2108c-.4487-.8149-2.3305-1.3279-4.2555-1.1359l-21.4904 2.1237c-1.903.1925-3.1005 1.0074-2.6517 1.8214l7.6126 14.1213c.4496.8146 2.3312 1.3266 4.2554 1.1339l21.4903-2.1228c1.9036-.1916 3.1013-1.0063 2.6518-1.8212l-7.6125-14.1204z"
            class="D" />
        <path
            d="M248.2432 53.888c-4.4689.4475-7.142-.4669-8.1681-2.2968l.0632-.0095c1.1975.6305 3.0581 1.0796 5.0257.8505 2.031-.2291 3.1863-1.1078 2.6304-1.9772-.6419-1.033-3.0154-1.5086-5.0894-1.9757-2.6518-.5682-4.7899-1.1353-6.2231-2.3068.278 1.3452-1.2833 2.5622-3.0362 3.6062-1.2617.7598-2.3529 1.5921-1.7532 2.5346.5554.8787 2.6727 1.3543 4.6615 1.1252 1.9453-.219 3.1863-1.015 3.3783-1.8212l.0645-.0087c1.3261 1.7574-.1284 3.268-4.4697 3.7526l.0647.2842 13.129-1.5022-.2776-.2552z"
            class="C R" />
        <path
            d="M245.2285 44.927c0-.841 1.5818-1.5182 3.5488-1.5182h22.0472c1.9676 0 3.5495.6772 3.5495 1.5182v14.4971c0 .8323-1.5819 1.5196-3.5495 1.5196h-22.0472c-1.967 0-3.5488-.6781-3.5488-1.5196V44.927z"
            class="D" />
    </g>
    <path d="M259.5552 48.5062l-6.415 3.9716 6.737 3.7797 6.9915-3.9995-7.3135-3.7518z" class="B F" />
    <g class="H">
        <path
            d="M273.6048 7.9273c-.3636-.8236-2.2239-1.3546-4.1499-1.1991l-21.6392 1.8031c-1.9249.1555-3.1649.9519-2.8014 1.7755l6.4576 14.2305c.3626.8236 2.2229 1.3547 4.1491 1.1991l21.6395-1.8025c1.9256-.156 3.1656-.952 2.8019-1.7757l-6.4576-14.2309z"
            class="D" />
        <path
            d="M262.2287 14.3334c0-1.1811.9193-2.2331 3.3794-2.2331s3.9985.7874 3.9985 1.8401-3.144 4.6661-3.4643 5.7188c-1.3261-.8961-10.6073-3.1573-11.6551-4.1093s-.4274-1.9488 1.7972-2.3876c2.2233-.4487 4.1048.3377 5.2816 1.419 1.1759 1.0701.6627.9331.6627-.2479z"
            stroke="#c73326" class="F S" />
        <path
            d="M270.5036 9.1347c.1708-.8323 1.8818-1.4466 3.8277-1.3722l21.9615.8238c1.9455.0728 3.3996.8041 3.2288 1.6377l-2.9509 14.4407c-.1706.8337-1.8817 1.4466-3.828 1.3828l-21.961-.8236c-1.9455-.073-3.3789-.8062-3.2289-1.6385l2.9508-14.4507z"
            class="D" />
        <g class="C">
            <path
                d="M282.9707 16.0081l.1071.7874h-1.839l-.2993 1.4907 1.9452-.045.086 1.1615-1.347.8334 3.9138.0191-1.1125-.8062.1081-1.1252h2.7156l.6617-1.5283h-3.1851l.1922-.7511-1.9468-.0363z"
                class="O" />
            <path
                d="M280.8962 14.7735c0-.7598 1.5187-1.3645 3.3792-1.3645 1.8808 0 3.3996.6133 3.3996 1.3645 0 .7593-1.5188 1.363-3.3996 1.363-1.8605.0087-3.3792-.6037-3.3792-1.363zm4.9183 2.9744c0-.7598 1.5187-1.3645 3.3792-1.3645 1.8808 0 3.3782.6133 3.3782 1.3645s-1.5178 1.363-3.3782 1.363c-1.8605.0087-3.3792-.6038-3.3792-1.363zm-10.5209-.0733c0-.7598 1.5187-1.3645 3.3792-1.3645 1.8808 0 3.3782.6133 3.3782 1.3645 0 .7593-1.5178 1.363-3.3782 1.363-1.8605.0087-3.3792-.6037-3.3792-1.363z"
                class="P" />
        </g>
        <path
            d="M107.751 9.9037c-.5559-.7687.4709-1.5923 2.2666-1.8302l36.4384-4.768c1.7955-.2378 3.7213.2013 4.2768.97l15.6958 21.9551c.556.778-.4708 1.5924-2.2666 1.8304l-36.4387 4.768c-1.8178.2379-3.7207-.2012-4.2765-.9699L107.751 9.9037z"
            class="D" />
    </g>
    <path d="M134.7163 12.1827l-5.3245 7.1208 13.7071 3.7519 4.9401-7.002-13.3227-3.8707z"
        class="B F" />
    <g class="H">
        <path
            d="M146.6699 7.2408c.1066-.8052 1.7107-1.4275 3.5923-1.3819l38.0634.8512c1.8813.0459 3.3358.7322 3.2287 1.5376l-2.8009 22.9342c-.1064.8054-1.7112 1.4278-3.5931 1.3821l-38.0629-.8513c-1.8819-.0457-3.3359-.732-3.2293-1.5375l2.8018-22.9344z"
            class="D" />
        <g class="C">
            <path
                d="M167.3056 17.5091l.1488 1.2079h-2.821l-.4502 2.2881 2.9722-.0638.1502 1.7837-2.0745 1.2729h5.9874l-1.6892-1.2087.1494-1.7203h4.1695l1.0276-2.3519h-4.898l.3-1.1434-2.9722-.0645z"
                class="O" />
            <path
                d="M164.1187 15.6233c0-1.1623 2.3312-2.0953 5.1963-2.0953s5.1965.9429 5.1965 2.0953c0 1.1629-2.3307 2.0967-5.1965 2.0967s-5.1963-.9338-5.1963-2.0967zm7.1212 4.6126c0-1.1623 2.3304-2.0953 5.1963-2.0953s5.1965.9429 5.1965 2.0953c0 1.1629-2.3313 2.0967-5.1965 2.0967-2.8659.0087-5.1963-.9338-5.1963-2.0967zm-15.7384-.1648c0-1.1624 2.3304-2.0953 5.1963-2.0953s5.1965.9429 5.1965 2.0953c0 1.1629-2.3313 2.0967-5.1965 2.0967s-5.1963-.9338-5.1963-2.0967z"
                class="P" />
        </g>
    </g>
    <path d="M0 .4212h308.6274v1.3471H0z" class="B C L" />
    <defs>
        <path id="B"
            d="M97.4442 36.389c.1709-.0999.3851-.1828.8766-.3745l-.0215-.009c-.7267.0728-1.7952.1099-2.7801-.3573-1.2187-.5854-1.0045-1.2261.4063-1.7478 1.6684-.623 3.5076-.3301 5.1963.4756l.6205.2929c.5984-.2291 1.5611-.5129.7485-.8696-.4915-.2196-1.2616-.0551-1.6682.1011l-1.8385-.8787c.9617-.3754 1.8812-.403 2.7161-.2751.8551.1285 1.6032.4213 2.1804.6957 1.0479.504 1.7321 1.3368.1921 1.9133l-3.4855 1.3359c-.2779.1094-.5345.2474-1.2825.5853l-1.8605-.8878zm.2999-.9603c.8544.4031 1.9672.0363 2.8649-.3112-.4068-.2017-.7693-.3935-1.2193-.4573-.4701-.0643-.9408-.0827-1.4322.1002-.4707.1924-.5774.4852-.2134.6683z" />
        <path id="C"
            d="M105.8693 35.8407l1.3896-.7236 5.3033 1.8664-1.3893.7236-6.1807.4672 3.2933 1.1613-1.3899.7242-5.5597-1.96 1.3897-.7221 6.137-.4756-2.9933-1.0614z" />
        <path id="D"
            d="M124.0026 42.008c-1.4968 1.2905-4.0202 1.4556-6.2007.9887-2.1818-.458-3.3792-1.4285-1.8826-2.718s4.0208-1.4551 6.2016-.9882 3.3782 1.427 1.8817 2.7175zm-5.3035.2202c1.1126.2378 2.0322-.3031 2.609-.8058s1.027-1.1343-.0857-1.3721-2.0311.3016-2.608.8041c-.5567.4951-1.0055 1.1448.0847 1.3738z" />
        <path id="E"
            d="M130.4822 42.1645c.1072-.1289.1496-.2479.0638-.3393-.0853-.1006-.2781-.1827-.6631-.2378-.4063-.0549-.748.0272-.9195.2378-.2137.2752.9195.4207 2.4596.9425.77.2659 1.155.6229.6842 1.2267-.7702.9795-2.7805.9698-4.4694.7319-1.7961-.2563-3.4211-.6958-2.5234-1.8212l2.6302.3757c-.1283.1001-.1495.2379-.0635.3569s.2562.2291.5345.2649c.5341.0741 1.0256.028 1.1973-.2011.5134-.6586-4.1483-.8874-3.1012-2.233.7065-.9155 2.8448-.8874 4.2984-.6775 1.7538.2477 3.1863.7046 2.5027 1.7478l-2.6306-.3743z" />
        <path id="F"
            d="M134.9731 42.4659l.4275-.915 6.7142.5853-.4275.9155-4.941 1.6472 4.1711.3659-.4275.9159-7.0568-.6137.4274-.9146 4.876-1.6561-3.7634-.3304z" />
        <path id="G"
            d="M144.6593 42.2465l.1284-.5858 3.0379-.4394-.2578 1.1441 1.69.0638-.1922.9338-1.6899-.0638-.3426 1.5457c-.0211.1015-.2553.6042.4274.6235l1.1339.0174-.1922.8787-1.581.0181c-1.9902-.0819-3.1451-.2646-2.739-1.4543l.363-1.748-1.4966-.0638.193-.9338 1.5177.0638z" />
        <path id="H"
            d="M159.4355 44.3609c.0646 1.436-1.9676 2.0856-4.4049 2.1043-2.4165.019-4.5331-.5852-4.619-2.0313-.0641-1.4376 1.9887-2.0873 4.4055-2.1141 2.4162-.0087 4.5337.6032 4.6184 2.0411zm-4.4477 1.2533c1.2401-.0087 1.4543-.6776 1.4329-1.2267s-.3213-1.207-1.5613-1.1977-1.4539.6761-1.4328 1.226.3212 1.2071 1.5612 1.1984zm.385-3.7526l-1.8177.0187 1.5395-1.1439 3.2082-.0276v.0189l-2.93 1.1339z" />
        <path id="I"
            d="M170.5346 42.7863c-.0647-.1287-.1712-.2379-.3426-.3026-.1922-.0733-.4709-.0997-.8551-.0639-.4283.0369-.6204.183-.4915.4024.1492.2841 1.304.1565 3.2497.2662.9845.0548 1.7537.2742 2.0748.8966.5346 1.0063-1.2192 1.446-2.9509 1.6106-1.8604.1829-3.7641.1646-4.3629-.9978l2.7156-.2648c.0223.1189.1494.2378.3642.3198s.4915.1378.7696.1095c.5562-.0547.8986-.2002.7914-.4381-.3636-.678-4.6191.1546-5.3462-1.2179-.492-.9425 1.3683-1.3911 2.8652-1.537 1.7964-.174 3.5712-.1014 4.2559.9425l-2.7372.2745z" />
        <path id="J"
            d="M174.7464 42.0547l-.7052-.8787 6.5014-.9521.7049.8686-2.3093 2.4998 4.0413-.5951.7065.8788-6.8221 1.0068-.7047-.8787 2.2444-2.4905-3.6572.5411z" />
        <path id="K"
            d="M190.507 42.5571c-.1714-.0997-.2999-.2093-.5989-.4663l-.0215.0098c-.0422.3197-.2778.7686-1.5823 1.0422-1.6685.3389-3.0153.0738-3.8068-.6587-.941-.8605.2355-1.5283 2.5234-2.0039l.8347-.174c-.3424-.3103-.7063-.7867-1.7541-.5481-.6195.145-.4704.5017-.235.7134l-2.5021.5122c-.577-.4948-.3848-.8887.1498-1.1995.5348-.3196 1.3895-.5481 2.1808-.7047 1.4115-.2929 3.4641-.348 4.3414.4582l2.0312 1.8125c.1717.145.385.2929.962.686l-2.5226.5209zm-5.3466-3.8803l-1.6462.3389.2993-1.3175 2.9085-.5951.0209.0096-1.5825 1.5641zm3.2507 3.4879c1.1332-.238.6421-.7971.1072-1.264-.5563.1189-1.1122.2115-1.369.3756-.2781.1736-.4489.3668-.1709.6133.2992.2465.9407.3748 1.4327.2751z" />
        <path id="L"
            d="M193.7997 38.0915l.0206-.0095c-.2774-.576.2785-.9877 1.2414-1.2716.7692-.2289 1.9902-.2929 2.8864.018-.1921-.5127.3211-.9884 1.2407-1.2905 1.3683-.4118 3.1214-.2648 4.2768.4396l3.5065 2.1414-2.4163.7227-3.0791-1.8759c-.5344-.3024-1.24-.595-1.9882-.3751-1.198.3567.0434.9702.1064 1.0065l3.0148 1.8304-2.4163.7233-3.0792-1.8762c-.5335-.3021-1.24-.5948-1.9888-.3755-1.1976.3568.0433.9704.1072 1.0069l3.0145 1.8307-2.4162.7225-3.8917-2.3794-1.4321-.7961 2.3729-.7138.9197.5216z" />
        <path id="M"
            d="M212.7888 35.6118c-.2572-.0638-.4492-.1564-.9197-.348l-.021.0088c.2132.3018.3636.7597-.6416 1.209-1.2833.5666-2.7803.5119-4.1066-.0641-1.5604-.6692-1.0044-1.4736.7708-2.2526l.6415-.2829c-.578-.238-1.3045-.6309-2.0752-.2567-.4693.2291-.0419.5396.3644.7047l-1.9249.8519c-.941-.385-1.0694-.7782-.8126-1.1448.2567-.3742.8771-.7134 1.4756-.9789 1.0912-.4855 2.9934-.8334 4.4482-.2101l3.3565 1.4006c.2781.1189.5997.2091 1.4548.5021l-2.0102.861zm-2.2879-.0638c.8763-.3854-.0433-.8422-.9196-1.2092-.4273.1934-.8769.3574-.9841.5503-.1283.2096-.1283.4117.3426.6038.4707.2004 1.1759.2291 1.5611.0551z" />
        <path id="N"
            d="M236.4613 67.2858c1.5385 0 3.6132-.0193 3.6132 1.0428 0 .6692-1.1124 1.1071-2.5446 1.1071-1.8389 0-2.6731-.6213-2.7589-1.39h-3.015c-.064 1.6191 2.3098 2.5616 5.8163 2.5616 3.0577 0 5.8167-.8323 5.8167-2.3142 0-.7884-1.0479-1.4288-2.7797-1.6024v-.0187c1.454-.1827 2.1807-.7772 2.1807-1.4355 0-1.2644-2.7587-1.9503-5.2601-1.9503-3.2299 0-5.3031.9979-5.4101 2.4346h3.0153c-.0214-.7227.8336-1.2631 2.4162-1.2631 1.1544 0 2.2242.338 2.2242.9329 0 .8058-1.9676.9247-3.3368.8788v1.0164h.0226z" />
        <path id="O"
            d="M273.0059 35.8031h3.0154v-1.6278h2.0737v-1.1809h-2.0737v-4.2378h-2.845l-6.7998 4.0992v1.3095h6.6078v1.6378h.0216zm0-2.8185h-4.1061l4.042-2.443h.0641v2.443z" />
        <path id="P"
            d="M42.9794 29.0952H40.456c-.3422 1.0803-2.3735 1.4191-4.5762 1.3997v1.0813h3.9346v4.5755h3.165v-7.0565z" />
        <path id="Q"
            d="M73.6451 65.794c0-.742.5973-1.6203 2.48-1.6203 1.3679 0 2.3513.4216 2.3513 1.0896-.0201.87-1.9031 1.2992-3.293 1.7197-2.6943.8238-4.9173 1.5196-4.9397 3.1494h11.4835v-1.2267h-7.3994c1.1339-.7227 2.9727-1.1252 4.5129-1.6201s2.8006-1.0798 2.8006-2.1325c0-1.3812-2.5023-2.2055-5.3674-2.2055-3.7634 0-5.7951 1.236-5.688 2.8464h3.0592z" />
        <path id="R"
            d="M186.016 59.7539c.7701.9515 2.7154 1.0347 4.4911.806 1.7319-.2293 3.25-.76 2.5657-1.7122-.4707-.6682-1.818-.7232-3.1437-.6952-1.2824.027-2.5021.1282-2.7588-.2287-.2133-.2929.4496-.43.9197-.4847.7488-.1011 1.4329-.0744 1.7754.3017l1.9887-.2568c-.7914-.8691-2.5234-.9335-4.1916-.7139-1.625.2112-3.143.669-2.4801 1.5924.4484.6406 1.8171.6867 3.1005.6496 1.6038-.0447 2.566-.055 2.7586.2482.2555.3474-.4281.5577-1.0478.6401-.8346.1093-1.7108.0365-2.0323-.4023l-1.9454.2558zm-8.4037-.018c-.2567-.5945-.0431-1.2263 1.411-1.3363 1.4755-.1099 2.1603.458 2.395 1.0525s.0433 1.217-1.4109 1.3365c-1.4756.1087-2.1604-.4578-2.3951-1.0527zm-2.1595.1645c.4914 1.1811 2.3942 1.8398 4.8539 1.6567 2.4807-.1828 3.7419-1.0895 3.2499-2.2701-.4912-1.1892-2.395-1.8479-4.8752-1.6561-2.438.1829-3.7208 1.0793-3.2286 2.2695zm-9.1102 2.2783l2.1809-.0818-.2557-1.2992.7692-.4212 2.5233 1.6015 2.6304-.101-3.8067-2.26 2.716-1.4925-2.5657.0922-2.4594 1.4554-.5772-2.7921-2.1815.0821 1.0264 5.2166zm-8.7674-2.205c.0213-.2928.4274-.8056 1.8178-.8056 1.0694 0 1.5394.275 1.7324.8056h-3.5502zm5.731.6589c.1495-1.1626-1.1543-2.2511-3.871-2.2511-2.4157 0-4.062.8594-4.062 1.995 0 1.1715 1.5605 1.9852 4.062 1.9852 1.7971 0 3.1017-.3837 3.7211-1.2711h-1.924c-.1287.2378-.8557.4933-1.732.4933-1.2189 0-1.8817-.3017-1.9462-.9602l5.7521.0089zm-1.2189-3.6513h-2.3949l-1.4972 1.0432h1.5184l2.3737-1.0432zm-9.879.3388l-2.1809-.0459-.1285 1.1344-1.3261-.0271-.0857.6955 1.3257.0273-.2778 2.233c-.0856.7505 1.0694.9245 2.3953.9515l1.2824-.009.1071-.8149c-.2346.0187-.4487.0187-.6841.0187-.7267-.0187-.9195-.1093-.8765-.4572l.2347-1.885 1.6039.0357.0645-.6957-1.6039-.036.1499-1.1253zm-10.9701 1.9208c.1712-.4027.7483-.5396 1.5816-.5024.7705.0356 1.3907.128 1.2834.5766-.1069.4208-1.3469.3472-2.6938.3749-1.3684.0269-2.7588.1739-2.9723 1.0244-.1929.7692.9189 1.1808 2.4163 1.2545.962.0454 2.0098-.0368 2.7802-.3476-.0221.1278.0212.2467.0637.3746l2.2028.101c-.1717-.1648-.1502-.5038-.0644-.8514l.4707-1.9585c.2133-.9055-1.6259-1.1533-3.2076-1.2264-1.7753-.0819-3.657.1279-4.0206 1.0896l2.16.0907zm2.5662 1.2816c-.0646.229-.2784.8607-1.9675.7875-.7055-.0278-1.3049-.1556-1.2187-.5408.0858-.3744.7265-.4572 1.4108-.4933.6848-.0283 1.4536 0 1.8604-.1375l-.085.3841zm2.2878-3.7524l-2.3949-.1099-1.7321.9707 1.5174.0727 2.6096-.9335zm-8.853-.4028l-2.1599-.1641-.3415.8421 2.1595.1648.3419-.8428zm-6.0946 6.1683l.6847.0833c2.1596.1649 2.9085-.1561 3.2286-.9159l1.6038-3.9167-2.1594-.1645-1.5825 3.8618c-.1074.2835-.5346.3025-.9624.2655-.1705-.0089-.3209-.0371-.4493-.064l-.3635.8505zm-11.8894-5.4816c.3849-.3748 1.0265-.4579 1.7964-.339.727.1102 1.2834.2572.9409.6781-.3204.4027-1.4965.2099-2.8224.1098-1.347-.1098-2.7802-.1009-3.4428.7047-.5992.7317.2775 1.2355 1.6895 1.4454.9192.138 1.9664.1559 2.8863-.0731-.0851.1189-.1065.2469-.1284.3658l2.096.3117c-.064-.1736.1067-.5124.3848-.8332l1.4966-1.8571c.6843-.8608-.9831-1.2816-2.48-1.5017-1.6894-.2468-3.6357-.2288-4.4908.6781l2.0739.3105zm1.8392 1.4913c-.171.211-.7268.8145-2.3306.5767-.6629-.0996-1.1976-.2743-.8985-.6406.2994-.3569.9623-.3748 1.6465-.3477.6848.0369 1.4116.1378 1.8825.0458l-.2999.3658zm62.2052 4.7409l-2.116.238.5126.8236 2.117-.2378-.5136-.8238zm1.0478 5.2898l2.1175-.2378-2.2878-3.6514-2.1175.2378 2.2878 3.6514zm-10.5204-1.7023c-.085-.4118.3851-.6035 1.1974-.6674.7484-.055 1.4331-.0373 1.6034.4027.1721.4208-1.0687.4848-2.3513.6856-1.3044.193-2.5444.4947-2.2029 1.3363.3213.7597 1.6464 1.0255 3.122.9157.9626-.0829 1.9034-.2838 2.4593-.669.0641.1193.1707.2383.2991.3481l2.1817-.1644c-.2567-.1376-.4708-.4663-.6203-.8048l-.7914-1.9403c-.3637-.8975-2.3091-.916-3.8703-.7968-1.7537.1279-3.4429.5588-3.165 1.5283l2.1383-.174zm3.2933.9248c.0858.2198.2994.8607-1.3895.9887-.7064.0548-1.348.0089-1.5187-.3762-.1499-.3747.406-.5307 1.0478-.6403s1.3897-.1737 1.6894-.3472l.171.375zm-20.9773 2.5259l2.181-.0639-.3638-2.1873c-.1284-.7416.8984-.8975 1.3258-.9156 1.3903-.0366 1.4117.4669 1.4755.9057l.3421 2.114 2.1812-.064-.3417-2.1045c-.0859-.4761.0633-.9611 1.3039-.997s1.4116.3748 1.4975.8779l.3417 2.1418 2.1816-.0638-.4072-2.5261c-.1708-.9797-1.4322-1.3185-3.1216-1.2636-1.112.0371-1.8818.3568-2.288.6957-.5133-.4384-1.4327-.5858-2.4161-.5575-1.0269.0268-1.8179.283-2.3312.6858l-.1072-.5119-2.0525.0641.599 3.7702zm-9.0673-2.9009c.1714-.4027.7487-.5408 1.5824-.5037.7699.0371 1.3903.1279 1.2833.5769-.107.4207-1.347.3476-2.6943.3836-1.369.028-2.7587.1738-2.9726 1.0258-.1921.7685.9193 1.1805 2.417 1.2533.9621.0461 2.0099-.0367 2.7791-.348-.0212.128.0221.2469.0644.3757l2.2022.1c-.1707-.1644-.1494-.5027-.0638-.8503l.4701-1.9587c.2143-.9063-1.6248-1.1529-3.2073-1.2262-1.7747-.0829-3.6777.1283-4.0203 1.0887l2.1598.0829zm2.5666 1.2804c-.0651.2288-.2779.8607-1.9679.7877-.7051-.0279-1.3042-.1558-1.2183-.5396.085-.376.7266-.4577 1.4105-.4949.6845-.0269 1.4545 0 1.8605-.1368l-.0848.3836zm2.288-3.7422l-2.3953-.1098-1.7106.9694 1.5178.0736 2.5881-.9332zm-19.1179 4.1999l7.2067.5399.3207-.7688-4.362-.3286 4.982-1.8762.3212-.7687-6.608-.4949-.3204.7686 3.7847.2841-4.9821 1.876-.3428.7686zm-10.2638-2.3878c-.5134.9786 1.0264 1.4916 2.8012 1.7012 1.753.2022 3.6992.092 4.2987-.8685.4275-.6777-.6418-1.0257-1.7967-1.3-1.1116-.2741-2.2879-.4573-2.0525-.8141.1922-.2929.9191-.2569 1.3897-.2018.7486.0829 1.3258.2658 1.1337.6588l2.0097.2286c.4066-.9143-.9839-1.3633-2.6513-1.555-1.647-.1923-3.4856-.1473-4.0847.7865-.4064.6406.6842.9886 1.8179 1.2545 1.4109.3286 2.2234.5398 2.0312.8416-.214.3567-1.0692.3747-1.6682.3106-.8339-.0908-1.4967-.3567-1.24-.8044l-1.9887-.238z" />
        <path id="S"
            d="M236.076 107.1411l52.7753 5.4462c3.0161-1.6755 4.6839-3.5148 4.6839-5.4462s-1.6678-3.77-4.6839-5.4448l-52.7753 5.4448z" />
        <path id="T"
            d="M182.275 112.8801s13.6214 6.6802 30.9414 8.1535l-.1921-.4293v4.3838c-7.4621-.4215-24.1643-2.9193-31.6273-8.5569l.878-3.5511z" />
        <path id="U"
            d="M289.3219 112.8801s-13.6006 6.6802-30.9429 8.1535l.2132-.4293v4.3838c7.4641-.4215 24.1428-2.9193 31.6262-8.5569l-.8965-3.5511z" />
        <path id="V"
            d="M236.0759 111.4438c20.7638 0 37.6139-4.0099 37.6139-8.9603 0-4.9416-16.8501-8.9596-37.6139-8.9596s-37.6146 4.0093-37.6146 8.9596 16.8508 8.9603 37.6146 8.9603z" />
        <path id="W"
            d="M236.0762 113.3551c32.0322 0 58.0138-7.5039 58.0138-15.1361s-25.9816-13.8103-58.0138-13.8103-58.015 6.1872-58.015 13.8103 25.9804 15.1361 58.015 15.1361z" />
    </defs>
</svg>