<svg xmlns="http://www.w3.org/2000/svg" width="102" height="46" viewBox="0 0 102 46" fill="none">
    <path
        d="M91.2668 13.0864C92.2446 15.9111 94.7162 16.1555 96.9706 15.4765C99.1706 14.7975 101.099 13.2222 100.23 10.3975C99.6323 8.41476 97.9212 8.25179 96.2372 8.33328C94.6076 8.41476 93.0594 8.71352 92.7335 7.65426C92.4619 6.78512 93.3039 6.37772 93.9014 6.21475C94.852 5.91599 95.7212 5.99746 96.1557 7.11105L98.6817 6.35055C97.6767 3.7703 95.4767 3.58018 93.3582 4.23203C91.294 4.85673 89.3656 6.21475 90.2076 8.95797C90.7779 10.8592 92.5162 10.995 94.1459 10.8864C96.1829 10.7506 97.4051 10.7234 97.6496 11.6197C97.9755 12.6518 97.1063 13.2765 96.3187 13.521C95.2594 13.8469 94.1458 13.6296 93.7384 12.3259L91.2668 13.0864ZM80.5927 13.0321C80.2668 11.2666 80.5384 9.39254 82.3853 9.06661C84.2594 8.74069 85.1285 10.4246 85.4273 12.1901C85.7261 13.9555 85.4816 15.8024 83.6347 16.1555C81.7606 16.4814 80.8915 14.7975 80.5927 13.0321ZM77.8495 13.521C78.4742 17.0247 80.8915 18.9802 84.0149 18.437C87.1656 17.8938 88.7681 15.2049 88.1434 11.7012C87.5187 8.17032 85.1014 6.21475 81.9508 6.78512C78.8545 7.32834 77.2248 9.99008 77.8495 13.521ZM66.2791 20.2839L69.0495 20.0395L68.7235 16.1827L69.7013 14.9333L72.9063 19.6864L76.247 19.3876L71.4124 12.679L74.8618 8.2518L71.6026 8.5234L68.4791 12.8419L67.7458 4.55796L64.9754 4.8024L66.2791 20.2839ZM55.1433 13.7382C55.1704 12.8691 55.6865 11.3481 57.4519 11.3481C58.8099 11.3481 59.4075 12.1629 59.6519 13.7382H55.1433ZM62.4223 15.6938C62.6124 12.2444 60.9556 9.01229 57.5062 9.01229C54.4371 9.01229 52.3457 11.5654 52.3457 14.9333C52.3457 18.4099 54.3284 20.8271 57.5062 20.8271C59.7877 20.8271 61.4445 19.6864 62.2322 17.0518H59.7877C59.6247 17.758 58.7013 18.5185 57.5877 18.5185C56.0396 18.5185 55.1976 17.6222 55.1161 15.6666L62.4223 15.6938ZM60.8741 4.85672H57.8321L55.9309 7.95303H57.8593L60.8741 4.85672ZM48.3259 5.86166L45.5556 5.72586L45.3926 9.09377L43.7087 9.01229L43.6 11.0765L45.284 11.158L44.9309 17.7852C44.8222 20.0123 46.2889 20.5284 47.9729 20.6099C48.5161 20.637 49.1136 20.637 49.6025 20.5827L49.7383 18.1654C49.4395 18.2197 49.1679 18.2197 48.8692 18.2197C47.9457 18.1654 47.7013 17.8938 47.7556 16.8617L48.0543 11.2666L50.0914 11.3753L50.1729 9.31106L48.1358 9.20241L48.3259 5.86166ZM34.3926 11.5654C34.6099 10.3703 35.3432 9.96291 36.4024 10.0716C37.3802 10.1802 38.1679 10.4518 38.0321 11.7827C37.8963 13.0321 36.321 12.8148 34.6099 12.8963C32.8716 12.9777 31.1061 13.4123 30.8345 15.9382C30.5901 18.2197 32.0024 19.4419 33.9037 19.6592C35.1259 19.795 36.4568 19.5506 37.4345 18.6271C37.4074 19.0074 37.4617 19.3605 37.516 19.7407L40.3136 20.0395C40.0963 19.5506 40.1235 18.5456 40.2321 17.5135L40.8296 11.7012C41.1012 9.0123 38.7654 8.27896 36.7555 8.06167C34.5012 7.81723 32.1111 8.44192 31.6493 11.2938L34.3926 11.5654ZM37.6518 15.3679C37.5704 16.0469 37.2987 17.921 35.1531 17.7037C34.2568 17.6222 33.4963 17.2419 33.6049 16.1012C33.7136 14.9876 34.5284 14.7432 35.3975 14.6345C36.2666 14.553 37.2444 14.6345 37.7605 14.2271L37.6518 15.3679ZM40.558 4.23203L37.516 3.9061L35.316 6.78512L37.2444 7.00241L40.558 4.23203ZM29.3135 3.03696L26.5703 2.54807L26.1357 5.04685L28.879 5.53574L29.3135 3.03696ZM21.5728 21.3432C21.8444 21.4247 22.1431 21.5333 22.4419 21.5876C25.1851 22.0765 26.1358 21.1259 26.5432 18.8716L28.5802 7.24686L25.837 6.75797L23.8271 18.2197C23.6913 19.0617 23.1481 19.116 22.6049 19.0074C22.3876 18.9802 22.1975 18.8987 22.0345 18.8173L21.5728 21.3432ZM6.47148 5.074C6.96037 3.96042 7.77519 3.71598 8.75297 4.06907C9.67643 4.39499 10.3826 4.82957 9.94804 6.07895C9.54063 7.27402 8.0468 6.70364 6.36285 6.40488C4.65173 6.07895 2.83197 6.10611 1.98999 8.49624C1.22949 10.6691 2.34308 12.1629 4.13568 12.7876C5.30358 13.195 6.63445 13.2493 7.80235 12.5703C7.69371 12.9234 7.66655 13.3037 7.63939 13.6567L10.3011 14.5802C10.2196 14.0642 10.4369 13.0592 10.79 12.1086L12.6913 6.595C13.5604 4.04191 11.4419 2.79252 9.54063 2.14067C7.39494 1.40733 4.92333 1.46165 3.83691 4.15054L6.47148 5.074ZM8.80729 9.50118C8.59001 10.1259 7.88383 11.9185 5.84679 11.2123C5.00481 10.9135 4.3258 10.3975 4.70605 9.31106C5.0863 8.2518 5.92828 8.19747 6.79742 8.27895C7.66655 8.3876 8.59001 8.68636 9.18754 8.41475L8.80729 9.50118ZM87.8174 23.5704L85.1285 24.2765L85.7804 26.721L88.4693 26.0148L87.8174 23.5704ZM89.1483 39.2692L91.8372 38.563L88.931 27.7259L86.2421 28.4321L89.1483 39.2692ZM75.7853 34.2173C75.6767 32.9951 76.2742 32.4247 77.3063 32.2346C78.2569 32.0716 79.126 32.1259 79.3433 33.4296C79.5606 34.679 77.9853 34.8692 76.3557 35.4667C74.6989 36.0371 73.1236 36.9334 73.5581 39.4321C73.9655 41.6865 75.6495 42.4741 77.5236 42.1482C78.7458 41.9037 79.9409 41.3062 80.647 40.1655C80.7285 40.5186 80.8643 40.8716 81.0273 41.1976L83.7977 40.7087C83.4718 40.3013 83.2001 39.3235 83.01 38.3186L82.0051 32.5605C81.5433 29.8988 79.0717 29.8445 77.089 30.1976C74.8618 30.5778 72.7161 31.8543 73.0692 34.7334L75.7853 34.2173ZM79.968 36.9605C80.0767 37.6124 80.3483 39.5136 78.2026 39.8939C77.3063 40.0568 76.4915 39.921 76.2742 38.7803C76.0841 37.6667 76.7902 37.205 77.605 36.8791C78.4199 36.5531 79.3705 36.363 79.7507 35.8469L79.968 36.9605ZM53.3235 44.4569L56.0939 44.2667L55.6321 37.7754C55.4692 35.5754 56.7729 35.1136 57.3161 35.0593C59.0815 34.9507 59.1087 36.4445 59.1902 37.7482L59.6248 44.0223L62.3951 43.8322L61.9606 37.5852C61.8519 36.1729 62.0421 34.7334 63.6174 34.6247C65.1927 34.5161 65.41 35.7383 65.5186 37.2321L65.9532 43.5877L68.7235 43.3976L68.2075 35.9013C67.9902 32.9951 66.3877 31.9902 64.242 32.1531C62.8297 32.2618 61.8519 33.2124 61.3359 34.2173C60.684 32.9136 59.5161 32.479 58.2667 32.5605C56.963 32.642 55.9581 33.4025 55.3062 34.5976L55.1704 33.0766L52.563 33.2667L53.3235 44.4569ZM41.8074 35.8469C42.0247 34.6519 42.758 34.2445 43.8173 34.3531C44.7951 34.4618 45.5827 34.7334 45.4469 36.0642C45.3111 37.3136 43.7358 37.0963 42.0247 37.205C40.2864 37.2864 38.521 37.721 38.2494 40.247C38.0049 42.5284 39.4173 43.7507 41.3185 43.968C42.5407 44.1038 43.8716 43.8593 44.8494 42.9359C44.8222 43.3161 44.8765 43.6692 44.9309 44.0494L47.7284 44.3482C47.5111 43.8593 47.5383 42.8544 47.6469 41.8223L48.2445 36.0099C48.5161 33.321 46.1803 32.5877 44.1704 32.3704C41.916 32.1259 39.4988 32.7506 39.0642 35.6025L41.8074 35.8469ZM45.0667 39.6494C44.9852 40.3284 44.7136 42.2025 42.5679 41.9852C41.6716 41.9038 40.9111 41.5235 41.0198 40.3828C41.1284 39.2692 41.9432 39.0247 42.8123 38.9161C43.6815 38.8346 44.6593 38.9161 45.1753 38.5087L45.0667 39.6494ZM47.9729 28.5408L44.9309 28.2148L42.758 31.0938L44.6864 31.3111L47.9729 28.5408ZM23.6913 41.0075L32.8444 42.6099L33.2518 40.3284L27.7111 39.3507L34.0395 33.7827L34.4469 31.5012L26.0543 30.0346L25.6469 32.3161L30.4543 33.158L24.1259 38.726L23.6913 41.0075ZM10.6542 33.9185C10.0024 36.8247 11.9579 38.3457 14.2123 38.9704C16.4394 39.5679 18.911 39.242 19.6715 36.3902C20.2147 34.3803 18.8567 33.3482 17.39 32.5334C15.9777 31.7185 14.4839 31.1753 14.7826 30.1161C15.0271 29.2469 15.9505 29.3556 16.5481 29.5185C17.4987 29.763 18.232 30.3062 17.9876 31.4741L20.5407 32.1531C21.0567 29.4371 19.2913 28.1062 17.1728 27.5358C15.0814 26.9654 12.7456 27.1012 11.9851 29.8716C11.469 31.7729 12.8542 32.805 14.2937 33.5926C16.0863 34.5704 17.1184 35.1951 16.874 36.0914C16.6024 37.1507 15.516 37.205 14.7555 37.0148C13.6962 36.7432 12.8542 35.9556 13.1801 34.6247L10.6542 33.9185Z"
        stroke="black" stroke-width="1.25" stroke-miterlimit="3.8637" stroke-linejoin="round" />
    <path
        d="M91.2668 13.0864C92.2446 15.9111 94.7162 16.1555 96.9706 15.4765C99.1706 14.7975 101.099 13.2222 100.23 10.3975C99.6323 8.41476 97.9212 8.25179 96.2372 8.33328C94.6076 8.41476 93.0594 8.71352 92.7335 7.65426C92.4619 6.78512 93.3039 6.37772 93.9014 6.21475C94.852 5.91599 95.7212 5.99746 96.1557 7.11105L98.6817 6.35055C97.6767 3.7703 95.4767 3.58018 93.3582 4.23203C91.294 4.85673 89.3656 6.21475 90.2076 8.95797C90.7779 10.8592 92.5162 10.995 94.1459 10.8864C96.1829 10.7506 97.4051 10.7234 97.6496 11.6197C97.9755 12.6518 97.1063 13.2765 96.3187 13.521C95.2594 13.8469 94.1458 13.6296 93.7384 12.3259L91.2668 13.0864ZM80.5927 13.0321C80.2668 11.2666 80.5384 9.39254 82.3853 9.06661C84.2594 8.74069 85.1285 10.4246 85.4273 12.1901C85.7261 13.9555 85.4816 15.8024 83.6347 16.1555C81.7606 16.4814 80.8915 14.7975 80.5927 13.0321ZM77.8495 13.521C78.4742 17.0247 80.8915 18.9802 84.0149 18.437C87.1656 17.8938 88.7681 15.2049 88.1434 11.7012C87.5187 8.17032 85.1014 6.21475 81.9508 6.78512C78.8545 7.32834 77.2248 9.99008 77.8495 13.521ZM66.2791 20.2839L69.0495 20.0395L68.7235 16.1827L69.7013 14.9333L72.9063 19.6864L76.247 19.3876L71.4124 12.679L74.8618 8.2518L71.6026 8.5234L68.4791 12.8419L67.7458 4.55796L64.9754 4.8024L66.2791 20.2839ZM55.1433 13.7382C55.1704 12.8691 55.6865 11.3481 57.4519 11.3481C58.8099 11.3481 59.4075 12.1629 59.6519 13.7382H55.1433ZM62.4223 15.6938C62.6124 12.2444 60.9556 9.01229 57.5062 9.01229C54.4371 9.01229 52.3457 11.5654 52.3457 14.9333C52.3457 18.4099 54.3284 20.8271 57.5062 20.8271C59.7877 20.8271 61.4445 19.6864 62.2322 17.0518H59.7877C59.6247 17.758 58.7013 18.5185 57.5877 18.5185C56.0396 18.5185 55.1976 17.6222 55.1161 15.6666L62.4223 15.6938ZM60.8741 4.85672H57.8321L55.9309 7.95303H57.8593L60.8741 4.85672ZM48.3259 5.86166L45.5556 5.72586L45.3926 9.09377L43.7087 9.01229L43.6 11.0765L45.284 11.158L44.9309 17.7852C44.8222 20.0123 46.2889 20.5284 47.9729 20.6099C48.5161 20.637 49.1136 20.637 49.6025 20.5827L49.7383 18.1654C49.4395 18.2197 49.1679 18.2197 48.8692 18.2197C47.9457 18.1654 47.7013 17.8938 47.7556 16.8617L48.0543 11.2666L50.0914 11.3753L50.1729 9.31106L48.1358 9.20241L48.3259 5.86166ZM34.3926 11.5654C34.6099 10.3703 35.3432 9.96291 36.4024 10.0716C37.3802 10.1802 38.1679 10.4518 38.0321 11.7827C37.8963 13.0321 36.321 12.8148 34.6099 12.8963C32.8716 12.9777 31.1061 13.4123 30.8345 15.9382C30.5901 18.2197 32.0024 19.4419 33.9037 19.6592C35.1259 19.795 36.4568 19.5506 37.4345 18.6271C37.4074 19.0074 37.4617 19.3605 37.516 19.7407L40.3136 20.0395C40.0963 19.5506 40.1235 18.5456 40.2321 17.5135L40.8296 11.7012C41.1012 9.0123 38.7654 8.27896 36.7555 8.06167C34.5012 7.81723 32.1111 8.44192 31.6493 11.2938L34.3926 11.5654ZM37.6518 15.3679C37.5704 16.0469 37.2987 17.921 35.1531 17.7037C34.2568 17.6222 33.4963 17.2419 33.6049 16.1012C33.7136 14.9876 34.5284 14.7432 35.3975 14.6345C36.2666 14.553 37.2444 14.6345 37.7605 14.2271L37.6518 15.3679ZM40.558 4.23203L37.516 3.9061L35.316 6.78512L37.2444 7.00241L40.558 4.23203ZM29.3135 3.03696L26.5703 2.54807L26.1357 5.04685L28.879 5.53574L29.3135 3.03696ZM21.5728 21.3432C21.8444 21.4247 22.1431 21.5333 22.4419 21.5876C25.1851 22.0765 26.1358 21.1259 26.5432 18.8716L28.5802 7.24686L25.837 6.75797L23.8271 18.2197C23.6913 19.0617 23.1481 19.116 22.6049 19.0074C22.3876 18.9802 22.1975 18.8987 22.0345 18.8173L21.5728 21.3432ZM6.47148 5.074C6.96037 3.96042 7.77519 3.71598 8.75297 4.06907C9.67643 4.39499 10.3826 4.82957 9.94804 6.07895C9.54063 7.27402 8.0468 6.70364 6.36285 6.40488C4.65173 6.07895 2.83197 6.10611 1.98999 8.49624C1.22949 10.6691 2.34308 12.1629 4.13568 12.7876C5.30358 13.195 6.63445 13.2493 7.80235 12.5703C7.69371 12.9234 7.66655 13.3037 7.63939 13.6567L10.3011 14.5802C10.2196 14.0642 10.4369 13.0592 10.79 12.1086L12.6913 6.595C13.5604 4.04191 11.4419 2.79252 9.54063 2.14067C7.39494 1.40733 4.92333 1.46165 3.83691 4.15054L6.47148 5.074ZM8.80729 9.50118C8.59001 10.1259 7.88383 11.9185 5.84679 11.2123C5.00481 10.9135 4.3258 10.3975 4.70605 9.31106C5.0863 8.2518 5.92828 8.19747 6.79742 8.27895C7.66655 8.3876 8.59001 8.68636 9.18754 8.41475L8.80729 9.50118ZM87.8174 23.5704L85.1285 24.2765L85.7804 26.721L88.4693 26.0148L87.8174 23.5704ZM89.1483 39.2692L91.8372 38.563L88.931 27.7259L86.2421 28.4321L89.1483 39.2692ZM75.7853 34.2173C75.6767 32.9951 76.2742 32.4247 77.3063 32.2346C78.2569 32.0716 79.126 32.1259 79.3433 33.4296C79.5606 34.679 77.9853 34.8692 76.3557 35.4667C74.6989 36.0371 73.1236 36.9334 73.5581 39.4321C73.9655 41.6865 75.6495 42.4741 77.5236 42.1482C78.7458 41.9037 79.9409 41.3062 80.647 40.1655C80.7285 40.5186 80.8643 40.8716 81.0273 41.1976L83.7977 40.7087C83.4718 40.3013 83.2001 39.3235 83.01 38.3186L82.0051 32.5605C81.5433 29.8988 79.0717 29.8445 77.089 30.1976C74.8618 30.5778 72.7161 31.8543 73.0692 34.7334L75.7853 34.2173ZM79.968 36.9605C80.0767 37.6124 80.3483 39.5136 78.2026 39.8939C77.3063 40.0568 76.4915 39.921 76.2742 38.7803C76.0841 37.6667 76.7902 37.205 77.605 36.8791C78.4199 36.5531 79.3705 36.363 79.7507 35.8469L79.968 36.9605ZM53.3235 44.4569L56.0939 44.2667L55.6321 37.7754C55.4692 35.5754 56.7729 35.1136 57.3161 35.0593C59.0815 34.9507 59.1087 36.4445 59.1902 37.7482L59.6248 44.0223L62.3951 43.8322L61.9606 37.5852C61.8519 36.1729 62.0421 34.7334 63.6174 34.6247C65.1927 34.5161 65.41 35.7383 65.5186 37.2321L65.9532 43.5877L68.7235 43.3976L68.2075 35.9013C67.9902 32.9951 66.3877 31.9902 64.242 32.1531C62.8297 32.2618 61.8519 33.2124 61.3359 34.2173C60.684 32.9136 59.5161 32.479 58.2667 32.5605C56.963 32.642 55.9581 33.4025 55.3062 34.5976L55.1704 33.0766L52.563 33.2667L53.3235 44.4569ZM41.8074 35.8469C42.0247 34.6519 42.758 34.2445 43.8173 34.3531C44.7951 34.4618 45.5827 34.7334 45.4469 36.0642C45.3111 37.3136 43.7358 37.0963 42.0247 37.205C40.2864 37.2864 38.521 37.721 38.2494 40.247C38.0049 42.5284 39.4173 43.7507 41.3185 43.968C42.5407 44.1038 43.8716 43.8593 44.8494 42.9359C44.8222 43.3161 44.8765 43.6692 44.9309 44.0494L47.7284 44.3482C47.5111 43.8593 47.5383 42.8544 47.6469 41.8223L48.2445 36.0099C48.5161 33.321 46.1803 32.5877 44.1704 32.3704C41.916 32.1259 39.4988 32.7506 39.0642 35.6025L41.8074 35.8469ZM45.0667 39.6494C44.9852 40.3284 44.7136 42.2025 42.5679 41.9852C41.6716 41.9038 40.9111 41.5235 41.0198 40.3828C41.1284 39.2692 41.9432 39.0247 42.8123 38.9161C43.6815 38.8346 44.6593 38.9161 45.1753 38.5087L45.0667 39.6494ZM47.9729 28.5408L44.9309 28.2148L42.758 31.0938L44.6864 31.3111L47.9729 28.5408ZM23.6913 41.0075L32.8444 42.6099L33.2518 40.3284L27.7111 39.3507L34.0395 33.7827L34.4469 31.5012L26.0543 30.0346L25.6469 32.3161L30.4543 33.158L24.1259 38.726L23.6913 41.0075ZM10.6542 33.9185C10.0024 36.8247 11.9579 38.3457 14.2123 38.9704C16.4394 39.5679 18.911 39.242 19.6715 36.3902C20.2147 34.3803 18.8567 33.3482 17.39 32.5334C15.9777 31.7185 14.4839 31.1753 14.7826 30.1161C15.0271 29.2469 15.9505 29.3556 16.5481 29.5185C17.4987 29.763 18.232 30.3062 17.9876 31.4741L20.5407 32.1531C21.0567 29.4371 19.2913 28.1062 17.1728 27.5358C15.0814 26.9654 12.7456 27.1012 11.9851 29.8716C11.469 31.7729 12.8542 32.805 14.2937 33.5926C16.0863 34.5704 17.1184 35.1951 16.874 36.0914C16.6024 37.1507 15.516 37.205 14.7555 37.0148C13.6962 36.7432 12.8542 35.9556 13.1801 34.6247L10.6542 33.9185Z"
        stroke="black" stroke-width="2.5" stroke-miterlimit="3.8637" stroke-linejoin="round" />
    <path fill-rule="evenodd" clip-rule="evenodd"
        d="M91.2668 13.0864C92.2446 15.9111 94.7162 16.1555 96.9706 15.4765C99.1706 14.7975 101.099 13.2222 100.23 10.3975C99.6323 8.41476 97.9212 8.25179 96.2372 8.33328C94.6076 8.41476 93.0594 8.71352 92.7335 7.65426C92.4619 6.78512 93.3039 6.37772 93.9014 6.21475C94.852 5.91599 95.7212 5.99746 96.1557 7.11105L98.6817 6.35055C97.6767 3.7703 95.4767 3.58018 93.3582 4.23203C91.294 4.85673 89.3656 6.21475 90.2076 8.95797C90.7779 10.8592 92.5162 10.995 94.1459 10.8864C96.1829 10.7506 97.4051 10.7234 97.6496 11.6197C97.9755 12.6518 97.1063 13.2765 96.3187 13.521C95.2594 13.8469 94.1459 13.6296 93.7384 12.3259L91.2668 13.0864ZM80.5927 13.0321C80.2668 11.2666 80.5384 9.39254 82.3853 9.06661C84.2594 8.74069 85.1285 10.4246 85.4273 12.1901C85.7261 13.9555 85.4816 15.8024 83.6347 16.1555C81.7606 16.4814 80.8915 14.7975 80.5927 13.0321ZM77.8495 13.521C78.4742 17.0247 80.8915 18.9802 84.0149 18.437C87.1656 17.8938 88.7681 15.2049 88.1434 11.7012C87.5187 8.17032 85.1014 6.21475 81.9508 6.78512C78.8545 7.32834 77.2248 9.99008 77.8495 13.521ZM66.2791 20.2839L69.0495 20.0395L68.7235 16.1827L69.7013 14.9333L72.9063 19.6864L76.247 19.3876L71.4124 12.679L74.8618 8.2518L71.6026 8.5234L68.4791 12.8419L67.7458 4.55796L64.9754 4.8024L66.2791 20.2839ZM55.1433 13.7382C55.1704 12.8691 55.6865 11.3481 57.4519 11.3481C58.8099 11.3481 59.4075 12.1629 59.6519 13.7382H55.1433ZM62.4223 15.6938C62.6124 12.2444 60.9556 9.01229 57.5062 9.01229C54.4371 9.01229 52.3457 11.5654 52.3457 14.9333C52.3457 18.4099 54.3284 20.8271 57.5062 20.8271C59.7877 20.8271 61.4445 19.6864 62.2322 17.0518H59.7877C59.6247 17.758 58.7013 18.5185 57.5877 18.5185C56.0396 18.5185 55.1976 17.6222 55.1161 15.6666L62.4223 15.6938ZM60.8741 4.85672H57.8321L55.9309 7.95303H57.8593L60.8741 4.85672ZM48.3259 5.86166L45.5556 5.72586L45.3926 9.09377L43.7087 9.01229L43.6 11.0765L45.284 11.158L44.9309 17.7852C44.8222 20.0123 46.2889 20.5284 47.9729 20.6099C48.5161 20.637 49.1136 20.637 49.6025 20.5827L49.7383 18.1654C49.4395 18.2197 49.1679 18.2197 48.8692 18.2197C47.9457 18.1654 47.7013 17.8938 47.7556 16.8617L48.0543 11.2666L50.0914 11.3753L50.1729 9.31106L48.1358 9.20241L48.3259 5.86166ZM34.3926 11.5654C34.6099 10.3703 35.3432 9.96291 36.4024 10.0716C37.3802 10.1802 38.1679 10.4518 38.0321 11.7827C37.8963 13.0321 36.321 12.8148 34.6099 12.8963C32.8716 12.9777 31.1061 13.4123 30.8345 15.9382C30.5901 18.2197 32.0024 19.4419 33.9037 19.6592C35.1259 19.795 36.4568 19.5506 37.4345 18.6271C37.4074 19.0074 37.4617 19.3605 37.516 19.7407L40.3136 20.0395C40.0963 19.5506 40.1235 18.5456 40.2321 17.5135L40.8296 11.7012C41.1012 9.0123 38.7654 8.27896 36.7555 8.06167C34.5012 7.81723 32.1111 8.44192 31.6493 11.2938L34.3926 11.5654ZM37.6518 15.3679C37.5704 16.0469 37.2987 17.921 35.1531 17.7037C34.2568 17.6222 33.4963 17.2419 33.6049 16.1012C33.7136 14.9876 34.5284 14.7432 35.3975 14.6345C36.2666 14.553 37.2444 14.6345 37.7605 14.2271L37.6518 15.3679ZM40.558 4.23203L37.516 3.9061L35.316 6.78512L37.2444 7.00241L40.558 4.23203ZM29.3135 3.03696L26.5703 2.54807L26.1357 5.04685L28.879 5.53574L29.3135 3.03696ZM21.5728 21.3432C21.8444 21.4247 22.1431 21.5333 22.4419 21.5876C25.1851 22.0765 26.1358 21.1259 26.5432 18.8716L28.5802 7.24686L25.837 6.75797L23.8271 18.2197C23.6913 19.0617 23.1481 19.116 22.6049 19.0074C22.3876 18.9802 22.1975 18.8987 22.0345 18.8173L21.5728 21.3432ZM6.47148 5.074C6.96037 3.96042 7.77519 3.71598 8.75297 4.06907C9.67643 4.39499 10.3826 4.82957 9.94804 6.07895C9.54063 7.27402 8.0468 6.70364 6.36285 6.40488C4.65173 6.07895 2.83197 6.10611 1.98999 8.49624C1.22949 10.6691 2.34308 12.1629 4.13568 12.7876C5.30358 13.195 6.63445 13.2493 7.80235 12.5703C7.69371 12.9234 7.66655 13.3037 7.63939 13.6567L10.3011 14.5802C10.2196 14.0642 10.4369 13.0592 10.79 12.1086L12.6913 6.595C13.5604 4.04191 11.4419 2.79252 9.54063 2.14067C7.39494 1.40733 4.92333 1.46165 3.83691 4.15054L6.47148 5.074ZM8.80729 9.50118C8.59001 10.1259 7.88383 11.9185 5.84679 11.2123C5.00481 10.9135 4.3258 10.3975 4.70605 9.31106C5.0863 8.2518 5.92828 8.19747 6.79742 8.27895C7.66655 8.3876 8.59001 8.68636 9.18754 8.41475L8.80729 9.50118ZM87.8174 23.5704L85.1285 24.2765L85.7804 26.721L88.4693 26.0148L87.8174 23.5704ZM89.1483 39.2692L91.8372 38.563L88.931 27.7259L86.2421 28.4321L89.1483 39.2692ZM75.7853 34.2173C75.6767 32.9951 76.2742 32.4247 77.3063 32.2346C78.2569 32.0716 79.126 32.1259 79.3433 33.4296C79.5606 34.679 77.9853 34.8692 76.3557 35.4667C74.6989 36.0371 73.1236 36.9334 73.5581 39.4321C73.9655 41.6865 75.6495 42.4741 77.5236 42.1482C78.7458 41.9037 79.9409 41.3062 80.647 40.1655C80.7285 40.5186 80.8643 40.8717 81.0273 41.1976L83.7977 40.7087C83.4718 40.3013 83.2001 39.3235 83.01 38.3186L82.0051 32.5605C81.5433 29.8988 79.0717 29.8445 77.089 30.1976C74.8618 30.5778 72.7161 31.8543 73.0692 34.7334L75.7853 34.2173ZM79.968 36.9605C80.0767 37.6124 80.3483 39.5136 78.2026 39.8939C77.3063 40.0568 76.4915 39.921 76.2742 38.7803C76.0841 37.6667 76.7902 37.205 77.605 36.8791C78.4199 36.5531 79.3705 36.363 79.7507 35.8469L79.968 36.9605ZM53.3235 44.4569L56.0939 44.2667L55.6321 37.7754C55.4692 35.5754 56.7729 35.1136 57.3161 35.0593C59.0815 34.9507 59.1087 36.4445 59.1902 37.7482L59.6248 44.0223L62.3951 43.8322L61.9606 37.5852C61.8519 36.1729 62.042 34.7334 63.6174 34.6247C65.1927 34.5161 65.41 35.7383 65.5186 37.2321L65.9532 43.5877L68.7235 43.3976L68.2075 35.9013C67.9902 32.9951 66.3877 31.9902 64.242 32.1531C62.8297 32.2618 61.8519 33.2124 61.3359 34.2173C60.684 32.9136 59.5161 32.479 58.2667 32.5605C56.963 32.642 55.9581 33.4025 55.3062 34.5976L55.1704 33.0766L52.563 33.2667L53.3235 44.4569ZM41.8074 35.8469C42.0247 34.6519 42.758 34.2445 43.8173 34.3531C44.7951 34.4618 45.5827 34.7334 45.4469 36.0642C45.3111 37.3136 43.7358 37.0963 42.0247 37.205C40.2864 37.2864 38.521 37.721 38.2494 40.247C38.0049 42.5285 39.4173 43.7507 41.3185 43.968C42.5407 44.1038 43.8716 43.8593 44.8494 42.9359C44.8222 43.3161 44.8765 43.6692 44.9309 44.0494L47.7284 44.3482C47.5111 43.8593 47.5383 42.8544 47.6469 41.8223L48.2445 36.0099C48.5161 33.321 46.1803 32.5877 44.1704 32.3704C41.916 32.1259 39.4988 32.7506 39.0642 35.6025L41.8074 35.8469ZM45.0667 39.6494C44.9852 40.3284 44.7136 42.2025 42.5679 41.9852C41.6716 41.9038 40.9111 41.5235 41.0198 40.3828C41.1284 39.2692 41.9432 39.0247 42.8123 38.9161C43.6815 38.8346 44.6593 38.9161 45.1753 38.5087L45.0667 39.6494ZM47.9729 28.5408L44.9309 28.2148L42.758 31.0938L44.6864 31.3111L47.9729 28.5408ZM23.6913 41.0075L32.8444 42.6099L33.2518 40.3284L27.7111 39.3507L34.0395 33.7827L34.4469 31.5012L26.0543 30.0346L25.6469 32.3161L30.4543 33.158L24.1259 38.726L23.6913 41.0075ZM10.6542 33.9185C10.0024 36.8247 11.9579 38.3457 14.2123 38.9704C16.4394 39.5679 18.911 39.242 19.6715 36.3902C20.2147 34.3803 18.8567 33.3482 17.39 32.5334C15.9777 31.7185 14.4839 31.1753 14.7826 30.1161C15.0271 29.2469 15.9505 29.3556 16.5481 29.5185C17.4987 29.763 18.232 30.3062 17.9876 31.4741L20.5407 32.1531C21.0567 29.4371 19.2913 28.1062 17.1728 27.5358C15.0814 26.9654 12.7456 27.1012 11.9851 29.8716C11.469 31.7729 12.8542 32.805 14.2937 33.5926C16.0863 34.5704 17.1184 35.1951 16.874 36.0914C16.6024 37.1507 15.516 37.205 14.7555 37.0148C13.6962 36.7432 12.8542 35.9556 13.1801 34.6247L10.6542 33.9185Z"
        fill="white" />
</svg>