<svg xmlns="http://www.w3.org/2000/svg" width="64" height="64" viewBox="0 0 64 64" fill="none">
    <g clip-path="url(#clip0_8_907)">
        <path
            d="M32 0C40.8356 0 48.8361 3.58238 54.6269 9.373C60.4176 15.1632 64 23.1639 64 32C64 40.8355 60.4176 48.8361 54.6269 54.6269C48.8361 60.4171 40.8356 63.9994 32 63.9994C23.1644 63.9994 15.1639 60.4171 9.37313 54.6269C3.58238 48.8361 0 40.8355 0 32C0 23.1639 3.58238 15.1632 9.37313 9.373C15.1634 3.58238 23.1639 0 32 0Z"
            fill="#ECCA43" />
        <path
            d="M32 63.3736C49.3274 63.3736 63.374 49.3271 63.374 31.9997C63.374 14.6724 49.3274 0.625875 32 0.625875C14.6726 0.625875 0.625977 14.6724 0.625977 31.9997C0.625977 49.3271 14.6726 63.3736 32 63.3736Z"
            fill="#F7E259" />
        <path fill-rule="evenodd" clip-rule="evenodd"
            d="M62.9691 26.9615C63.2383 28.6275 63.3736 30.3124 63.3736 32C63.3736 49.3267 49.3272 63.3735 32 63.3735C14.6727 63.3735 0.625854 49.3267 0.625854 32C0.625854 29.2677 0.975979 26.618 1.63223 24.0911L32.4366 47.0256L62.9691 26.9615Z"
            fill="#F8D548" />
        <path
            d="M32 7.36525C38.8017 7.36525 44.961 10.1229 49.4191 14.5809C53.8771 19.0385 56.6347 25.1978 56.6347 31.9995C56.6347 38.8013 53.8771 44.9605 49.4191 49.4185C44.961 53.8765 38.8017 56.6343 32 56.6343C25.1982 56.6343 19.039 53.8765 14.5813 49.4185C10.1233 44.9605 7.36572 38.8013 7.36572 31.9995C7.36572 25.1978 10.1233 19.0385 14.5813 14.5809C19.039 10.1229 25.1982 7.36525 32 7.36525Z"
            fill="#D7925B" />
        <path
            d="M32.0001 56.0083C45.2597 56.0083 56.0088 45.2592 56.0088 31.9996C56.0088 18.74 45.2597 7.991 32.0001 7.991C18.7405 7.991 7.99152 18.74 7.99152 31.9996C7.99152 45.2592 18.7405 56.0083 32.0001 56.0083Z"
            fill="#EDA140" />
        <path
            d="M29.4884 44.1261C29.1406 44.1015 28.9277 44.0663 28.672 44.025L27.2402 43.8196L26.3565 43.6714C26.0702 43.6205 25.784 43.5628 25.5015 43.5001C25.2247 43.4393 24.9493 43.3722 24.6755 43.299L24.339 43.2086V37.6787L25.9027 37.806L27.0509 37.874L28.2557 37.9275L29.4761 37.9655L30.6622 37.9885L31.7642 37.9939C32.0992 37.9939 32.3929 37.9821 32.6439 37.9596C32.9022 37.9366 33.1345 37.9013 33.3399 37.8548C33.5266 37.8125 33.6899 37.7569 33.8284 37.69C33.9471 37.6327 34.0461 37.5643 34.1231 37.4873C34.1883 37.4225 34.2384 37.3441 34.2697 37.2578C34.3067 37.156 34.3254 37.034 34.3254 36.8944V36.529C34.3254 36.2374 34.2317 36.0245 34.045 35.8924C33.9291 35.81 33.8004 35.7473 33.6641 35.7067C33.5245 35.6634 33.3677 35.6425 33.1955 35.6425H31.5819C30.3664 35.6425 29.2882 35.5061 28.3505 35.2342C27.3944 34.9571 26.5876 34.5388 25.9306 33.9814C25.2591 33.4083 24.7572 32.6503 24.4266 31.707C24.1046 30.7889 23.943 29.6959 23.943 28.43V27.4252C23.943 26.2531 24.1222 25.2211 24.4791 24.3302C24.8424 23.4245 25.3891 22.6696 26.1174 22.0683C26.6449 21.6339 27.1435 21.2781 27.7357 20.9999C28.2359 20.765 28.7966 20.589 29.4884 20.4735V18.0205H34.5881V20.3745C35.4317 20.4419 36.0856 20.5596 36.9111 20.7089L37.3396 20.7838C37.6975 20.8469 38.0544 20.9159 38.4075 20.9891C38.7387 21.0571 39.0575 21.1283 39.3604 21.2016L39.7076 21.2861V26.8234L39.2154 26.7801C38.724 26.7372 38.2321 26.7004 37.7399 26.6699C37.1882 26.6352 36.6362 26.606 36.084 26.5821C35.5317 26.5579 34.9792 26.539 34.4265 26.5255C33.9525 26.5142 33.4506 26.5082 32.9215 26.5082C32.6434 26.5082 32.3855 26.518 32.15 26.5366C31.9034 26.5559 31.6787 26.5842 31.4786 26.6206C31.2972 26.6532 31.1356 26.7036 30.9976 26.7684C30.8756 26.8261 30.7702 26.8984 30.6841 26.9845C30.6119 27.0568 30.5551 27.1498 30.5177 27.2595C30.4739 27.3884 30.4514 27.5457 30.4514 27.7297V28.0341C30.4514 28.23 30.4797 28.3959 30.536 28.5285C30.587 28.6503 30.6675 28.7574 30.7702 28.8404C30.8815 28.9309 31.0314 29.0015 31.217 29.0508C31.4246 29.1053 31.6787 29.1336 31.9772 29.1336H33.9867C34.725 29.1336 35.4099 29.2059 36.0385 29.3481C36.6741 29.4926 37.2476 29.7109 37.7569 30.0009C38.7794 30.5835 39.5502 31.3769 40.0671 32.379C40.3217 32.8723 40.5144 33.4025 40.6422 33.9674C40.7696 34.5296 40.8342 35.1204 40.8342 35.7373V36.7419C40.8342 37.7332 40.7455 38.6171 40.57 39.3903C40.3907 40.1789 40.1174 40.8507 39.7525 41.4045C39.3871 41.9587 38.942 42.4243 38.4209 42.7988C37.9002 43.1728 37.3044 43.4563 36.6377 43.6473L36.467 43.6949C35.8165 43.8821 35.3456 44.018 34.5881 44.101V46.7556H29.4884V44.1261Z"
            fill="#C26A34" />
        <path
            d="M28.712 43.3496C28.3643 43.325 28.1513 43.2898 27.8955 43.2486L26.4639 43.0431L25.58 42.8949C25.2939 42.8439 25.0088 42.7868 24.7251 42.7238C24.4483 42.6628 24.1729 42.5958 23.899 42.5226L23.5625 42.4321V36.9022L25.1264 37.0296L26.2745 37.0976L27.4793 37.1511L28.6996 37.189L29.8858 37.212L30.9879 37.2174C31.3228 37.2174 31.6165 37.2056 31.8674 37.1833C32.1258 37.1601 32.358 37.1249 32.5635 37.0783C32.7503 37.036 32.9134 36.9804 33.0519 36.9135C33.1708 36.8563 33.2696 36.7878 33.3468 36.7108C33.412 36.646 33.462 36.5676 33.4933 36.4813C33.5303 36.3796 33.549 36.2576 33.549 36.118V35.7525C33.549 35.461 33.4552 35.248 33.2686 35.1159C33.1526 35.0336 33.0239 34.9709 32.8876 34.9302C32.748 34.887 32.5913 34.866 32.419 34.866H30.8054C29.5899 34.866 28.5119 34.7296 27.574 34.4579C26.6179 34.1807 25.8111 33.7624 25.1541 33.2049C24.4828 32.6319 23.9809 31.8737 23.6503 30.9305C23.3281 30.0125 23.1666 28.9195 23.1666 27.6536V26.6489C23.1666 25.4766 23.3458 24.4446 23.7026 23.5539C24.0659 22.6481 24.6128 21.8931 25.3409 21.2919C25.8684 20.8574 26.367 20.5016 26.9593 20.2234C27.4595 19.9886 28.0201 19.8125 28.712 19.697V17.244H33.8116V19.598C34.6554 19.6654 35.3091 19.7831 36.1346 19.9324L36.5633 20.0072C36.9211 20.0704 37.278 20.1394 37.6311 20.2127C37.9623 20.2807 38.2811 20.3519 38.5839 20.4251L38.9311 20.5096V26.047L38.439 26.0036C37.9476 25.9607 37.4557 25.924 36.9634 25.8934C36.4246 25.8598 35.8719 25.8298 35.3075 25.8057C34.718 25.7805 34.1631 25.7608 33.65 25.749C33.176 25.7378 32.6743 25.7319 32.1451 25.7319C31.8669 25.7319 31.609 25.7415 31.3736 25.7603C31.1485 25.7769 30.9244 25.8049 30.7021 25.8442C30.5208 25.8769 30.3593 25.9271 30.2213 25.9919C30.0993 26.0496 29.9939 26.1219 29.9078 26.208C29.8355 26.2803 29.7788 26.3734 29.7413 26.483C29.6974 26.612 29.675 26.7693 29.675 26.9533V27.2577C29.675 27.4535 29.7034 27.6194 29.7595 27.752C29.8106 27.8738 29.8911 27.981 29.9939 28.064C30.1051 28.1544 30.2549 28.225 30.4406 28.2743C30.6481 28.3287 30.9023 28.3571 31.2009 28.3571H33.2103C33.9486 28.3571 34.6334 28.4294 35.262 28.5718C35.8976 28.7161 36.4711 28.9344 36.9805 29.2244C38.0029 29.807 38.7739 30.6005 39.2906 31.6025C39.5453 32.0958 39.7379 32.626 39.8658 33.1909C39.9931 33.7533 40.0579 34.3439 40.0579 34.9608V35.9655C40.0579 36.9569 39.969 37.8406 39.7936 38.6138C39.6144 39.4024 39.341 40.0744 38.976 40.6281C38.6106 41.1824 38.1655 41.6478 37.6444 42.0223C37.1239 42.3963 36.5279 42.6799 35.8613 42.8709L35.6906 42.9185C35.04 43.1057 34.5693 43.2416 33.8116 43.3245V45.9793H28.712V43.3496Z"
            fill="#F3DC6B" />
    </g>
    <defs>
        <clipPath id="clip0_8_907">
            <rect width="64" height="63.9994" fill="white" />
        </clipPath>
    </defs>
</svg>