<svg width="198" height="245" viewBox="0 0 198 245" fill="none" xmlns="http://www.w3.org/2000/svg">
    <path
        d="M184.155 218.613L54.5831 243.151C46.1796 244.736 38.1035 239.217 36.5211 230.8L1.32479 44.3854C-0.257676 35.9692 5.25368 27.8808 13.6571 26.2959L143.229 1.75761C151.632 0.172729 159.708 5.69249 161.291 14.1088L196.46 200.524C198.069 208.94 192.558 217.028 184.155 218.613Z"
        fill="white" stroke="black" stroke-width="1.44" stroke-miterlimit="3.8637" />
    <path
        d="M30.3549 81.6848L20.9692 83.7068L20.9419 83.1603C24.0523 82.5045 25.1163 79.7173 24.216 76.247H24.1614C23.9977 77.7772 23.0973 79.2254 21.7059 79.526C20.2871 79.8266 18.7865 78.7882 18.4045 77.0394C17.9952 75.1813 18.8138 73.651 19.7141 72.2848C20.9965 70.372 22.1424 68.1586 21.9514 65.5354H22.006C22.9609 67.9127 24.4888 69.1423 26.3441 70.3993C27.7902 71.4377 29.4818 72.5034 29.9183 74.5528C30.273 76.247 29.4272 77.8592 27.9812 78.1871C26.5624 78.4877 25.2528 77.5039 24.4342 76.1923H24.3797C25.0618 79.7993 26.9444 81.7394 30.1366 81.1656L30.3549 81.6848Z"
        fill="black" />
    <path
        d="M143.556 169.919L77.8563 181.614L77.7744 177.761C99.5198 174.072 107.596 154.862 102.221 130.488L101.921 130.543C100.366 141.2 93.7628 150.982 84.0497 152.704C74.0638 154.48 63.8869 146.801 61.7315 134.696C59.4396 121.744 65.333 111.196 72.0448 101.906C81.4032 88.9806 89.8885 73.7603 89.2064 55.5888L89.5065 55.5341C95.5909 72.2027 105.85 81.1109 118.537 90.4562C128.386 98.0254 139.791 105.84 142.328 120.159C144.456 132.1 138.181 143.058 128.059 144.861C118.209 146.61 109.315 139.396 103.803 130.188L103.503 130.242C107.378 155.409 119.983 169.345 142.301 166.257L143.556 169.919Z"
        fill="black" />
    <path
        d="M14.8303 38.0185L17.6133 37.4173L27.2172 59.3051L24.3797 59.9062L22.3334 55.015L17.6951 56.026L17.8316 61.3272L15.0759 61.9283L14.8303 38.0185ZM17.5587 53.2115L21.0783 52.4464L17.4223 43.3743H17.395L17.5587 53.2115Z"
        fill="black" />
    <path d="M27.7881 56.7787L22.4019 57.9494L22.8937 60.2194L28.28 59.0487L27.7881 56.7787Z"
        fill="black" />
    <path d="M18.9502 58.704L13.5753 59.879L14.0664 62.1471L19.4413 60.9721L18.9502 58.704Z"
        fill="black" />
</svg>
    