<svg xmlns="http://www.w3.org/2000/svg" width="222" height="244" viewBox="0 0 222 244" fill="none">
    <path
        d="M93.6413 197.825L98.9721 243.329H104.438L128.197 205.74L151.983 243.329H157.422L162.78 197.825L207.673 225.84L190.489 175.604L221.744 178.976V159.638L205.86 143.509L221.744 137.824V113.536L205.86 107.851L221.744 91.7219V72.3834L190.489 75.7561L207.673 25.5195L162.78 53.5345L156.556 0.768372L128.197 45.5924L99.838 0.768372L93.6413 53.5345L48.7215 25.5195L65.9047 75.7561L13.3539 70.0987L50.5345 107.851L0.743896 125.666L50.5345 143.509L13.3539 181.261L65.9047 175.604L48.7215 225.84L93.6413 197.825Z"
        fill="#C4000C" />
</svg>