<svg
  xmlns="http://www.w3.org/2000/svg"
  width="198"
  height="176"
  viewBox="0 0 198 176"
  fill="none"
>
  <path
    d="M197.267 136.011L182.179 127.295V144.728L197.267 136.011L182.179 127.295V144.728L197.267 136.011Z"
    fill="white" />
  <path
    d="M5 111H9.87097C12.1613 111 13.6452 112.044 13.6452 114.195C13.6452 115.713 12.8387 116.883 11.5484 117.136V117.168C12.5484 117.326 14 117.737 14 120.394C14 121.912 13.3226 124 9.6129 124H5V111ZM8.12903 116.187H9C10.0968 116.187 10.5161 115.586 10.5161 114.669C10.5161 114.005 10.129 113.277 9 113.277H8.12903V116.187ZM8.12903 121.723H9.06452C10.3226 121.723 10.7742 120.932 10.7742 120.015C10.7742 118.749 10.0968 118.18 9.12903 118.18H8.12903V121.723Z"
    fill="#FFEC00" />
  <path
    d="M19 124C15.469 124 15 121.475 15 117.521C15 113.567 15.469 111.042 19 111.042C22.8069 111.042 23 114.084 23 117.521C23 120.958 22.7793 124 19 124ZM18.9724 122.023C20.0483 122.023 20.2138 120.928 20.2138 117.491C20.2138 114.053 20.0483 112.958 18.9724 112.958C17.9241 112.958 17.7586 114.053 17.7586 117.491C17.7586 120.928 17.9241 122.023 18.9724 122.023ZM18.8069 108H21.2897L19.6897 110.494H18.0069L18.8069 108Z"
    fill="#FFEC00" />
  <path
    d="M25 111H28.1661L30.4276 119.445H30.4558V111H33V124H29.8905L27.4876 115.049H27.4594V124H25V111Z"
    fill="#FFEC00" />
  <path
    d="M42 119.532C42 122.045 41.4081 124 38.5 124C35.5919 124 35 122.045 35 119.532V111H37.4963V120.401C37.4963 121.394 37.8309 121.983 38.5 121.983C39.1691 121.983 39.5037 121.394 39.5037 120.401V111H42V119.532Z"
    fill="#FFEC00" />
  <path
    d="M46.7148 119.93V120.355C46.7148 121.297 46.9747 122.026 47.9278 122.026C48.9097 122.026 49.1986 121.266 49.1986 120.537C49.1986 117.834 44.0578 119.353 44.0578 114.675C44.0578 112.671 45.0686 111 47.9567 111C50.7581 111 51.7689 112.488 51.7689 114.402V114.706H49.0542C49.0542 114.098 48.9964 113.673 48.8231 113.4C48.6498 113.096 48.3899 112.974 47.9856 112.974C47.2924 112.974 46.8592 113.4 46.8592 114.311C46.8592 116.923 52 115.617 52 120.021C52 122.846 50.4982 124 47.9278 124C45.8773 124 44 123.362 44 120.75V119.96H46.7148V119.93Z"
    fill="#FFEC00" />
  <path d="M53 121.723L56.8889 113.467H53.3056V111H60V113.151L56.0556 121.533H60V124H53V121.723Z"
    fill="#FFEC00" />
  <path
    d="M66.284 111H69V119.905C69 122.263 68.132 124 65.444 124C63.008 124 62 122.728 62 120.494V119.718H64.52V120.277C64.52 121.146 64.52 122.014 65.416 122.014C66.2 122.014 66.284 121.115 66.284 119.936V111Z"
    fill="#FFEC00" />
  <path
    d="M73.2121 111.305H76.8788L80 124H76.9394L76.4848 121.591H73.4849L73.0606 124H70L73.2121 111.305ZM75 113.622H74.9697L73.9394 119.274H76.0909L75 113.622ZM74.8182 108H77.5455L75.7879 110.533H73.9394L74.8182 108Z"
    fill="#FFEC00" />
  <path d="M82.2472 113.467H80V111H87V113.467H84.7528V124H82.2472V113.467Z" fill="#FFEC00" />
  <path
    d="M88 111.311H95.8041V113.725H91.1673V116.263H95.5102V118.677H91.1673V121.586H96V124H88V111.311ZM91.5265 108H94.4653L92.5714 110.538H90.5796L91.5265 108Z"
    fill="#FFEC00" />
  <path
    d="M97 111H99.8436V116.124H99.873L102.541 111H105.619L102.453 116.599L106 124H102.805L100.606 119.097L99.8436 120.363V124H97V111Z"
    fill="#FFEC00" />
  <path d="M107 114H110V117.399H107V114ZM107 120.601H110V124H107V120.601Z" fill="#FFEC00" />
  <path
    d="M116.148 112.484H118.795V116.692H120.896V112.484H123.542V123.715H120.896V118.933H118.795V123.715H116.148V112.484Z"
    fill="white" />
  <path
    d="M125.043 117.813C125.07 116.638 125.397 115.954 125.998 115.545C126.598 115.135 127.335 114.998 128.371 114.998C130.472 114.998 131.4 115.709 131.4 117.512V121.884C131.4 122.54 131.4 123.36 131.7 123.715H129.244C129.135 123.414 129.108 123.059 129.108 122.731H129.081C128.726 123.496 127.935 123.934 127.089 123.934C125.643 123.934 124.824 123.168 124.824 121.338C124.824 120.354 125.234 119.507 125.861 119.179C126.489 118.824 127.444 118.687 128.153 118.496C128.917 118.304 129.081 118.168 129.081 117.512C129.081 116.993 128.835 116.665 128.29 116.665C127.58 116.665 127.362 117.102 127.362 117.84H125.043V117.813ZM127.989 122.157C128.535 122.157 129.026 121.829 129.026 120.982C129.026 120.272 129.053 119.835 129.053 119.479C128.262 119.917 127.908 119.917 127.662 120.108C127.389 120.299 127.28 120.572 127.28 121.037C127.253 121.747 127.526 122.157 127.989 122.157Z"
    fill="white" />
  <path
    d="M137.02 117.813C137.048 116.638 137.375 115.954 137.975 115.545C138.576 115.135 139.312 114.998 140.349 114.998C142.45 114.998 143.378 115.709 143.378 117.512V121.884C143.378 122.54 143.378 123.36 143.678 123.715H141.222C141.113 123.414 141.086 123.059 141.086 122.731H141.058C140.704 123.496 139.912 123.934 139.067 123.934C137.621 123.934 136.802 123.168 136.802 121.338C136.802 120.354 137.211 119.507 137.839 119.179C138.466 118.824 139.421 118.687 140.131 118.496C140.895 118.304 141.058 118.168 141.058 117.512C141.058 116.993 140.813 116.665 140.267 116.665C139.558 116.665 139.34 117.102 139.34 117.84H137.02V117.813ZM139.994 122.157C140.54 122.157 141.031 121.829 141.031 120.982C141.031 120.272 141.058 119.835 141.058 119.479C140.267 119.917 139.912 119.917 139.667 120.108C139.394 120.299 139.285 120.572 139.285 121.037C139.258 121.747 139.531 122.157 139.994 122.157Z"
    fill="white" />
  <path
    d="M5.05164 128.879H7.61633V134.645H7.64361L9.55349 131.584H12.3637L9.90818 135L12.6639 140.083H9.8809L8.29843 136.886L7.64361 137.787V140.11H5.07892V128.879H5.05164Z"
    fill="white" />
  <path
    d="M13.1821 134.208C13.2094 133.033 13.5368 132.35 14.1371 131.94C14.7373 131.53 15.474 131.393 16.5108 131.393C18.6116 131.393 19.5393 132.104 19.5393 133.907V138.279C19.5393 138.935 19.5393 139.755 19.8394 140.11H17.3839C17.2747 139.809 17.2474 139.454 17.2474 139.126H17.2202C16.8655 139.891 16.0742 140.329 15.2284 140.329C13.7824 140.329 12.9639 139.564 12.9639 137.733C12.9639 136.749 13.3731 135.902 14.0007 135.574C14.6282 135.219 15.5831 135.082 16.2925 134.891C17.0565 134.7 17.2202 134.563 17.2202 133.907C17.2202 133.388 16.9746 133.06 16.4289 133.06C15.7195 133.06 15.5013 133.497 15.5013 134.235H13.1821V134.208ZM16.1561 138.552C16.7018 138.552 17.1929 138.225 17.1929 137.377C17.1929 136.667 17.2202 136.23 17.2202 135.875C16.4289 136.312 16.0742 136.312 15.8287 136.503C15.5558 136.694 15.4467 136.968 15.4467 137.432C15.4194 138.143 15.6923 138.552 16.1561 138.552Z"
    fill="white" />
  <path
    d="M21.1218 131.585H23.5774V132.623H23.6047C23.7957 132.049 24.314 131.366 25.46 131.366C27.1789 131.366 28.1065 132.596 28.1065 135.765C28.1065 138.416 27.7245 140.301 25.6237 140.301C24.9143 140.301 24.1503 140.055 23.7138 139.154H23.6865V142.843H21.1218V131.585ZM24.5596 138.471C25.4873 138.471 25.5418 137.46 25.5418 135.902C25.5418 134.536 25.5145 133.224 24.5596 133.224C23.7957 133.224 23.6319 134.126 23.6319 135.793C23.6319 137.296 23.6865 138.471 24.5596 138.471Z"
    fill="white" />
  <path
    d="M29.2798 134.208C29.3071 133.033 29.6345 132.35 30.2347 131.94C30.835 131.53 31.5717 131.393 32.6084 131.393C34.7093 131.393 35.637 132.104 35.637 133.907V138.279C35.637 138.935 35.637 139.755 35.9371 140.11H33.4815C33.3724 139.809 33.3451 139.454 33.3451 139.126H33.3178C32.9631 139.891 32.1719 140.329 31.3261 140.329C29.88 140.329 29.0615 139.564 29.0615 137.733C29.0615 136.749 29.4708 135.902 30.0983 135.574C30.7258 135.219 31.6808 135.082 32.3902 134.891C33.1541 134.7 33.3178 134.563 33.3178 133.907C33.3178 133.388 33.0723 133.06 32.5266 133.06C31.8172 133.06 31.5989 133.497 31.5989 134.235H29.2798V134.208ZM32.2265 138.552C32.7721 138.552 33.2633 138.225 33.2633 137.377C33.2633 136.667 33.2905 136.23 33.2905 135.875C32.4993 136.312 32.1446 136.312 31.8991 136.503C31.6262 136.694 31.5171 136.968 31.5171 137.432C31.4898 138.143 31.7626 138.552 32.2265 138.552Z"
    fill="white" />
  <path
    d="M37.1922 131.585H39.6478V132.787H39.675C40.0024 132.022 40.6573 131.366 41.7213 131.366C41.8578 131.366 41.9669 131.366 42.1306 131.393V133.798C41.9123 133.743 41.694 133.743 41.4485 133.743C40.4117 133.743 39.7569 134.18 39.7569 135.273V140.11H37.1922V131.585Z"
    fill="white" />
  <path
    d="M42.7581 135.875C42.7581 133.333 43.331 131.393 46.2777 131.393C49.4153 131.393 49.7973 133.306 49.7973 135.847C49.7973 138.389 49.2244 140.329 46.2777 140.329C43.14 140.329 42.7581 138.416 42.7581 135.875ZM46.114 128.469H48.5695L46.9871 130.71H45.3227L46.114 128.469ZM46.305 133.033C45.541 133.033 45.3227 133.771 45.3227 135.82C45.3227 137.897 45.541 138.635 46.305 138.635C47.0962 138.635 47.2599 137.924 47.2599 135.847C47.2326 133.743 47.0689 133.033 46.305 133.033Z"
    fill="white" />
  <path
    d="M51.2706 133.361H50.2065V131.612H51.2706V130.901C51.2706 129.316 51.789 128.661 53.8625 128.661C54.3264 128.661 54.6538 128.688 55.0085 128.715V130.437H54.6538C53.9717 130.437 53.8352 130.601 53.8352 131.093V131.639H55.0085V133.388H53.8352V140.137H51.2706V133.361Z"
    fill="white" />
  <path
    d="M57.8734 136.257V136.776C57.8734 138.088 58.0644 138.744 58.8011 138.744C59.4559 138.744 59.6741 138.252 59.7287 137.186H62.1024C62.0479 139.29 60.9019 140.301 58.8011 140.301C55.5816 140.301 55.336 138.061 55.336 135.519C55.336 133.115 56.0181 131.366 58.8011 131.366C61.966 131.366 62.1843 133.361 62.1843 136.257H57.8734ZM59.7287 134.782C59.7287 133.579 59.565 132.951 58.8556 132.951C58.0098 132.951 57.8734 133.634 57.8734 134.782H59.7287Z"
    fill="white" />
  <path d="M63.2482 128.879H65.8129V140.11H63.2482V128.879Z" fill="white" />
  <path
    d="M74.0528 140.11H71.5972V139.099H71.57C71.2153 139.864 70.4786 140.329 69.5237 140.329C68.0776 140.329 67.2864 139.618 67.2864 137.979V131.612H69.8511V137.405C69.8511 138.006 70.1239 138.388 70.5877 138.388C71.0788 138.388 71.5154 138.006 71.5154 137.186V131.612H74.0801V140.11H74.0528ZM68.3232 128.551H70.2876V130.601H68.3232V128.551ZM71.1061 128.551H73.0706V130.601H71.1061V128.551Z"
    fill="white" />
  <path d="M75.5535 128.879H78.1182V140.11H75.5535V128.879Z" fill="white" />
  <path
    d="M81.856 136.257V136.776C81.856 138.088 82.047 138.744 82.7837 138.744C83.4385 138.744 83.6568 138.252 83.7113 137.186H86.085C86.0305 139.29 84.8845 140.301 82.7837 140.301C79.5642 140.301 79.3186 138.061 79.3186 135.519C79.3186 133.115 80.0007 131.366 82.7837 131.366C85.9486 131.366 86.1669 133.361 86.1669 136.257H81.856ZM83.7113 134.782C83.7113 133.579 83.5476 132.951 82.8382 132.951C81.9924 132.951 81.856 133.634 81.856 134.782H83.7113Z"
    fill="white" />
  <path
    d="M87.5038 133.36H86.4397V131.612H87.5038V129.125H90.0685V131.612H91.2417V133.36H90.0685V137.651C90.0685 138.252 90.2867 138.443 90.887 138.443C90.9961 138.443 91.1325 138.416 91.2417 138.416V140.11C90.7506 140.165 90.2595 140.192 89.7683 140.192C87.9949 140.192 87.5038 139.891 87.5038 137.897V133.36Z"
    fill="white" />
  <path
    d="M96.2074 134.208C96.2346 133.033 96.562 132.35 97.1623 131.94C97.7625 131.53 98.4992 131.393 99.536 131.393C101.637 131.393 102.565 132.104 102.565 133.907V138.279C102.565 138.935 102.565 139.755 102.865 140.11H100.409C100.3 139.809 100.273 139.454 100.273 139.126H100.245C99.8907 139.891 99.0995 140.329 98.2536 140.329C96.8076 140.329 95.9891 139.564 95.9891 137.733C95.9891 136.749 96.3983 135.902 97.0259 135.574C97.6534 135.219 98.6083 135.082 99.3177 134.891C100.082 134.7 100.245 134.563 100.245 133.907C100.245 133.388 99.9998 133.06 99.4541 133.06C98.7448 133.06 98.5265 133.497 98.5265 134.235H96.2074V134.208ZM99.1813 138.552C99.727 138.552 100.218 138.225 100.218 137.377C100.218 136.667 100.245 136.23 100.245 135.875C99.4541 136.312 99.0994 136.312 98.8539 136.503C98.581 136.694 98.4719 136.968 98.4719 137.432C98.4446 138.143 98.6902 138.552 99.1813 138.552Z"
    fill="white" />
  <path d="M104.201 128.879H106.766V140.11H104.201V128.879Z" fill="white" />
  <path
    d="M108.212 134.208C108.239 133.033 108.567 132.35 109.167 131.94C109.767 131.53 110.504 131.393 111.541 131.393C113.642 131.393 114.569 132.104 114.569 133.907V138.279C114.569 138.935 114.569 139.755 114.869 140.11H112.414C112.305 139.809 112.277 139.454 112.277 139.126H112.25C111.895 139.891 111.104 140.329 110.258 140.329C108.812 140.329 107.994 139.564 107.994 137.733C107.994 136.749 108.403 135.902 109.031 135.574C109.658 135.219 110.613 135.082 111.322 134.891C112.086 134.7 112.25 134.563 112.25 133.907C112.25 133.388 112.005 133.06 111.459 133.06C110.75 133.06 110.531 133.497 110.531 134.235H108.212V134.208ZM111.159 138.552C111.704 138.552 112.196 138.225 112.196 137.377C112.196 136.667 112.223 136.23 112.223 135.875C111.432 136.312 111.077 136.312 110.831 136.503C110.559 136.694 110.449 136.968 110.449 137.432C110.422 138.143 110.695 138.552 111.159 138.552Z"
    fill="white" />
  <path
    d="M116.479 133.36H115.415V131.612H116.479V129.125H119.044V131.612H120.217V133.36H119.044V137.651C119.044 138.252 119.262 138.443 119.863 138.443C119.972 138.443 120.108 138.416 120.217 138.416V140.11C119.726 140.165 119.235 140.192 118.744 140.192C116.97 140.192 116.479 139.891 116.479 137.897V133.36Z"
    fill="white" />
  <path
    d="M121.445 133.36H120.381V131.612H121.445V129.125H124.01V131.612H125.183V133.36H124.01V137.651C124.01 138.252 124.228 138.443 124.828 138.443C124.937 138.443 125.074 138.416 125.183 138.416V140.11C124.692 140.165 124.201 140.192 123.71 140.192C121.936 140.192 121.445 139.891 121.445 137.897V133.36Z"
    fill="white" />
  <path
    d="M126.138 128.743H128.703V130.683H126.138V128.743ZM126.138 131.584H128.703V140.083H126.138V131.584Z"
    fill="white" />
  <path
    d="M134.296 128.879H136.86V132.513H136.888C137.297 131.694 137.979 131.366 138.852 131.366C140.298 131.366 141.089 132.076 141.089 133.716V140.083H138.525V134.29C138.525 133.688 138.252 133.306 137.788 133.306C137.297 133.306 136.888 133.688 136.888 134.508V140.083H134.323V128.879H134.296Z"
    fill="white" />
  <path
    d="M142.426 134.208C142.454 133.033 142.781 132.35 143.381 131.94C143.981 131.53 144.718 131.393 145.755 131.393C147.856 131.393 148.783 132.104 148.783 133.907V138.279C148.783 138.935 148.783 139.755 149.084 140.11H146.628C146.519 139.81 146.492 139.454 146.492 139.126H146.464C146.11 139.892 145.318 140.329 144.473 140.329C143.027 140.329 142.208 139.564 142.208 137.733C142.208 136.749 142.617 135.902 143.245 135.574C143.872 135.219 144.827 135.082 145.537 134.891C146.301 134.7 146.464 134.563 146.464 133.907C146.464 133.388 146.219 133.06 145.673 133.06C144.964 133.06 144.745 133.497 144.745 134.235H142.426V134.208ZM145.4 138.553C145.946 138.553 146.437 138.225 146.437 137.378C146.437 136.667 146.464 136.23 146.464 135.875C145.673 136.312 145.318 136.312 145.073 136.503C144.8 136.694 144.691 136.968 144.691 137.432C144.664 138.143 144.936 138.553 145.4 138.553ZM145.537 128.469H147.992L146.41 130.71H144.745L145.537 128.469Z"
    fill="white" />
  <path
    d="M150.366 131.585H152.822V132.787H152.849C153.176 132.022 153.831 131.366 154.895 131.366C155.032 131.366 155.141 131.366 155.304 131.393V133.798C155.059 133.743 154.868 133.743 154.622 133.743C153.585 133.743 152.931 134.18 152.931 135.273V140.11H150.366V131.585Z"
    fill="white" />
  <path
    d="M155.741 135.875C155.741 133.333 156.314 131.393 159.261 131.393C162.398 131.393 162.78 133.306 162.78 135.847C162.78 138.389 162.207 140.329 159.261 140.329C156.123 140.329 155.741 138.416 155.741 135.875ZM159.261 133.033C158.497 133.033 158.278 133.77 158.278 135.82C158.278 137.897 158.497 138.634 159.261 138.634C160.052 138.634 160.216 137.924 160.216 135.847C160.216 133.743 160.052 133.033 159.261 133.033Z"
    fill="white" />
  <path
    d="M163.981 131.585H166.436V132.596H166.464C166.818 131.83 167.555 131.366 168.51 131.366C169.247 131.366 170.229 131.503 170.611 132.678C171.211 131.694 171.784 131.366 172.739 131.366C174.185 131.366 174.976 132.076 174.976 133.716V140.083H172.411V134.29C172.411 133.689 172.139 133.306 171.675 133.306C171.184 133.306 170.774 133.689 170.774 134.508V140.083H168.21V134.29C168.21 133.689 167.937 133.306 167.473 133.306C166.982 133.306 166.545 133.689 166.545 134.508V140.083H163.981V131.585Z"
    fill="white" />
  <path
    d="M6.98887 153.8C7.01616 154.183 7.04344 154.511 7.15258 154.757C7.289 155.002 7.53455 155.139 7.94381 155.139C8.54406 155.139 8.87147 154.757 8.87147 154.265C8.87147 153.882 8.68048 153.5 7.88924 153.226C5.78838 152.516 4.77887 152.106 4.77887 150.33C4.77887 148.636 5.97937 147.761 8.02566 147.761C10.4267 147.761 11.1088 148.936 11.1088 150.139V150.412H8.84418V150.248C8.84418 149.51 8.54406 149.319 7.99838 149.319C7.31628 149.319 7.12529 149.647 7.12529 150.111C7.12529 151.614 11.2179 150.603 11.2179 153.909C11.2179 155.631 10.072 156.697 7.94381 156.697C5.65196 156.697 4.69702 155.85 4.69702 154.155V153.773H6.98887V153.8Z"
    fill="white" />
  <path
    d="M12.1182 154.538L15.3377 149.92H12.2546V147.98H18.3662V149.92L15.0649 154.538H18.4481V156.478H12.1182V154.538Z"
    fill="white" />
  <path
    d="M19.6213 150.603C19.6486 149.428 19.976 148.745 20.5763 148.335C21.1765 147.925 21.9132 147.789 22.95 147.789C25.0509 147.789 25.9785 148.499 25.9785 150.303V154.675C25.9785 155.33 25.9785 156.15 26.2786 156.505H23.8231C23.7139 156.205 23.6867 155.85 23.6867 155.522H23.6594C23.3047 156.287 22.5134 156.724 21.6676 156.724C20.2216 156.724 19.4031 155.959 19.4031 154.128C19.4031 153.144 19.8123 152.297 20.4399 151.969C21.0674 151.614 22.0223 151.478 22.7317 151.286C23.4957 151.095 23.6594 150.958 23.6594 150.303C23.6594 149.783 23.4138 149.455 22.8681 149.455C22.1588 149.455 21.9405 149.893 21.9405 150.63H19.6213V150.603ZM22.568 154.948C23.1137 154.948 23.6048 154.62 23.6048 153.773C23.6048 153.062 23.6321 152.625 23.6321 152.27C22.8409 152.707 22.4862 152.707 22.2406 152.898C21.9678 153.09 21.8586 153.363 21.8586 153.828C21.8313 154.538 22.1042 154.948 22.568 154.948ZM22.7044 144.865H25.16L23.5775 147.105H21.9132L22.7044 144.865Z"
    fill="white" />
  <path
    d="M27.6155 147.98H30.071V148.991H30.0983C30.453 148.226 31.1897 147.761 32.1446 147.761C32.8813 147.761 33.8635 147.898 34.2455 149.073C34.8457 148.089 35.4187 147.761 36.3736 147.761C37.8197 147.761 38.6109 148.472 38.6109 150.111V156.478H36.0462V150.685C36.0462 150.084 35.7734 149.701 35.3096 149.701C34.8184 149.701 34.4092 150.084 34.4092 150.904V156.478H31.8445V150.685C31.8445 150.084 31.5716 149.701 31.1078 149.701C30.6167 149.701 30.1802 150.084 30.1802 150.904V156.478H27.6155V147.98Z"
    fill="white" />
  <path
    d="M43.9313 152.27C43.9313 149.729 44.5042 147.789 47.4509 147.789C50.5886 147.789 50.9705 149.701 50.9705 152.243C50.9705 154.784 50.3976 156.724 47.4509 156.724C44.3133 156.724 43.9313 154.811 43.9313 152.27ZM45.0772 144.947H47.0416V146.996H45.0772V144.947ZM47.4509 149.428C46.687 149.428 46.4687 150.166 46.4687 152.215C46.4687 154.292 46.687 155.03 47.4509 155.03C48.2421 155.03 48.4058 154.319 48.4058 152.243C48.4058 150.139 48.2421 149.428 47.4509 149.428ZM47.8602 144.947H49.8246V146.996H47.8602V144.947Z"
    fill="white" />
  <path
    d="M54.0536 153.8C54.0809 154.183 54.1082 154.511 54.2173 154.757C54.3538 155.002 54.5993 155.139 55.0086 155.139C55.6088 155.139 55.9362 154.757 55.9362 154.265C55.9362 153.882 55.7452 153.5 54.954 153.226C52.8531 152.516 51.8436 152.106 51.8436 150.33C51.8436 148.636 53.0441 147.761 55.0904 147.761C57.4914 147.761 58.1735 148.936 58.1735 150.139V150.412H55.9089V150.248C55.9089 149.51 55.6088 149.319 55.0631 149.319C54.381 149.319 54.19 149.647 54.19 150.111C54.19 151.614 58.2826 150.603 58.2826 153.909C58.2826 155.631 57.1367 156.697 55.0086 156.697C52.7167 156.697 51.7618 155.85 51.7618 154.155V153.773H54.0536V153.8Z"
    fill="white" />
  <path
    d="M61.3657 153.8C61.393 154.183 61.4203 154.511 61.5294 154.757C61.6658 155.002 61.9114 155.139 62.3206 155.139C62.9209 155.139 63.2483 154.757 63.2483 154.265C63.2483 153.882 63.0573 153.5 62.2661 153.226C60.1652 152.516 59.1557 152.106 59.1557 150.33C59.1557 148.636 60.3562 147.761 62.4025 147.761C64.8035 147.761 65.4856 148.936 65.4856 150.139V150.412H63.221V150.248C63.221 149.51 62.9209 149.319 62.3752 149.319C61.6931 149.319 61.5021 149.647 61.5021 150.111C61.5021 151.614 65.5947 150.603 65.5947 153.909C65.5947 155.631 64.4488 156.697 62.3206 156.697C60.0288 156.697 59.0739 155.85 59.0739 154.155V153.773H61.3657V153.8Z"
    fill="white" />
  <path
    d="M66.4951 154.538L69.7146 149.92H66.6315V147.98H72.7431V149.92L69.4417 154.538H72.8249V156.478H66.4951V154.538Z"
    fill="white" />
  <path
    d="M76.2082 152.652V153.172C76.2082 154.483 76.3992 155.139 77.1358 155.139C77.7907 155.139 78.0089 154.647 78.0635 153.582H80.4372C80.3826 155.686 79.2367 156.697 77.1358 156.697C73.9163 156.697 73.6708 154.456 73.6708 151.915C73.6708 149.51 74.3529 147.761 77.1358 147.761C80.3008 147.761 80.5191 149.756 80.5191 152.652H76.2082ZM78.0362 151.177C78.0362 149.975 77.8725 149.346 77.1631 149.346C76.3173 149.346 76.1809 150.029 76.1809 151.177H78.0362Z"
    fill="white" />
  <path
    d="M85.9212 147.98H88.2949V156.178C88.2949 158.09 87.4491 159.375 84.748 159.375C82.2651 159.375 81.5557 158.282 81.5557 157.025H83.9294C83.984 157.271 84.0659 157.435 84.2023 157.544C84.366 157.653 84.557 157.708 84.8298 157.708C85.6756 157.708 85.8666 157.161 85.8666 155.549V155.03H85.8393C85.4846 156.014 84.6934 156.287 83.8203 156.287C81.965 156.287 81.4193 154.456 81.4193 152.133C81.4193 150.111 81.6922 147.789 83.9022 147.789C85.0481 147.789 85.621 148.39 85.9212 149.155H85.9484V147.98H85.9212ZM84.8571 154.429C85.5392 154.429 85.812 153.937 85.812 151.997C85.812 150.439 85.621 149.701 84.8844 149.701C84.0386 149.701 83.9294 150.685 83.9294 152.079C83.9294 153.882 84.175 154.429 84.8571 154.429Z"
    fill="white" />
  <path
    d="M91.9783 152.652V153.172C91.9783 154.483 92.1693 155.139 92.906 155.139C93.5608 155.139 93.7791 154.647 93.8336 153.582H96.2073C96.1528 155.686 95.0068 156.697 92.906 156.697C89.6865 156.697 89.4409 154.456 89.4409 151.915C89.4409 149.51 90.123 147.761 92.906 147.761C96.0709 147.761 96.2892 149.756 96.2892 152.652H91.9783ZM93.8336 151.177C93.8336 149.975 93.6699 149.346 92.9606 149.346C92.1147 149.346 91.9783 150.029 91.9783 151.177H93.8336Z"
    fill="white" />
  <path
    d="M101.391 147.98H103.847V149.018H103.874C104.065 148.444 104.584 147.761 105.729 147.761C107.448 147.761 108.376 148.991 108.376 152.161C108.376 154.811 107.994 156.697 105.893 156.697C105.184 156.697 104.42 156.451 103.983 155.549H103.956V159.238H101.391V147.98ZM104.829 154.866C105.757 154.866 105.811 153.855 105.811 152.297C105.811 150.931 105.784 149.619 104.829 149.619C104.065 149.619 103.901 150.521 103.901 152.188C103.901 153.691 103.983 154.866 104.829 154.866Z"
    fill="white" />
  <path
    d="M109.304 152.27C109.304 149.729 109.877 147.789 112.823 147.789C115.961 147.789 116.343 149.701 116.343 152.243C116.343 154.784 115.77 156.724 112.823 156.724C109.713 156.724 109.304 154.811 109.304 152.27ZM112.851 149.428C112.087 149.428 111.868 150.166 111.868 152.215C111.868 154.292 112.087 155.03 112.851 155.03C113.642 155.03 113.805 154.319 113.805 152.243C113.778 150.139 113.615 149.428 112.851 149.428Z"
    fill="white" />
  <path
    d="M117.489 147.98H119.944V148.991H119.972C120.326 148.226 121.09 147.761 122.018 147.761C123.464 147.761 124.255 148.472 124.255 150.111V156.478H121.69V150.685C121.69 150.084 121.418 149.701 120.954 149.701C120.463 149.701 120.053 150.084 120.053 150.904V156.478H117.489V147.98Z"
    fill="white" />
  <path
    d="M126.001 149.756H124.937V148.007H126.001V145.52H128.566V148.007H129.739V149.756H128.566V154.046C128.566 154.647 128.784 154.838 129.385 154.838C129.494 154.838 129.63 154.811 129.739 154.811V156.505C129.248 156.56 128.757 156.587 128.266 156.587C126.493 156.587 126.001 156.287 126.001 154.292V149.756Z"
    fill="white" />
  <path
    d="M130.367 152.27C130.367 149.729 130.94 147.789 133.886 147.789C137.024 147.789 137.406 149.701 137.406 152.243C137.406 154.784 136.833 156.724 133.886 156.724C130.749 156.724 130.367 154.811 130.367 152.27ZM133.886 149.428C133.122 149.428 132.904 150.166 132.904 152.215C132.904 154.292 133.122 155.03 133.886 155.03C134.678 155.03 134.841 154.319 134.841 152.243C134.841 150.139 134.678 149.428 133.886 149.428Z"
    fill="white" />
  <path
    d="M140.489 153.8C140.516 154.183 140.544 154.511 140.653 154.757C140.789 155.002 141.035 155.139 141.444 155.139C142.044 155.139 142.344 154.757 142.344 154.265C142.344 153.882 142.153 153.5 141.362 153.226C139.261 152.516 138.252 152.106 138.252 150.33C138.252 148.636 139.452 147.761 141.499 147.761C143.9 147.761 144.582 148.936 144.582 150.139V150.412H142.344V150.248C142.344 149.51 142.044 149.319 141.499 149.319C140.817 149.319 140.626 149.647 140.626 150.111C140.626 151.614 144.718 150.603 144.718 153.909C144.718 155.631 143.572 156.697 141.444 156.697C139.152 156.697 138.197 155.85 138.197 154.155V153.773H140.489V153.8Z"
    fill="white" />
  <path
    d="M145.782 150.603C145.81 149.428 146.137 148.745 146.737 148.335C147.338 147.925 148.074 147.789 149.111 147.789C151.212 147.789 152.14 148.499 152.14 150.303V154.675C152.14 155.33 152.14 156.15 152.44 156.505H149.984C149.875 156.205 149.848 155.85 149.848 155.522H149.82C149.466 156.287 148.674 156.724 147.829 156.724C146.383 156.724 145.564 155.959 145.564 154.128C145.564 153.144 145.973 152.297 146.601 151.969C147.228 151.614 148.183 151.478 148.893 151.286C149.657 151.095 149.82 150.958 149.82 150.303C149.82 149.783 149.575 149.455 149.029 149.455C148.32 149.455 148.101 149.893 148.101 150.63H145.782V150.603ZM148.756 154.948C149.302 154.948 149.793 154.62 149.793 153.773C149.793 153.062 149.82 152.625 149.82 152.27C149.029 152.707 148.674 152.707 148.429 152.898C148.156 153.09 148.047 153.363 148.047 153.828C148.02 154.538 148.292 154.948 148.756 154.948Z"
    fill="white" />
  <path
    d="M153.722 147.98H156.177V148.991H156.205C156.559 148.226 157.323 147.761 158.251 147.761C159.697 147.761 160.488 148.472 160.488 150.111V156.478H157.924V150.685C157.924 150.084 157.651 149.701 157.187 149.701C156.696 149.701 156.287 150.084 156.287 150.904V156.478H153.722V147.98Z"
    fill="white" />
  <path
    d="M4.94257 165.468V165.113C4.94257 162.872 6.14306 161.752 8.54405 161.752C11.2724 161.752 12.0091 163.118 12.0091 164.867C12.0091 166.534 11.6271 167.162 10.2357 168.474C9.14429 169.512 8.32578 170.196 8.05294 170.824H12.0091V172.873H4.888C4.888 170.25 6.47047 168.693 7.42541 167.873C9.33528 166.179 9.36257 165.714 9.36257 164.894C9.36257 164.02 9.19886 163.419 8.43491 163.419C7.42541 163.419 7.42541 164.621 7.42541 165.468H4.94257Z"
    fill="white" />
  <path
    d="M15.6379 165.168H13.4824V163.501H13.8098C15.8016 163.501 16.2927 162.462 16.4018 161.752H18.2571V172.873H15.6106V165.168H15.6379Z"
    fill="white" />
  <path
    d="M21.5585 170.059H24.014V172.409C24.014 173.994 23.6866 175.415 21.5585 175.551V174.322C22.2679 174.322 22.5407 173.83 22.5407 172.792H21.5585V170.059Z"
    fill="white" />
  <path
    d="M32.9087 173.119C29.4163 173.119 28.9525 170.851 28.9525 167.299C28.9525 163.747 29.4163 161.479 32.9087 161.479C36.6739 161.479 36.8649 164.211 36.8649 167.299C36.8649 170.387 36.6466 173.119 32.9087 173.119ZM30.535 158.828H32.4994V160.878H30.535V158.828ZM32.8814 171.343C33.9455 171.343 34.1092 170.359 34.1092 167.272C34.1092 164.184 33.9455 163.2 32.8814 163.2C31.8446 163.2 31.6809 164.184 31.6809 167.272C31.6809 170.359 31.8446 171.343 32.8814 171.343ZM33.3179 158.828H35.2824V160.878H33.3179V158.828Z"
    fill="white" />
  <path
    d="M38.147 164.375H40.6025V165.386H40.6298C40.9845 164.621 41.7485 164.157 42.6761 164.157C44.1222 164.157 44.9134 164.867 44.9134 166.507V172.873H42.3487V167.08C42.3487 166.479 42.0759 166.097 41.612 166.097C41.1209 166.097 40.7117 166.479 40.7117 167.299V172.873H38.147V164.375Z"
    fill="white" />
  <path
    d="M50.4249 164.375H52.8805V165.386H52.9078C53.2625 164.621 54.0264 164.157 54.9541 164.157C56.4001 164.157 57.1913 164.867 57.1913 166.507V172.873H54.6267V167.08C54.6267 166.479 54.3538 166.097 53.89 166.097C53.3989 166.097 52.9896 166.479 52.9896 167.299V172.873H50.4249V164.375Z"
    fill="white" />
  <path
    d="M58.0643 164.375H60.7109L61.7477 170.332H61.7749L62.7572 164.375H65.3219L63.03 172.955C62.4571 175.141 61.8568 175.661 59.8651 175.661C59.4558 175.661 59.1011 175.661 58.7737 175.633V173.83C58.992 173.857 59.2103 173.884 59.4012 173.884C59.8924 173.884 60.3289 173.666 60.4653 172.955L58.0643 164.375Z"
    fill="white" />
  <path
    d="M68.2958 169.048V169.567C68.2958 170.879 68.4867 171.534 69.2234 171.534C69.8782 171.534 70.0965 171.043 70.1511 169.977H72.5248C72.4702 172.081 71.3243 173.092 69.2234 173.092C66.0039 173.092 65.7584 170.851 65.7584 168.31C65.7584 165.905 66.4405 164.157 69.2234 164.157C72.3884 164.157 72.6066 166.151 72.6066 169.048H68.2958ZM70.1511 167.572C70.1511 166.37 69.9874 165.742 69.278 165.742C68.4322 165.742 68.2958 166.425 68.2958 167.572H70.1511Z"
    fill="white" />
  <path
    d="M73.6162 164.375H76.0718V165.578H76.0991C76.4265 164.812 77.0813 164.157 78.1453 164.157C78.2818 164.157 78.3909 164.157 78.5546 164.184V166.589C78.3091 166.534 78.1181 166.534 77.8725 166.534C76.8357 166.534 76.1809 166.971 76.1809 168.064V172.901H73.6162V164.375Z"
    fill="white" />
  <path
    d="M79.7823 166.151H78.7183V164.403H79.7823V161.916H82.347V164.403H83.5202V166.151H82.347V170.441C82.347 171.043 82.5653 171.234 83.1655 171.234C83.2747 171.234 83.4111 171.207 83.5202 171.207V172.901C83.0291 172.955 82.538 172.983 82.0469 172.983C80.2734 172.983 79.7823 172.682 79.7823 170.687V166.151Z"
    fill="white" />
  <path
    d="M90.9416 165.168H88.7861V163.501H89.1135C91.1053 163.501 91.5964 162.462 91.7055 161.752H93.5608V172.873H90.9143V165.168H90.9416Z"
    fill="white" />
  <path
    d="M104.229 173.119C100.873 173.119 100.545 171.043 100.545 167.436C100.573 164.239 100.9 161.752 104.229 161.752C107.585 161.752 107.912 163.856 107.912 167.436C107.885 170.633 107.557 173.119 104.229 173.119ZM104.229 171.452C105.129 171.452 105.266 170.605 105.266 167.463C105.266 164.293 105.129 163.446 104.229 163.446C103.328 163.446 103.192 164.293 103.192 167.463C103.219 170.605 103.328 171.452 104.229 171.452Z"
    fill="white" />
  <path
    d="M112.441 173.119C109.085 173.119 108.758 171.043 108.758 167.436C108.785 164.239 109.113 161.752 112.441 161.752C115.797 161.752 116.125 163.856 116.125 167.436C116.097 170.633 115.77 173.119 112.441 173.119ZM112.441 171.452C113.342 171.452 113.478 170.605 113.478 167.463C113.478 164.293 113.342 163.446 112.441 163.446C111.541 163.446 111.404 164.293 111.404 167.463C111.404 170.605 111.541 171.452 112.441 171.452Z"
    fill="white" />
  <path
    d="M120.654 173.119C117.298 173.119 116.97 171.043 116.97 167.436C116.998 164.239 117.325 161.752 120.654 161.752C124.01 161.752 124.337 163.856 124.337 167.436C124.31 170.633 123.982 173.119 120.654 173.119ZM120.654 171.452C121.554 171.452 121.691 170.605 121.691 167.463C121.691 164.293 121.554 163.446 120.654 163.446C119.753 163.446 119.617 164.293 119.617 167.463C119.617 170.605 119.753 171.452 120.654 171.452Z"
    fill="white" />
  <path
    d="M129.685 161.67H136.206V163.801H132.331V166.042H135.96V168.173H132.331V172.873H129.685V161.67Z"
    fill="white" />
  <path
    d="M137.488 166.151H136.424V164.403H137.488V161.916H140.053V164.403H141.226V166.151H140.053V170.441C140.053 171.043 140.271 171.234 140.871 171.234C140.98 171.234 141.117 171.207 141.226 171.207V172.901C140.735 172.955 140.244 172.983 139.752 172.983C137.979 172.983 137.488 172.682 137.488 170.687V166.151Z"
    fill="white" />
  <path d="M141.963 167.272H146.737V169.403H141.963V167.272Z" fill="white" />
  <path
    d="M147.692 168.665C147.692 166.124 148.265 164.184 151.212 164.184C154.35 164.184 154.732 166.097 154.732 168.638C154.732 171.179 154.159 173.119 151.212 173.119C148.074 173.119 147.692 171.207 147.692 168.665ZM151.212 165.824C150.448 165.824 150.23 166.561 150.23 168.611C150.23 170.687 150.448 171.425 151.212 171.425C152.003 171.425 152.167 170.715 152.167 168.638C152.167 166.534 152.003 165.824 151.212 165.824Z"
    fill="white" />
  <path
    d="M156.177 166.151H155.113V164.403H156.177V161.916H158.742V164.403H159.915V166.151H158.742V170.441C158.742 171.043 158.96 171.234 159.561 171.234C159.67 171.234 159.806 171.207 159.915 171.207V172.901C159.424 172.955 158.933 172.983 158.442 172.983C156.669 172.983 156.177 172.682 156.177 170.687V166.151Z"
    fill="white" />
  <path
    d="M161.471 161.67H164.035V165.359L163.762 169.704H161.798L161.471 165.359V161.67ZM161.525 170.523H163.981V172.873H161.525V170.523Z"
    fill="white" />
  <path
    d="M1.75018 21.162H4.39673V25.3701H6.49759V21.162H9.14413V32.3928H6.49759V27.6108H4.39673V32.3928H1.75018V21.162Z"
    fill="white" />
  <path
    d="M10.6447 26.4904C10.6719 25.3154 10.9994 24.6323 11.5996 24.2224C12.1998 23.8125 12.9365 23.6759 13.9733 23.6759C16.0742 23.6759 17.0018 24.3864 17.0018 26.1898V30.562C17.0018 31.2178 17.0018 32.0375 17.3019 32.3928H14.8464C14.7373 32.0922 14.71 31.7369 14.71 31.409H14.6827C14.328 32.1742 13.5368 32.6114 12.691 32.6114C11.2449 32.6114 10.4264 31.8462 10.4264 30.0154C10.4264 29.0317 10.8357 28.1846 11.4632 27.8567C12.0907 27.5015 13.0457 27.3648 13.755 27.1736C14.519 26.9823 14.6827 26.8457 14.6827 26.1898C14.6827 25.6707 14.4371 25.3428 13.8915 25.3428C13.1821 25.3428 12.9638 25.78 12.9638 26.5177H10.6447V26.4904ZM13.6186 30.8625C14.1643 30.8625 14.6554 30.5346 14.6554 29.6875C14.6554 28.9771 14.6827 28.5398 14.6827 28.1846C13.8915 28.6218 13.5368 28.6218 13.2912 28.8131C13.0184 29.0044 12.9092 29.2776 12.9092 29.7422C12.8819 30.4526 13.1275 30.8625 13.6186 30.8625Z"
    fill="white" />
  <path
    d="M22.6497 26.4904C22.677 25.3154 23.0044 24.6323 23.6046 24.2224C24.2048 23.8125 24.9415 23.6759 25.9783 23.6759C28.0792 23.6759 29.0068 24.3864 29.0068 26.1898V30.562C29.0068 31.2178 29.0068 32.0375 29.3069 32.3928H26.8514C26.7423 32.0922 26.715 31.7369 26.715 31.409H26.6877C26.333 32.1742 25.5418 32.6114 24.696 32.6114C23.2499 32.6114 22.4314 31.8462 22.4314 30.0154C22.4314 29.0317 22.8407 28.1846 23.4682 27.8567C24.0957 27.5015 25.0507 27.3648 25.76 27.1736C26.524 26.9823 26.6877 26.8457 26.6877 26.1898C26.6877 25.6707 26.4421 25.3428 25.8965 25.3428C25.1871 25.3428 24.9688 25.78 24.9688 26.5177H22.6497V26.4904ZM25.5963 30.8625C26.142 30.8625 26.6331 30.5346 26.6331 29.6875C26.6331 28.9771 26.6604 28.5398 26.6604 28.1846C25.8692 28.6218 25.5145 28.6218 25.2689 28.8131C24.9961 29.0044 24.887 29.2776 24.887 29.7422C24.8597 30.4526 25.1325 30.8625 25.5963 30.8625Z"
    fill="white" />
  <path
    d="M30.3439 30.4526L33.5634 25.8346H30.4803V23.8945H36.5919V25.8346L33.2905 30.4526H36.6737V32.3928H30.3439V30.4526Z"
    fill="white" />
  <path
    d="M1.34094 44.5526C1.34094 42.0113 1.91391 40.0712 4.86057 40.0712C7.99823 40.0712 8.3802 41.984 8.3802 44.5252C8.3802 47.0665 7.80724 49.0066 4.86057 49.0066C1.7502 49.0066 1.34094 47.1212 1.34094 44.5526ZM4.88786 41.738C4.12391 41.738 3.90563 42.4758 3.90563 44.5252C3.90563 46.602 4.12391 47.3398 4.88786 47.3398C5.67909 47.3398 5.84279 46.6293 5.84279 44.5526C5.84279 42.4485 5.67909 41.738 4.88786 41.738Z"
    fill="white" />
  <path
    d="M11.4905 46.0827C11.5178 46.4653 11.5451 46.7932 11.6542 47.0392C11.7906 47.2851 12.0362 47.4217 12.4455 47.4217C13.0457 47.4217 13.3458 47.0391 13.3458 46.5473C13.3458 46.1647 13.1548 45.7822 12.3636 45.5089C10.2627 44.7985 9.25324 44.3885 9.25324 42.6124C9.25324 40.9182 10.4537 40.0438 12.5 40.0438C14.901 40.0438 15.5831 41.2188 15.5831 42.4211V42.6944H13.3185V42.5304C13.3185 41.7926 13.0184 41.6014 12.4727 41.6014C11.7906 41.6014 11.5997 41.9293 11.5997 42.3938C11.5997 43.8967 15.6922 42.8857 15.6922 46.1921C15.6922 47.9136 14.5463 48.9792 12.4182 48.9792C10.1263 48.9792 9.17139 48.1322 9.17139 46.438V46.0554H11.4905V46.0827Z"
    fill="white" />
  <path
    d="M16.6199 46.848L19.8394 42.23H16.7563V40.2899H22.8679V42.23L19.5665 46.848H22.9497V48.7882H16.6199V46.848Z"
    fill="white" />
  <path
    d="M24.4777 42.0387H23.4136V40.2899H24.4777V37.8032H27.0424V40.2899H28.2156V42.0387H27.0424V46.3288C27.0424 46.9299 27.2607 47.1212 27.8609 47.1212C27.9701 47.1212 28.1065 47.0939 28.2156 47.0939V48.7881C27.7245 48.8428 27.2334 48.8701 26.7423 48.8701C24.9688 48.8701 24.4777 48.5695 24.4777 46.5747V42.0387Z"
    fill="white" />
  <path
    d="M28.8159 44.5526C28.8159 42.0113 29.3889 40.0712 32.3355 40.0712C35.4732 40.0712 35.8552 41.984 35.8552 44.5253C35.8552 47.0665 35.2822 49.0066 32.3355 49.0066C29.2252 49.0066 28.8159 47.1212 28.8159 44.5526ZM32.1718 37.1747H34.6274L33.0449 39.4154H31.3806L32.1718 37.1747ZM32.3628 41.738C31.5989 41.738 31.3806 42.4758 31.3806 44.5253C31.3806 46.602 31.5989 47.3398 32.3628 47.3398C33.1541 47.3398 33.3178 46.6293 33.3178 44.5526C33.3178 42.4485 33.1541 41.738 32.3628 41.738Z"
    fill="white" />
  <path
    d="M3.57835 62.4781C3.60564 62.8607 3.63292 63.1886 3.74206 63.4345C3.87848 63.6805 4.12403 63.8171 4.53329 63.8171C5.13354 63.8171 5.46094 63.4345 5.46094 62.9427C5.46094 62.5601 5.26996 62.1776 4.47872 61.9043C2.37786 61.1939 1.36835 60.7839 1.36835 59.0078C1.36835 57.3136 2.56885 56.4392 4.61514 56.4392C7.01613 56.4392 7.69823 57.6142 7.69823 58.8165V59.0897H5.43366V58.9258C5.43366 58.188 5.13354 57.9967 4.58786 57.9967C3.90576 57.9967 3.71477 58.3247 3.71477 58.7892C3.71477 60.2921 7.80736 59.2811 7.80736 62.5875C7.80736 64.309 6.66144 65.3746 4.53329 65.3746C2.24144 65.3746 1.2865 64.5276 1.2865 62.8334V62.4508H3.57835V62.4781Z"
    fill="white" />
  <path
    d="M8.70764 63.2433L11.9271 58.6253H8.84406V56.6852H14.9557V58.6253L11.6543 63.2433H15.0375V65.1834H8.70764V63.2433Z"
    fill="white" />
  <path
    d="M16.2107 59.2811C16.238 58.1061 16.5654 57.423 17.1656 57.0131C17.7659 56.6032 18.5026 56.4666 19.5393 56.4666C21.6402 56.4666 22.5679 57.177 22.5679 58.9805V63.3526C22.5679 64.0084 22.5679 64.8282 22.868 65.1834H20.4124C20.3033 64.8828 20.276 64.5276 20.276 64.1997H20.2487C19.894 64.9648 19.1028 65.402 18.257 65.402C16.811 65.402 15.9924 64.6369 15.9924 62.8061C15.9924 61.8224 16.4017 60.9753 17.0292 60.6474C17.6568 60.2921 18.6117 60.1555 19.3211 59.9642C20.085 59.773 20.2487 59.6363 20.2487 58.9805C20.2487 58.4613 20.0032 58.1334 19.4575 58.1334C18.7481 58.1334 18.5298 58.5706 18.5298 59.3084H16.2107V59.2811ZM19.1574 63.6532C19.703 63.6532 20.1942 63.3253 20.1942 62.4782C20.1942 61.7677 20.2214 61.3305 20.2214 60.9753C19.4302 61.4125 19.0755 61.4125 18.83 61.6038C18.5571 61.7951 18.448 62.0683 18.448 62.5328C18.4207 63.2433 18.6935 63.6532 19.1574 63.6532ZM19.2938 53.5701H21.7493L20.1669 55.8107H18.5026L19.2938 53.5701Z"
    fill="white" />
  <path
    d="M24.205 56.6853H26.6605V57.6963H26.6878C27.0425 56.9312 27.7792 56.4667 28.7341 56.4667C29.4708 56.4667 30.453 56.6033 30.835 57.7783C31.4352 56.7946 32.0082 56.4667 32.9631 56.4667C34.4092 56.4667 35.2004 57.1771 35.2004 58.8167V65.1835H32.6357V59.3905C32.6357 58.7893 32.3629 58.4068 31.899 58.4068C31.4079 58.4068 30.9987 58.7893 30.9987 59.6091V65.1835H28.434V59.3905C28.434 58.7893 28.1611 58.4068 27.6973 58.4068C27.2062 58.4068 26.7696 58.7893 26.7696 59.6091V65.1835H24.205V56.6853Z"
    fill="white" />
  <path
    d="M36.6464 59.2811C36.6737 58.1061 37.0011 57.423 37.6013 57.0131C38.2016 56.6032 38.9382 56.4666 39.975 56.4666C42.0759 56.4666 43.0035 57.177 43.0035 58.9805V63.3526C43.0035 64.0084 43.0035 64.8282 43.3037 65.1834H40.8481C40.739 64.8828 40.7117 64.5276 40.7117 64.1997H40.6844C40.3297 64.9648 39.5385 65.402 38.6927 65.402C37.2466 65.402 36.4281 64.6369 36.4281 62.8061C36.4281 61.8224 36.8374 60.9753 37.4649 60.6474C38.0924 60.2921 39.0474 60.1555 39.7567 59.9642C40.5207 59.773 40.6844 59.6363 40.6844 58.9805C40.6844 58.4613 40.4388 58.1334 39.8932 58.1334C39.1838 58.1334 38.9655 58.5706 38.9655 59.3084H36.6464V59.2811ZM39.6203 63.6532C40.166 63.6532 40.6571 63.3253 40.6571 62.4782C40.6571 61.7677 40.6844 61.3305 40.6844 60.9753C39.8932 61.4125 39.5385 61.4125 39.2929 61.6038C39.0201 61.7951 38.9109 62.0683 38.9109 62.5328C38.8837 63.2433 39.1292 63.6532 39.6203 63.6532ZM39.7567 53.5701H42.2123L40.6298 55.8107H38.9655L39.7567 53.5701Z"
    fill="white" />
  <path
    d="M44.5861 56.6853H47.0416V57.6963H47.0689C47.4236 56.9312 48.1875 56.4667 49.1152 56.4667C50.5612 56.4667 51.3525 57.1771 51.3525 58.8167V65.1835H48.7878V59.3905C48.7878 58.7893 48.5149 58.4068 48.0511 58.4068C47.56 58.4068 47.1508 58.7893 47.1508 59.6091V65.1835H44.5861V56.6853Z"
    fill="white" />
  <path
    d="M52.7166 59.2811C52.7438 58.1061 53.0713 57.423 53.6715 57.0131C54.2717 56.6032 55.0084 56.4666 56.0452 56.4666C58.1461 56.4666 59.0737 57.177 59.0737 58.9805V63.3526C59.0737 64.0084 59.0737 64.8282 59.3739 65.1834H56.9183C56.8092 64.8828 56.7819 64.5276 56.7819 64.1997H56.7546C56.3999 64.9648 55.6087 65.402 54.7629 65.402C53.3168 65.402 52.4983 64.6369 52.4983 62.8061C52.4983 61.8224 52.9076 60.9753 53.5351 60.6474C54.1626 60.2921 55.1175 60.1555 55.8269 59.9642C56.5909 59.773 56.7546 59.6363 56.7546 58.9805C56.7546 58.4613 56.509 58.1334 55.9634 58.1334C55.254 58.1334 55.0357 58.5706 55.0357 59.3084H52.7166V59.2811ZM55.6905 63.6532C56.2362 63.6532 56.7273 63.3253 56.7273 62.4782C56.7273 61.7677 56.7546 61.3305 56.7546 60.9753C55.9634 61.4125 55.6087 61.4125 55.3631 61.6038C55.0903 61.7951 54.9811 62.0683 54.9811 62.5328C54.9538 63.2433 55.2267 63.6532 55.6905 63.6532ZM55.8269 53.5701H58.2825L56.7 55.8107H55.0357L55.8269 53.5701Z"
    fill="white" />
  <path d="M60.738 53.9525H63.3027V65.1833H60.738V53.9525Z" fill="white" />
  <path
    d="M1.64105 73.0804H4.09661V74.0915H4.12389C4.47858 73.3263 5.24253 72.8618 6.17019 72.8618C7.61624 72.8618 8.40747 73.5723 8.40747 75.2118V81.5787H5.84278V75.7856C5.84278 75.1845 5.56994 74.8019 5.10612 74.8019C4.615 74.8019 4.20575 75.1845 4.20575 76.0042V81.5787H1.64105V73.0804Z"
    fill="white" />
  <path
    d="M9.7718 75.6763C9.79909 74.5013 10.1265 73.8182 10.7267 73.4083C11.327 72.9984 12.0637 72.8618 13.1004 72.8618C15.2013 72.8618 16.129 73.5723 16.129 75.3758V79.7479C16.129 80.4037 16.129 81.2234 16.4291 81.5787H13.9735C13.8644 81.2781 13.8371 80.9229 13.8371 80.5949H13.8098C13.4551 81.3601 12.6639 81.7973 11.8181 81.7973C10.372 81.7973 9.55353 81.0321 9.55353 79.2013C9.55353 78.2176 9.96279 77.3705 10.5903 77.0426C11.2178 76.6874 12.1728 76.5508 12.8822 76.3595C13.6461 76.1682 13.8098 76.0316 13.8098 75.3758C13.8098 74.8566 13.5643 74.5287 13.0186 74.5287C12.3092 74.5287 12.0909 74.9659 12.0909 75.7037H9.7718V75.6763ZM12.7458 80.0484C13.2914 80.0484 13.7825 79.7205 13.7825 78.8734C13.7825 78.163 13.8098 77.7257 13.8098 77.3705C13.0186 77.8077 12.6639 77.8078 12.4183 77.999C12.1455 78.1903 12.0364 78.4636 12.0364 78.9281C12.0091 79.6386 12.2819 80.0484 12.7458 80.0484Z"
    fill="white" />
  <path
    d="M22.104 73.0806H24.4777V81.2782C24.4777 83.191 23.6319 84.4753 20.9308 84.4753C18.448 84.4753 17.7386 83.3823 17.7386 82.1253H20.1123C20.1669 82.3713 20.2487 82.5352 20.3851 82.6445C20.5488 82.7538 20.7398 82.8085 21.0127 82.8085C21.8585 82.8085 22.0495 82.262 22.0495 80.6498V80.1306H22.0222C21.6675 81.1143 20.8762 81.3875 20.0032 81.3875C18.1478 81.3875 17.6022 79.5567 17.6022 77.2341C17.6022 75.212 17.875 72.8893 20.085 72.8893C21.2309 72.8893 21.8039 73.4904 22.104 74.2556H22.1313V73.0806H22.104ZM21.0672 79.5294C21.7493 79.5294 22.0222 79.0376 22.0222 77.0974C22.0222 75.5399 21.8312 74.8021 21.0945 74.8021C20.2487 74.8021 20.1396 75.7858 20.1396 77.1794C20.1396 78.9556 20.3579 79.5294 21.0672 79.5294Z"
    fill="white" />
  <path
    d="M25.3508 73.0806H27.9974L29.0342 79.0375H29.0614L30.0437 73.0806H32.6084L30.3165 81.6608C29.7435 83.8468 29.1433 84.366 27.1516 84.366C26.7423 84.366 26.3876 84.366 26.0602 84.3387V82.5352C26.2785 82.5625 26.4968 82.5898 26.6877 82.5898C27.1789 82.5898 27.6154 82.3712 27.7518 81.6608L25.3508 73.0806Z"
    fill="white" />
  <path
    d="M33.0176 77.3432C33.0176 74.8019 33.5905 72.8618 36.5372 72.8618C39.6749 72.8618 40.0568 74.7746 40.0568 77.3159C40.0568 79.8572 39.4839 81.7973 36.5372 81.7973C33.4268 81.7973 33.0176 79.9118 33.0176 77.3432ZM36.5645 74.5287C35.8005 74.5287 35.5823 75.2665 35.5823 77.3159C35.5823 79.3926 35.8005 80.1304 36.5645 80.1304C37.3557 80.1304 37.5194 79.4199 37.5194 77.3432C37.4921 75.2391 37.3557 74.5287 36.5645 74.5287Z"
    fill="white" />
  <path
    d="M41.2028 70.3481H43.7675V73.9824H43.7947C44.2313 73.0807 44.9952 72.8348 45.7046 72.8348C47.8055 72.8348 48.1874 74.7475 48.1874 77.3708C48.1874 80.5406 47.2598 81.7702 45.5409 81.7702C44.395 81.7702 43.8766 81.0871 43.6856 80.5133H43.6583V81.5516H41.2028V70.3481ZM44.6133 79.9394C45.5682 79.9394 45.5955 78.6278 45.5955 77.2615C45.5955 75.7313 45.5409 74.6929 44.6133 74.6929C43.7402 74.6929 43.6856 75.8679 43.6856 77.3708C43.7129 79.0376 43.8493 79.9394 44.6133 79.9394Z"
    fill="white" />
  <path
    d="M49.3879 70.3481H51.9526V73.9824H51.9799C52.4165 73.0807 53.1804 72.8348 53.8898 72.8348C55.9907 72.8348 56.3726 74.7475 56.3726 77.3708C56.3726 80.5406 55.445 81.7702 53.7261 81.7702C52.5802 81.7702 52.0618 81.0871 51.8708 80.5133H51.8435V81.5516H49.3879V70.3481ZM52.7984 79.9394C53.7534 79.9394 53.7807 78.6278 53.7807 77.2615C53.7807 75.7313 53.7261 74.6929 52.7984 74.6929C51.9253 74.6929 51.8708 75.8679 51.8708 77.3708C51.8981 79.0376 52.0618 79.9394 52.7984 79.9394Z"
    fill="white" />
  <path
    d="M63.6302 78.8736C63.6575 79.2562 63.6848 79.5841 63.7939 79.83C63.9304 80.076 64.1759 80.2126 64.5852 80.2126C65.1854 80.2126 65.5128 79.83 65.5128 79.3382C65.5128 78.9556 65.3218 78.5731 64.5306 78.2998C62.4297 77.5894 61.4202 77.1794 61.4202 75.4033C61.4202 73.7091 62.6207 72.8347 64.667 72.8347C67.068 72.8347 67.7501 74.0097 67.7501 75.212V75.4853H65.4855V75.3213C65.4855 74.5835 65.1854 74.3923 64.6397 74.3923C63.9576 74.3923 63.7666 74.7202 63.7666 75.1847C63.7666 76.6876 67.8592 75.6766 67.8592 78.983C67.8592 80.7045 66.7133 81.7701 64.5852 81.7701C62.2933 81.7701 61.3384 80.9231 61.3384 79.2289V78.8463H63.6302V78.8736Z"
    fill="white" />
  <path
    d="M68.7596 79.6387L71.9792 75.0207H68.8961V73.0806H75.0077V75.0207L71.7063 79.6387H75.0895V81.5788H68.7596V79.6387Z"
    fill="white" />
  <path
    d="M76.2354 75.6764C76.2626 74.5014 76.5901 73.8182 77.1903 73.4083C77.7905 72.9985 78.5272 72.8618 79.564 72.8618C81.6649 72.8618 82.5925 73.5723 82.5925 75.3758V79.7479C82.5925 80.4037 82.5925 81.2235 82.8926 81.5787H80.4371C80.328 81.2781 80.3007 80.9229 80.3007 80.595H80.2734C79.9187 81.3601 79.1275 81.7973 78.2817 81.7973C76.8356 81.7973 76.0171 81.0322 76.0171 79.2013C76.0171 78.2176 76.4264 77.3705 77.0539 77.0426C77.6814 76.6874 78.6364 76.5508 79.3457 76.3595C80.1097 76.1682 80.2734 76.0316 80.2734 75.3758C80.2734 74.8566 80.0278 74.5287 79.4822 74.5287C78.7728 74.5287 78.5545 74.9659 78.5545 75.7037H76.2354V75.6764ZM79.2093 80.0485C79.755 80.0485 80.2461 79.7205 80.2461 78.8734C80.2461 78.163 80.2734 77.7258 80.2734 77.3705C79.4822 77.8077 79.1275 77.8078 78.8819 77.999C78.6091 78.1903 78.4999 78.4636 78.4999 78.9281C78.4726 79.6386 78.7455 80.0485 79.2093 80.0485ZM79.3457 69.9653H81.8013L80.2188 72.206H78.5545L79.3457 69.9653Z"
    fill="white" />
  <path
    d="M84.2568 73.0804H86.7124V74.0915H86.7397C87.0944 73.3263 87.831 72.8618 88.786 72.8618C89.5226 72.8618 90.5049 72.9984 90.8868 74.1734C91.4871 73.1897 92.06 72.8618 93.015 72.8618C94.461 72.8618 95.2523 73.5723 95.2523 75.2118V81.5787H92.6876V75.7856C92.6876 75.1845 92.4147 74.8019 91.9509 74.8019C91.4598 74.8019 91.0505 75.1845 91.0505 76.0042V81.5787H88.4858V75.7856C88.4858 75.1845 88.213 74.8019 87.7492 74.8019C87.2581 74.8019 86.8215 75.1845 86.8215 76.0042V81.5787H84.2568V73.0804Z"
    fill="white" />
  <path
    d="M96.4528 77.3432C96.4528 74.8019 97.0257 72.8618 99.9724 72.8618C103.11 72.8618 103.492 74.7746 103.492 77.3159C103.492 79.8572 102.919 81.7973 99.9724 81.7973C96.862 81.7973 96.4528 79.9118 96.4528 77.3432ZM99.9997 74.5287C99.2357 74.5287 99.0174 75.2665 99.0174 77.3159C99.0174 79.3926 99.2357 80.1304 99.9997 80.1304C100.791 80.1304 100.955 79.4199 100.955 77.3432C100.927 75.2391 100.791 74.5287 99.9997 74.5287Z"
    fill="white" />
  <path
    d="M104.965 74.8295H103.901V73.0806H104.965V70.594H107.53V73.0806H108.703V74.8295H107.53V79.1196C107.53 79.7207 107.748 79.912 108.349 79.912C108.458 79.912 108.594 79.8847 108.703 79.8847V81.5789C108.212 81.6335 107.721 81.6608 107.23 81.6608C105.456 81.6608 104.965 81.3603 104.965 79.3655V74.8295Z"
    fill="white" />
  <path
    d="M1.96843 91.2247H0.904358V89.4759H1.96843V86.9893H4.53312V89.4759H5.70633V91.2247H4.53312V95.5148C4.53312 96.116 4.75139 96.3073 5.35164 96.3073C5.46078 96.3073 5.5972 96.2799 5.70633 96.2799V97.9741C5.21522 98.0288 4.72411 98.0561 4.233 98.0561C2.45954 98.0561 1.96843 97.7555 1.96843 95.7608V91.2247Z"
    fill="white" />
  <path
    d="M6.55213 92.0717C6.57942 90.8967 6.90682 90.2136 7.50707 89.8037C8.10732 89.3938 8.84399 89.2572 9.88078 89.2572C11.9816 89.2572 12.9093 89.9677 12.9093 91.7711V96.1433C12.9093 96.7991 12.9093 97.6188 13.2094 97.9741H10.7539C10.6447 97.6735 10.6174 97.3182 10.6174 96.9903H10.5902C10.2355 97.7555 9.44423 98.1927 8.59843 98.1927C7.15238 98.1927 6.33386 97.4275 6.33386 95.5967C6.33386 94.613 6.74312 93.7659 7.37065 93.438C7.99818 93.0828 8.95312 92.9461 9.66251 92.7549C10.4265 92.5636 10.5902 92.427 10.5902 91.7711C10.5902 91.252 10.3446 90.9241 9.79892 90.9241C9.08954 90.9241 8.87127 91.3613 8.87127 92.099H6.55213V92.0717ZM9.52608 96.4438C10.0718 96.4438 10.5629 96.1159 10.5629 95.2688C10.5629 94.5583 10.5902 94.1211 10.5902 93.7659C9.79892 94.2031 9.44423 94.2031 9.19868 94.3944C8.92584 94.5857 8.8167 94.8589 8.8167 95.3235C8.78942 96.0339 9.06226 96.4438 9.52608 96.4438Z"
    fill="white" />
  <path d="M14.5464 86.7433H17.1111V97.9741H14.5464V86.7433Z" fill="white" />
  <path
    d="M18.5571 92.0716C18.5844 90.8966 18.9118 90.2135 19.5121 89.8036C20.1123 89.3937 20.849 89.2571 21.8858 89.2571C23.9866 89.2571 24.9143 89.9676 24.9143 91.771V96.1431C24.9143 96.799 24.9143 97.6187 25.2144 97.974H22.7589C22.6497 97.6734 22.6224 97.3181 22.6224 96.9902H22.5952C22.2405 97.7553 21.4492 98.1926 20.6034 98.1926C19.1574 98.1926 18.3389 97.4274 18.3389 95.5966C18.3389 94.6129 18.7481 93.7658 19.3757 93.4379C20.0032 93.0827 20.9581 92.946 21.6675 92.7548C22.4315 92.5635 22.5952 92.4269 22.5952 91.771C22.5952 91.2519 22.3496 90.924 21.8039 90.924C21.0945 90.924 20.8763 91.3611 20.8763 92.0989H18.5571V92.0716ZM21.5311 96.4437C22.0768 96.4437 22.5679 96.1158 22.5679 95.2687C22.5679 94.5582 22.5952 94.121 22.5952 93.7658C21.8039 94.203 21.4492 94.203 21.2037 94.3943C20.9308 94.5856 20.8217 94.8588 20.8217 95.3234C20.7671 96.0338 21.04 96.4437 21.5311 96.4437ZM21.6675 86.3606H24.1231L22.5406 88.6013H20.8763L21.6675 86.3606Z"
    fill="white" />
  <path d="M26.5513 86.7433H29.116V97.9741H26.5513V86.7433Z" fill="white" />
  <path
    d="M30.6985 95.1597H33.154V97.5097C33.154 99.0945 32.8266 100.515 30.6985 100.652V99.4224C31.4079 99.4224 31.6807 98.9306 31.6807 97.8922H30.6985V95.1597Z"
    fill="white" />
  <path
    d="M42.0486 98.1928C38.5562 98.1928 38.0924 95.9247 38.0924 92.3724C38.0924 88.8201 38.5562 86.5521 42.0486 86.5521C45.8138 86.5521 46.0048 89.2846 46.0048 92.3724C46.0048 95.4602 45.7865 98.1928 42.0486 98.1928ZM39.6749 83.9288H41.6393V85.9782H39.6749V83.9288ZM42.0213 96.4439C43.0854 96.4439 43.2491 95.4602 43.2491 92.3724C43.2491 89.2846 43.0854 88.3009 42.0213 88.3009C40.9845 88.3009 40.8208 89.2846 40.8208 92.3724C40.8208 95.4602 40.9845 96.4439 42.0213 96.4439ZM42.4578 83.9288H44.395V85.9782H42.4306V83.9288H42.4578Z"
    fill="white" />
  <path
    d="M47.2598 89.4758H49.7154V90.4868H49.7427C50.0974 89.7217 50.8613 89.2572 51.789 89.2572C53.235 89.2572 54.0263 89.9677 54.0263 91.6072V97.9741H51.4888V92.181C51.4888 91.5799 51.216 91.1973 50.7522 91.1973C50.2611 91.1973 49.8518 91.5799 49.8518 92.3996V97.9741H47.2871V89.4758H47.2598Z"
    fill="white" />
  <path
    d="M59.5649 89.4758H62.0204V90.4868H62.0477C62.4024 89.7217 63.1664 89.2572 64.094 89.2572C65.5401 89.2572 66.3313 89.9677 66.3313 91.6072V97.9741H63.7666V92.181C63.7666 91.5799 63.4938 91.1973 63.0299 91.1973C62.5388 91.1973 62.1296 91.5799 62.1296 92.3996V97.9741H59.5649V89.4758Z"
    fill="white" />
  <path
    d="M67.2045 89.476H69.851L70.8878 95.4329H70.9151L71.8973 89.476H74.462L72.1701 98.0562C71.5972 100.242 70.9969 100.761 69.0052 100.761C68.5959 100.761 68.2413 100.761 67.9138 100.734V98.9306C68.1321 98.9579 68.3504 98.9852 68.5414 98.9852C69.0325 98.9852 69.469 98.7666 69.6055 98.0562L67.2045 89.476Z"
    fill="white" />
  <path
    d="M77.4358 94.1485V94.6676C77.4358 95.9793 77.6268 96.6351 78.3635 96.6351C79.0183 96.6351 79.2366 96.1433 79.2912 95.0776H81.6649C81.6103 97.1816 80.4644 98.1927 78.3635 98.1927C75.144 98.1927 74.8984 95.952 74.8984 93.4107C74.8984 91.006 75.5805 89.2572 78.3635 89.2572C81.5284 89.2572 81.7467 91.2519 81.7467 94.1485H77.4358ZM79.2912 92.6729C79.2912 91.4706 79.1275 90.8421 78.4181 90.8421C77.5723 90.8421 77.4358 91.5252 77.4358 92.6729H79.2912Z"
    fill="white" />
  <path
    d="M82.7563 89.4757H85.2118V90.678H85.2391C85.5665 89.9129 86.2214 89.2571 87.2854 89.2571C87.4218 89.2571 87.531 89.2571 87.6947 89.2844V91.6891C87.4491 91.6344 87.2309 91.6344 86.9853 91.6344C85.9485 91.6344 85.2937 92.0716 85.2937 93.1646V98.0012H82.729V89.4757H82.7563Z"
    fill="white" />
  <path
    d="M88.9225 91.2247H87.8584V89.4759H88.9225V86.9893H91.4872V89.4759H92.6604V91.2247H91.4872V95.5148C91.4872 96.116 91.7054 96.3073 92.3057 96.3073C92.4148 96.3073 92.5512 96.2799 92.6604 96.2799V97.9741C92.1693 98.0288 91.6782 98.0561 91.187 98.0561C89.4136 98.0561 88.9225 97.7555 88.9225 95.7608V91.2247Z"
    fill="white" />
  <path
    d="M94.2156 86.7433H96.7803V90.4322L96.5074 94.777H94.543L94.2156 90.4322V86.7433ZM94.2701 95.6241H96.7257V97.9741H94.2701V95.6241Z"
    fill="white" />
  <path
    d="M9.58072 0.257812L0.849854 15.3688H18.2843L9.58072 0.257812L0.849854 15.3688H18.2843L9.58072 0.257812Z"
    fill="white" />
</svg>